<?xml version="1.0" encoding="utf-8"?>
<!-- Generator: Adobe Illustrator 18.1.0, SVG Export Plug-In . SVG Version: 6.00 Build 0)  -->
<!DOCTYPE svg PUBLIC "-//W3C//DTD SVG 1.1//EN" "http://www.w3.org/Graphics/SVG/1.1/DTD/svg11.dtd">
<svg version="1.1" id="Layer_2" xmlns="http://www.w3.org/2000/svg" xmlns:xlink="http://www.w3.org/1999/xlink" x="0px" y="0px"
	 viewBox="498 137.5 600 600" enable-background="new 498 137.5 600 600" xml:space="preserve">
<path fill="none" stroke="#49B2C4" stroke-width="19.6173" stroke-linecap="round" stroke-linejoin="round" stroke-miterlimit="10" d="
	M538.4,222.7h522.1V654H538.4v-424"/>
<path fill="none" stroke="#49B2C4" stroke-width="19.6173" stroke-linecap="round" stroke-linejoin="round" stroke-miterlimit="10" d="
	M736.2,225.1v45h-96.5v56.6H539"/>
<path fill="none" stroke="#49B2C4" stroke-width="19.6173" stroke-linecap="round" stroke-linejoin="round" stroke-miterlimit="10" d="
	M639.7,270.1H539"/>
<path fill="none" stroke="#49B2C4" stroke-width="19.6173" stroke-linecap="round" stroke-linejoin="round" stroke-miterlimit="10" d="
	M736.2,270.1h120V327h81.4v289.7h-75.5V654"/>
<path fill="none" stroke="#49B2C4" stroke-width="19.6173" stroke-linecap="round" stroke-linejoin="round" stroke-miterlimit="10" d="
	M856.2,270.1h203.7"/>
<path fill="none" stroke="#49B2C4" stroke-width="19.6173" stroke-linecap="round" stroke-linejoin="round" stroke-miterlimit="10" d="
	M937.6,327h122.9"/>
<path fill="none" stroke="#49B2C4" stroke-width="19.6173" stroke-linecap="round" stroke-linejoin="round" stroke-miterlimit="10" d="
	M856.2,327v109.5h-120"/>
<path fill="none" stroke="#49B2C4" stroke-width="19.6173" stroke-linecap="round" stroke-linejoin="round" stroke-miterlimit="10" d="
	M856.2,436.5h81.4"/>
<path fill="none" stroke="#49B2C4" stroke-width="19.6173" stroke-linecap="round" stroke-linejoin="round" stroke-miterlimit="10" d="
	M639.7,326.7h96.5v162.2h125.9v127.8 M736.2,420.5H606.7v140.6h129.5v93.2"/>
<path fill="none" stroke="#49B2C4" stroke-width="19.6173" stroke-linecap="round" stroke-linejoin="round" stroke-miterlimit="10" d="
	M606.7,420.5h-68.3"/>
<path fill="none" stroke="#49B2C4" stroke-width="19.6173" stroke-linecap="round" stroke-linejoin="round" stroke-miterlimit="10" d="
	M937.6,416.6h45.1v127.2h77.8"/>
<path fill="none" stroke="#49B2C4" stroke-width="19.6173" stroke-linecap="round" stroke-linejoin="round" stroke-miterlimit="10" d="
	M982.7,416.6h77.8"/>
<path fill="none" stroke="#49B2C4" stroke-width="19.6173" stroke-linecap="round" stroke-linejoin="round" stroke-miterlimit="10" d="
	M982.7,543.8h-45.1"/>
<path fill="none" stroke="#49B2C4" stroke-width="19.6173" stroke-linecap="round" stroke-linejoin="round" stroke-miterlimit="10" d="
	M606.7,456.8h129.5"/>
<path fill="none" stroke="#49B2C4" stroke-width="19.6173" stroke-linecap="round" stroke-linejoin="round" stroke-miterlimit="10" d="
	M862.1,488.9h75.5"/>
<path fill="none" stroke="#49B2C4" stroke-width="19.6173" stroke-linecap="round" stroke-linejoin="round" stroke-miterlimit="10" d="
	M736.2,488.9v72.3h125.9"/>
<path fill="none" stroke="#49B2C4" stroke-width="19.6173" stroke-linecap="round" stroke-linejoin="round" stroke-miterlimit="10" d="
	M606.7,561.1h-68.3"/>
<path fill="none" stroke="#49B2C4" stroke-width="19.6173" stroke-linecap="round" stroke-linejoin="round" stroke-miterlimit="10" d="
	M937.6,616.7h122.9"/>
<path fill="none" stroke="#49B2C4" stroke-width="19.6173" stroke-linecap="round" stroke-linejoin="round" stroke-miterlimit="10" d="
	M736.2,621.6H539"/>
<path fill="none" stroke="#49B2C4" stroke-width="19.6173" stroke-linecap="round" stroke-linejoin="round" stroke-miterlimit="10" d="
	M539,211.9c6,0,10.8,4.8,10.8,10.8c0,6-4.8,10.8-10.8,10.8c-6,0-10.8-4.8-10.8-10.8C528.3,216.8,533.1,211.9,539,211.9z
	 M1060.2,211.9c6,0,10.8,4.8,10.8,10.8c0,6-4.8,10.8-10.8,10.8c-6,0-10.8-4.8-10.8-10.8C1049.4,216.8,1054.2,211.9,1060.2,211.9z
	 M1060.2,643.5c6,0,10.8,4.8,10.8,10.8s-4.8,10.8-10.8,10.8c-6,0-10.8-4.8-10.8-10.8S1054.3,643.5,1060.2,643.5z M538.4,643.5
	c6,0,10.8,4.8,10.8,10.8s-4.8,10.8-10.8,10.8s-10.8-4.8-10.8-10.8S532.4,643.5,538.4,643.5z"/>
</svg>
