<?xml version="1.0" encoding="utf-8"?>
<!-- Generator: Adobe Illustrator 18.1.0, SVG Export Plug-In . SVG Version: 6.00 Build 0)  -->
<!DOCTYPE svg PUBLIC "-//W3C//DTD SVG 1.1//EN" "http://www.w3.org/Graphics/SVG/1.1/DTD/svg11.dtd">
<svg version="1.1" id="Color_Block" xmlns="http://www.w3.org/2000/svg" xmlns:xlink="http://www.w3.org/1999/xlink" x="0px"
	 y="0px" viewBox="80.3 45.8 600 600" style="enable-background:new 80.3 45.8 600 600;" xml:space="preserve">
<style type="text/css">
	.st0{fill:none;stroke:#49B2C4;stroke-width:8.5508;stroke-linecap:round;stroke-linejoin:round;stroke-miterlimit:10;}
</style>
<path class="st0" d="M121.6,105.9h520.3v470.2H121.6V113.8"/>
<path class="st0" d="M318.7,108.5v49.1h-96.1v61.7H122.2"/>
<path class="st0" d="M222.6,157.6H122.2"/>
<path class="st0" d="M318.7,157.6h119.6v62h81.1v315.8h-75.3v40.6"/>
<path class="st0" d="M438.2,157.6h203"/>
<path class="st0" d="M519.4,219.6h122.5"/>
<path class="st0" d="M438.2,219.6v119.4H318.7"/>
<path class="st0" d="M438.2,339.1h81.1"/>
<path class="st0" d="M222.6,219.3h96.1v176.8h125.4v139.4 M318.7,321.6h-129v153.3h129v101.6"/>
<path class="st0" d="M189.7,321.6h-68.1"/>
<path class="st0" d="M519.4,317.3h45V456h77.5"/>
<path class="st0" d="M564.3,317.3h77.5"/>
<path class="st0" d="M564.3,456h-45"/>
<path class="st0" d="M189.7,361.2h129"/>
<path class="st0" d="M444.1,396.1h75.3"/>
<path class="st0" d="M318.7,396.1v78.8h125.4"/>
<path class="st0" d="M189.7,474.9h-68.1"/>
<path class="st0" d="M519.4,535.5h122.5"/>
<path class="st0" d="M318.7,540.8H122.2"/>
<path class="st0" d="M122.2,94.2c5.9,0,10.8,5.3,10.8,11.8c0,6.5-4.8,11.8-10.8,11.8s-10.8-5.3-10.8-11.8
	C111.5,99.4,116.3,94.2,122.2,94.2z M641.5,94.2c5.9,0,10.8,5.3,10.8,11.8c0,6.5-4.8,11.8-10.8,11.8s-10.8-5.3-10.8-11.8
	C630.8,99.4,635.6,94.2,641.5,94.2z M641.5,564.7c5.9,0,10.8,5.3,10.8,11.8c0,6.5-4.8,11.8-10.8,11.8s-10.8-5.3-10.8-11.8
	C630.8,570,635.6,564.7,641.5,564.7z M121.6,564.7c5.9,0,10.8,5.3,10.8,11.8c0,6.5-4.8,11.8-10.8,11.8c-5.9,0-10.8-5.3-10.8-11.8
	C110.8,570,115.6,564.7,121.6,564.7z"/>
</svg>
