<?xml version="1.0" encoding="utf-8"?>
<!-- Generator: Adobe Illustrator 18.1.1, SVG Export Plug-In . SVG Version: 6.00 Build 0)  -->
<!DOCTYPE svg PUBLIC "-//W3C//DTD SVG 1.1//EN" "http://www.w3.org/Graphics/SVG/1.1/DTD/svg11.dtd">
<svg version="1.1" id="Layer_1" xmlns="http://www.w3.org/2000/svg" xmlns:xlink="http://www.w3.org/1999/xlink" x="0px" y="0px"
	 viewBox="0 254 792 685" style="enable-background:new 0 254 792 685;" xml:space="preserve">
<style type="text/css">
	.st0{fill:none;stroke:#000000;stroke-miterlimit:10;}
	.st1{fill:none;stroke:#000000;stroke-linejoin:round;stroke-miterlimit:10;}
</style>
<path class="st0" d="M70.7,437.3c0.1,0.4,0.4,0.5,0.4,0.3s-0.1-0.6-0.3-0.8C70.7,436.7,70.6,436.9,70.7,437.3z"/>
<path class="st0" d="M299.1,755.3c-0.4-0.5-0.6-0.9-0.4-0.9c0.3,0-0.1-0.6-0.6-1.7c-0.6-0.9-1.2-2.1-1.3-2.5c-0.1-0.4-0.5-1-1-1.2
	c-0.4-0.3-0.6-0.4-0.5-0.4s0.3-0.1,0.3-0.3s0.1-0.1,0.1-0.1c0.1,0-0.1-0.4-0.4-1s-0.8-1.3-1-1.7c-0.3-0.3-0.6-0.8-0.9-1
	c-0.3-0.3-0.5-0.8-0.5-1c0-0.3-0.1-0.4-0.1-0.4c0,0.1-0.1,0-0.3-0.1s-0.6-0.6-1-1.2c-0.4-0.5-1.4-1.3-2.2-1.8s-0.9-0.5-0.3,0
	s0.3,0.5-0.8,0.1c-1-0.4-1.4-0.4-0.9,0c0.5,0.4,1.6,0.9,2.5,1.2c0.8,0.3,1,0.5,0.5,0.4c-0.5,0-1.4-0.3-2.1-0.5
	c-0.5-0.3-0.8-0.3-0.4,0c0.3,0.3,0.4,0.9,0.3,1.4s-0.6,1.4-0.9,1.9c-0.4,0.5-0.6,1.6-0.8,2.2c0,0.6-0.3,2.2-0.4,3.4
	c-0.1,1.2-0.4,1.6-0.5,0.9c-0.1-0.6-0.3-0.1-0.3,1.2c0,1.3,0,3.1,0.1,3.9s0.3,1.7,0.3,1.7c0,0.1,0.9,1.7,1.9,3.5l1.3,2.2
	c1,1.8,3.2,2.3,4.9,0.9l3.7-3.1c1.7-1.4,2.8-3.1,2.8-3.9C300.3,756.6,299.5,755.8,299.1,755.3z"/>
<path class="st0" d="M584.9,633.3c0.5-1.4,1.2-3.6,1.6-4.9c0.4-1.3,0.1-2.7-0.6-3.2c-0.6-0.5-1.6-0.8-2.1-0.5
	c-0.4,0.3-1.8,1.8-3,3.5l-4.8,6.6c-1.3,1.7-2.5,3.9-2.6,4.9s-0.1,1.8,0.1,1.8s0.5,0.6,0.6,1.3c0.1,0.6,0.3,1.4,0.4,1.7
	s0.8,1.2,1.6,1.8c0.6,0.6,1.6,1.9,1.9,2.6c0.4,0.6,1.2-0.3,1.8-2.2s1.8-5,2.6-7C583.4,637.5,584.4,634.7,584.9,633.3z"/>
<path class="st0" d="M609.4,736.3c0.3,0.3,0.5,0.4,0.8,0.3c0.3-0.1,0.4-0.5,0.3-0.8c0-0.3-0.4-1.2-0.9-2.1s-1-2.6-1.2-3.7
	c-0.3-1.2-0.8-1.9-1.2-1.8c-0.4,0.1-1,0.3-1.6,0.1c-0.4-0.1-1,0-1.3,0.1s-0.3,0.9,0.1,1.8c0.3,0.8,0.8,1.4,1.2,1.3s0.8,0.4,0.9,0.9
	c0.1,0.6,0.8,2.1,1.3,3.4c0.5,1.3,0.8,1.7,0.8,0.9c-0.1-0.8,0-1.2,0-1C608.8,735.6,609.1,736,609.4,736.3z"/>
<path class="st0" d="M604.6,719.6c-0.5-0.1-0.5,0.6,0,1.7c0.5,1,1.7,2.5,2.7,3.1c1,0.6,1.4,1.7,1,2.1c-0.4,0.4-0.3,1.2,0.4,1.7
	c0.6,0.5,1.6,1.2,2.1,1.4c0.5,0.3,1.4,0.6,2.2,0.8c0.6,0.1,0.9,0,0.5-0.4c-0.4-0.4-0.6-1-0.6-1.4c0-0.4-0.1-1.4-0.4-2.1
	c-0.3-0.6-0.4-1.8-0.3-2.6c0.1-0.8,0.3-1.4,0.3-1.4s-0.3-0.3-0.6-0.5c-0.4-0.3-2.1-0.8-3.5-1.3C606.6,720.1,605.1,719.7,604.6,719.6
	z"/>
<path class="st0" d="M593.7,743.8c0.3,0.5,0.6,0.1,1-0.8s1-3.1,1.6-4.9c0.5-1.7,0.9-4,0.8-5c-0.1-1-0.8-1.6-1.7-1s-1.7,1.8-1.8,3.1
	c-0.3,1.2-0.9,3-1.7,3.9s-0.6,2.2,0.1,2.7C592.7,742.5,593.5,743.3,593.7,743.8z"/>
<path class="st0" d="M588.8,734c1.2-0.4,2.7-1.4,3.6-2.1s1.9-1.8,2.3-2.5c0.4-0.6,0.8-1.6,0.8-2.1s-0.4-0.6-1-0.4s-1.3,0.4-1.7,0.3
	c-0.4-0.1-1.9-0.8-3.6-1.2s-2.8,0.9-2.7,3.1l0.1,0.9c0.3,2.1,0.3,4,0.3,4.3S587.6,734.5,588.8,734z"/>
<path class="st0" d="M571.7,693.2c-0.3,0.9-0.1,2.7,0.1,4c0.4,1.2,1,3,1.6,3.9c0.5,0.9,1.4,2.3,1.9,3.2s1.2,0.9,1.4-0.1
	s0.4-1.7,0.4-1.7s0.6,0.8,1.3,1.6c0.6,0.8,0.8,2.6,0.1,4c-0.6,1.4-0.6,2.7-0.3,3c0.5,0.1,1.7,0.3,2.8,0.3c1.2,0,2.3-0.4,2.7-0.9
	s1.4-0.6,2.2-0.3c0.8,0.4,1.9,1.2,2.6,1.6c0.6,0.4,1.4,1.4,1.7,2.1c0.3,0.6,0.6,0.6,0.9,0c0.1-0.6,0-1.9-0.5-2.7
	c-0.5-0.8-0.1-1.2,0.6-0.5c0.8,0.6,2.1,1.6,2.7,1.9c0.6,0.4,1.4,1.4,1.7,2.1c0.1,0.6,1,1.4,1.8,1.8c0.8,0.4,1.6,0.8,1.6,0.9
	s0,0.3,0.1,0.3c0,0,0.6-0.1,1.2-0.3s0.8-0.1,0.3,0c-0.5,0.3-0.4,0.6,0.3,1c0.6,0.4,1.2,0,1.3-0.9c0.1-0.8-0.5-1.4-1.3-1.4
	s-1.3-0.3-1-0.6c0.3-0.4-0.1-1.2-0.6-1.9c-0.6-0.6-0.4-1.6,0.4-1.8s0.6-0.8-0.5-1.2c-1.2-0.4-2.1-0.9-2.2-1.2s-0.3-0.5-0.3-0.6
	s0-0.1,0,0.1s-0.4,0.6-0.9,0.9c-0.5,0.3-1,0.1-1-0.4c0-0.5-0.6-1.3-1.4-1.8c-0.6-0.5-1.6-0.9-2.1-0.9c-0.4,0-1,0.5-1.4,0.9
	c-0.4,0.5-0.6,0.5-0.8,0.3c-0.1-0.3-0.3-0.4-0.4-0.3c-0.1,0.3-0.3,0.4-0.3,0.3c0,0,0.1,0.1,0.4,0.5c0.3,0.4,0.4,0.8,0.3,0.9
	c-0.1,0.3-1-0.3-2.1-1c-1-0.8-1.8-2.1-1.8-3s-0.1-3.1-0.4-5s-0.4-3.9-0.4-4.4c0-0.5,0.8-1.6,1.8-2.2c1-0.8,1.7-0.9,1.4-0.5
	c-0.3,0.5-0.1,0.4,0.4-0.3c0.5-0.6,0.8-1.2,0.8-1.4s0-0.3,0-0.3s0.3-1.4,0.8-3.1c0.5-1.7,0.4-3.7-0.1-4.3c-0.5-0.5-0.9-2.1-0.8-3.4
	s0.1-2.8,0-3.5c-0.1-0.6-0.5-0.9-0.9-0.5c-0.4,0.4-1.2,0.8-1.8,0.6c-0.6,0-2.1-0.5-3.2-1.2s-2.5-1.2-3-1.3c-0.5,0-1.4,0.8-2.1,1.8
	c-0.6,1-1.4,2.6-1.7,3.6c-0.3,0.9-0.4,2.6-0.3,3.7c0.1,1.2,0,3-0.3,4c-0.3,1-0.4,2.8-0.4,3.9c0,1-0.5,1.4-1.4,0.9
	C572.8,691.9,571.9,692.2,571.7,693.2z"/>
<path class="st0" d="M611.9,766.5c0.4-1.8,0.4-3.6,0.1-4.1c-0.3-0.5-0.3-1.4,0.1-2.1s0.9-1.7,1.2-2.1c0.3-0.4,0.9-0.8,1.2-0.5
	c0.3,0.3,1,1.8,1.7,3.7s1,2.3,1,1.2c0-1.2,0.1-2.1,0.5-1.8c0.4,0.3,0.9,0,1.2-0.5s0.6-1.6,0.8-2.3s0.1-1.9-0.1-2.7
	c-0.3-0.8-0.4-2.1-0.4-2.8c0-0.9-0.4-2.1-0.8-2.6c-0.4-0.5-0.6-1.6-0.5-2.2c0.1-0.6,0.1-1.8-0.1-2.8c-0.1-0.9-0.8-1.9-1.3-2.2
	c-0.5-0.3-1.4-0.8-1.9-1.2c-0.5-0.4-1.3-0.9-1.8-1.3c-0.5-0.4-0.6,0.3-0.5,1.6c0.1,1.2-0.3,2.5-0.9,2.6c-0.6,0.3-1.3,0.9-1.4,1.4
	c-0.3,0.5-0.8,0.6-1.3,0.3c-0.5-0.4-1.3,0.3-1.7,1.4c-0.4,1.2-1.2,1.8-1.6,1.4c-0.5-0.4-1-0.1-1.4,0.4c-0.3,0.5-1.4,1.7-2.6,2.3
	c-1.2,0.6-1.8,0.8-1.4,0.3c0.4-0.5,0.3-1.7-0.3-2.5s-1-1.4-1-1.3s-0.4,0.1-0.8-0.3c-0.4-0.3-1.3,0-2.1,0.5c-0.8,0.6-1.7,1.6-2.1,2.2
	c-0.4,0.6-1,1-1.3,1s-0.6,0-0.8,0.1s-0.5,0.3-1,0.5c-0.4,0.1-1.2,0.8-1.7,1.3c-0.5,0.5-0.9,1.3-0.9,1.6s-0.1,0.9-0.4,1.4
	c-0.3,0.5-0.4,1.4-0.4,2.2c0,0.8,0.8,0.5,1.6-0.6c0.9-1.2,2.1-2.5,2.6-3c0.5-0.5,1.2-0.5,1.2,0c0.1,0.5,0.4,0.9,0.6,0.8
	s0.8-0.5,1.2-0.9c0.4-0.4,0.8-0.4,0.8,0c0,0.4,0.3,0.8,0.6,0.8c0.3,0.1,0.8,0.4,1,0.6c0.3,0.3,0.4,0.3,0.3-0.3
	c-0.1-0.4,0.3-1.2,0.9-1.6c0.6-0.4,1.9-0.3,2.8,0.4c0.9,0.6,1.8,1.6,1.9,1.8c0.1,0.3,0,0.9-0.3,1.3c-0.3,0.4-0.5,1.4-0.6,2.1
	c0,0.6,0.4,2.2,0.9,3.5c0.5,1.3,1.9,2.6,3.1,3.1c1.2,0.5,2.6,0.6,3.2,0.1c0.6-0.4,1.4,0,1.7,1C611,769,611.5,768.3,611.9,766.5z"/>
<path class="st0" d="M563.8,739.4c0.1-0.1,0.8-0.5,1.4-0.9c0.6-0.3,1.4-0.9,1.9-1.3c0.4-0.4,1.4-1.3,2.3-1.8
	c0.9-0.5,1.3-1.2,1.2-1.4s-0.3-0.5-0.3-0.5s-0.1-1.3-0.5-2.8c-0.4-1.6-0.9-2.3-1.2-1.7c-0.4,0.6-0.6,1.4-0.6,1.8
	c0,0.4,0.3,0.9,0.5,1.3c0.3,0.4,0.1,0.4-0.4,0c-0.5-0.4-0.6-0.3-0.5,0.3c0.3,0.5,0,1.3-0.4,1.7s-1,0.9-1.3,1.2
	c-0.3,0.3-0.6,0.6-0.9,1c-0.3,0.3-0.5,0.8-0.8,1c-0.3,0.3-0.4,0.4-0.4,0.3c0-0.1-1.2,1-2.6,2.6l-0.9,0.9c-1.4,1.6-3.7,4.1-5.2,5.7
	c-1.3,1.6-2.5,3-2.6,3.2c0,0.3,1.2-0.9,2.7-2.3l5.2-5C562.3,740.9,563.7,739.5,563.8,739.4z"/>
<path class="st0" d="M393.4,694.8c-0.1,0.4-0.3,0.8-0.3,0.9s0.3,0.1,0.6,0.1c0.4,0,0.8-0.3,0.9-0.5c0.1-0.3,0.3-0.3,0.4,0
	c0,0.3,0.3,0.1,0.5-0.3c0.3-0.4,0.6-0.9,0.9-1.3c0.1-0.3,0.5,0.1,0.6,1s0.8,0.8,1.3-0.3c0.5-1,1.3-1.9,1.6-1.9
	c0.4,0,0.6-0.1,0.8-0.1s0.3,0,0.1,0.1c0,0.1,0.1-0.1,0.3-0.5c0.1-0.4,0.6-0.9,1.3-1.2c0.6-0.3,1-1,1-1.6c0-0.6,0.3-0.5,0.6,0.1
	c0.4,0.6,1.2,0.5,1.8-0.4c0.6-0.8,1.3-1.4,1.3-1.4c0.1,0,0.1-0.8,0-1.8c-0.1-1,0-1.9,0.1-2.1s0.6,0.4,1.2,1.2s1,1.4,1.3,1.3
	c0.3,0,0.4,0.3,0.4,0.8s0.1,1.6,0.4,2.3c0.3,0.8,1,1.3,1.8,1.2c0.8-0.1,1.3,1.3,1.3,3.4c0,1.9,0.1,4.4,0.3,5.4
	c0.1,1,0.3,2.3,0.4,3.1c0.1,0.8,0.3,1.3,0.4,1.2c0.1-0.1,0.3-0.3,0.4-0.3c0.1,0,0.3,0.3,0.5,0.5c0.1,0.3,0.3,1.2,0.3,1.8
	s0.1,2.6,0.4,4c0.3,1.4,0.5,2.7,0.5,2.7c0.1,0,0.1-0.9,0.1-1.9s0.1-1.4,0.4-0.6c0.1,0.6,0.6,1.8,0.9,2.5s0.6,1.3,0.6,1.2
	s0.4,0.9,0.8,2.3c0.4,1.3,0.8,2.5,0.8,2.5s0.1,0.5,0.1,0.9s0,1.2-0.1,1.7c-0.1,0.5-0.3,0.8-0.4,0.6c0-0.1-0.1,0-0.3,0.3
	c-0.1,0.3,0,0.4,0.3,0.3c0.3-0.1,0.4,0.1,0.3,0.4c-0.1,0.3-0.4,0.9-0.5,1.3c-0.1,0.5-0.1,0.8,0.3,0.8s0.8,0,0.9,0.1s0.5,0.4,0.6,0.6
	s-0.3,1.9-0.8,3.5c-0.6,1.7-1.3,3.2-1.4,3.6c-0.1,0.4-0.3,1.8-0.1,3.2c0.1,1.4,0.5,1.9,1,1.3c0.4-0.8,0.4-0.5-0.1,0.5
	c-0.5,1-0.8,1.8-0.6,1.8s0.3,0.1,0.1,0.4c0,0.3-0.1,0.6-0.1,1c0,0.4-0.4,1.6-0.6,2.6c-0.3,1-0.8,2.7-1,3.7c-0.3,1-0.5,2.1-0.5,2.3
	c0,0.3,0.3,0.9,0.5,1.3c0.3,0.4,0.6,0.6,0.6,0.3c0-0.4,0.5-0.8,0.9-0.9c0.5-0.1,0.8-0.1,0.8,0.1s0,0.4,0.3,0.4s0.9,0.6,1.6,1.3
	c0.6,0.6,1.3,1.6,1.3,1.9s0.3,0.9,0.6,1c0.4,0.1,0.8,0.5,0.9,0.9c0.1,0.4,0.6,0.8,1,0.9c0.4,0.1,0.8,0.3,1,0.3
	c0.1,0,0.5,0.4,0.8,0.9s1,1.8,1.8,3c0.6,1.2,1.7,3.2,2.2,4.5c0.5,1.3,0.9,3.1,1,3.9c0.1,0.8,0.3,2.5,0.5,3.6c0.3,1.2,0.8,2.3,1,2.7
	c0.4,0.4,0.9,1.8,1.3,3.1c0.4,1.3,0.6,2.6,0.6,3c0,0.4,0.4,1.3,0.9,1.9c0.5,0.6,1.4,2.1,1.8,2.8c0.5,0.9,0.9,1.9,1.2,2.6
	c0.1,0.5,0.9,1.3,1.7,1.8c0.8,0.4,1.6,1,1.7,1.3c0.1,0.3,0.5,0.5,0.8,0.6s0.9,0.5,1.6,0.9c0.6,0.4,1.9,1.3,3.1,1.9
	c1,0.6,2.6,1.6,3.4,1.9c0.8,0.4,1.7,1.2,2.2,1.8c0.5,0.6,1.6,0.5,2.5-0.1c0.9-0.8,1.9-1.2,2.2-1c0.4,0.3,0.9,0.4,1.2,0.5
	c0.3,0.1,0-1.2-0.6-2.7c-0.6-1.6-1.6-3.5-1.8-4.1c-0.4-0.6-1.2-1.6-1.7-1.9c-0.5-0.4-1-1.8-1.2-3.2c0-1.3-0.1-3.4-0.3-4.4
	c-0.1-1-0.3-3.5-0.4-5.3c-0.1-1.8-1.4-4.7-3-6.2l0,0c-1.4-1.6-3-3.2-3.2-3.7s-0.9-1.2-1.4-1.4c-0.4-0.3-2.1-1.6-3.7-2.8
	c-1.7-1.3-3.7-2.5-4.5-2.5c-0.9,0-2.1-0.6-2.7-1.3c-0.6-0.6-1.3-1.3-1.3-1.4c-0.1-0.1-0.6-1.9-1.4-3.9l-0.5-1.4
	c-0.6-2.1-1.2-3.5-1-3.2s-0.3-0.9-0.8-2.6c-0.5-1.7-1.6-3-2.2-3c-0.6,0-1.6-0.4-2.1-0.6s-0.9-1.9-1-3.6c-0.1-1.7,0-3.9,0.3-4.9
	c0.3-1,0.6-2.1,0.9-2.3s0.4-0.8,0.4-1.3c0-0.5,0.3-1.8,0.8-2.8c0.5-1,1.2-3.7,1.7-5.8l0.6-2.6c0.5-2.1,1.2-4.5,1.6-5.4
	c0.4-0.9,1.3-1.8,1.9-2.1s1.9-0.3,2.7,0c0.8,0.3,1.4,1.9,1.3,3.7c0,1.8,0.6,3.2,1.4,3.1c0.8-0.1,2.5,0,3.5,0.3
	c1,0.3,1.9,0.3,1.9,0.1s0.1,0,0.4,0.3c0.3,0.3,0.3,0.4,0.3,0.1c0-0.3-0.1-0.4,0-0.4s0.3,0,0.3,0.1s0.1,0.1,0.1,0.1
	c0.1,0,0.1,0,0,0.1c-0.1,0,0.1,0.4,0.5,0.9c0.4,0.5,0.5,0.5,0.4,0.3c-0.1-0.3-0.1-0.3,0.1,0c0.1,0.3,0.4,0.4,0.4,0.3
	c0-0.1,0.5,0.4,1,1c0.5,0.6,0.9,0.9,1,0.5c0.1-0.4,0.6,0.4,1.3,1.7c0.6,1.3,1.2,1.9,1,1.4s0.1-0.8,0.5-0.5c0.4,0.3,0.5,0.5,0.4,0.6
	s-0.3,0.3-0.1,0.4c0.1,0.1,0.1,0.1,0.1,0.3s0,0.1,0,0.1s0.3,0.3,0.5,0.6c0.3,0.4,0.3,0.6,0.1,0.5c-0.3,0-0.3,0.5-0.3,1.3
	c0,0.8,0.6,1.7,1.2,2.1s1.2,0.3,1.4-0.3s0.6-0.4,0.9,0.5s0.3,1.8,0.1,1.9c-0.1,0.3,0,0.6,0.4,0.8c0.4,0.3,0.6,0.3,0.5,0.3
	s0.1-0.4,0.4-0.6c0.4-0.3,1.7,0,3,0.5c1.3,0.5,2.5,1.4,2.7,2.1c0.3,0.6,1.2,1.4,2.1,2.1c1,0.5,1.4,1.2,0.8,1.4c-0.6,0.3-1,1.2-1,2.1
	s0.1,2.5,0.3,3.4c0.3,0.9,0.3,1.9,0.1,2.1c-0.1,0.1-0.1,0.3-0.1,0.3s1.3-0.6,2.7-1.6c1.4-0.9,3.4-1.9,4.5-2.5
	c1.2-0.5,1.6-1.9,0.8-3.1c-0.6-1.2-0.3-1.4,1-0.5c1.3,0.9,1.7,0.5,1-0.8c-0.6-1.3-0.8-2.1-0.3-1.6c0.5,0.5,1.4,1.2,1.9,1.4
	c0.5,0.3,0.4-0.3-0.4-1c-0.8-0.8-0.8-1.3-0.1-0.9c0.6,0.3,0.9,0.3,0.5-0.3c-0.4-0.4-0.3-0.9,0.5-1.2c0.8-0.3,1-0.4,0.6-0.5
	c-0.4-0.1-0.4-0.5-0.1-0.9c0.3-0.4,0.5-0.6,0.5-0.6s0,0.3,0.1,0.5c0.1,0.3,0.1,0.6,0.4,0.8c0.3,0.1,0.3,0.3,0.3,0.1
	c-0.1-0.1,0-0.1,0-0.1c0.1,0,0-0.3-0.1-0.5c-0.1-0.4-0.1-0.4,0.1-0.1c0.3,0.3,0.5,0.5,0.4,0.5c0,0.1-0.1,0.3-0.1,0.5
	s0.1,0.3,0.3,0.3s0.3-0.3,0.3-0.4c-0.1-0.1-0.1-0.3,0-0.3c0,0,0.1-0.3,0.1-0.5c0-0.3,0.1-0.4,0.3-0.3c0.1,0.1,0.1,0.4,0,0.5
	c-0.1,0.1,0.3,0.3,0.6,0.5s1.6,0,2.5-0.5c1-0.4,2.5-1,3.2-1.6c0.8-0.5,1.8-0.9,2.2-1c0.4-0.1,1.9-1.4,3.4-3c1.4-1.4,2.8-3,3.2-3.5
	c0.4-0.5,0.5-0.8,0.4-0.8c-0.1,0.1-0.1-0.4-0.1-0.9s0.4-0.6,0.5-0.1c0.1,0.5,0.3,0.4,0-0.3c-0.3-0.6-0.4-1.3-0.4-1.4
	s-0.1-0.5-0.1-0.9c0-0.4-0.1-0.6-0.1-0.6s0.3,0.1,0.5,0.3s0.4,0,0.3-0.5c-0.1-0.4-0.3-0.8-0.4-0.6c-0.1,0.1,0.1-0.3,0.4-0.8
	c0.3-0.5,0.5-0.6,0.5-0.4s0,0.5,0.1,0.4c0.1,0,0.3,0.1,0.4,0.4c0.1,0.3,0.1,0,0.1-0.6s0-1,0-1s-0.3-0.6-0.5-1.6
	c-0.3-0.9-0.5-1.7-0.6-1.7c-0.1,0-0.1-0.3-0.3-0.6c0-0.4,0-0.5,0.1-0.4c0.1,0.1,0-0.1-0.1-0.6s-0.3-1.3-0.3-1.8
	c0.1-0.5,0-1.3-0.1-1.9c-0.1-0.5-0.4-1.7-0.6-2.5s-0.4-1.6-0.4-1.9c0-0.3,0-0.5,0.1-0.4c0,0-0.3-0.8-0.6-1.7
	c-0.4-0.9-0.8-1.8-0.8-1.8c-0.1,0,0-0.1,0.1-0.4c0.1-0.3,0.1-0.6-0.3-1s-0.6-0.5-0.6-0.3c0,0.3-0.4,0.1-0.6-0.1s-0.4-0.6-0.3-0.6
	c0.1-0.1-0.3-1.2-1-2.5c-0.6-1.3-1.4-2.1-1.7-1.8c-0.3,0.3-0.6,0.3-0.6,0.1c0-0.3-0.3-0.6-0.5-0.9c-0.3-0.3-0.4-0.5-0.3-0.5
	c0.1,0-0.3-0.3-0.9-0.5c-0.6-0.3-1-0.5-0.9-0.5c0.1,0-0.3-0.3-0.6-0.6s-0.8-0.6-0.8-0.6s-0.3-0.1-0.6-0.4s-0.4-0.3,0-0.1
	s-0.1-0.3-1-0.8c-1-0.6-2.8-2.5-4.3-4l-0.3-0.4c-1.4-1.7-2.5-3-2.5-3c0.1,0-0.1-0.1-0.4-0.3c-0.3-0.1-0.1-0.1,0.3,0s0.6-0.5,0.5-1.3
	s-0.4-1.4-0.5-1.3s-0.3,0.1-0.3,0s-0.5-0.6-1.2-1.3c-0.6-0.5-1.4-1.4-1.8-1.8c-0.3-0.4-0.8-0.9-0.9-1c-0.1-0.1-0.5-0.5-0.6-1
	c-0.1-0.4-0.3-0.6-0.1-0.6c0,0,0.3-1.3,0.5-2.8c0.3-1.6,0.4-2.8,0.4-2.8s0.1-0.3,0.3-0.6c0.1-0.4,0.5-1.2,1-1.7
	c0.5-0.5,0.9-0.9,0.9-0.8s0.6-0.4,1.4-1c0.8-0.8,1.6-1.2,1.7-1.2c0.1,0.1,0.3,0,0.3-0.3s-0.1-0.5-0.3-0.6s-0.1-0.4,0-0.6
	s0.1-0.4,0-0.4s-0.1-0.1,0-0.4c0.1-0.3,0.6-0.5,1-0.5c0.4,0,0.6-0.4,0.5-0.9c-0.1-0.5-0.4-1-0.6-1.3c-0.1-0.3-0.1-0.5,0.3-0.5
	c0.3,0,0.5,0.1,0.5,0.3s0.1,0.4,0.3,0.5s0.4,0.1,0.4,0.1c0-0.1,0-0.3,0-0.4c0-0.1,0.1-0.3,0.4-0.3c0.3,0,0.5-0.1,0.6-0.1
	c0,0,0.3,0,0.5-0.1c0.3,0,0.8-0.1,1.2-0.1c0.4-0.1,0.9-0.6,0.9-1c0.1-0.5,0.4-0.9,0.5-1c0.1-0.1,0.8-0.4,1.2-0.6
	c0.4-0.4,0.9-0.6,1-0.5c0.1,0,0.3,0,0.3,0c0-0.1,0.1,0,0.4,0.1c0.3,0.1,0.5,0.3,0.6,0.1s0.4-0.1,0.5-0.1s0.1-0.1,0-0.3
	s0.1-0.4,0.5-0.6c0.5-0.3,0.8-0.1,0.8,0.1s0.1,0.1,0.4-0.3c0.3-0.5,0.6-0.8,0.9-0.6s0.4,0.3,0.4,0.4c0,0.1-0.1,0.3-0.3,0.3
	s0,0.1,0.1,0.3s0.3,0,0.4-0.1c0-0.1,0-0.1,0-0.1c0,0.1,0.1,0,0.3-0.3s0.3-0.5,0.1-0.5c0,0-0.1,0-0.3,0.1s-0.1-0.3-0.3-0.9
	c0-0.5-0.1-0.9,0-0.6c0,0.1,0.1,0.1,0.3,0c0.1-0.3,0.3-0.4,0.3-0.4v0.1c0,0.1,0,0.1,0.1,0.1c0,0,0.1,0.3,0.1,0.6
	c0,0.4,0.1,0.5,0.1,0.4s0.3-0.3,0.3-0.3c0.1,0,0.1,0.1,0.1,0.3s0,0.3-0.1,0.3s-0.1,0.1,0,0.1s0.1,0,0.3,0c0.1-0.1,0.1,0,0.3,0.3
	c0,0.3,0.3,0.4,0.5,0.4c0.3,0,0.3-0.1,0.1-0.3s-0.3-0.3-0.1-0.3s0.1-0.1,0-0.4c-0.1-0.3,0.1-0.3,0.4-0.3s0.8,0.4,1,0.6
	c0.3,0.3,0.6,0.5,0.8,0.6s0.3,0.5,0.3,0.9c0,0.4,0.3,0.6,0.4,0.4c0.1-0.3,0.6-0.4,1.2-0.4c0.5,0,0.8-0.4,0.8-0.6
	c0-0.4,0.1-0.8,0.4-0.9c0.3-0.1,0.5,0,0.6,0.4c0.1,0.4,0.3,0.6,0.3,0.5c0.1-0.1,0.3,0,0.5,0.3c0.1,0.3,0.4,0.4,0.4,0.1
	c0-0.3,0.1-0.1,0.1,0.1c0.1,0.3,0.1,0.6,0,0.9s-0.3,1.3-0.4,2.5c-0.1,1.2-0.1,1.9-0.1,1.8s0.3,0,0.5,0.4c0.3,0.3,0.4,0.8,0.4,1
	c0,0.3,0.1,0.8,0.3,1c0.1,0.3,0.3,0.5,0.3,0.4s0.1-0.1,0.1-0.1c0.1,0,0.1,0.3,0.1,0.6c0,0.3-0.1,0.4-0.4,0.3
	c-0.3-0.1-0.4,0.1-0.3,0.4c0.1,0.4,1,0.1,2.2-0.4c1.2-0.5,1.8-1.4,1.7-1.9c-0.3-0.5-0.8-1-1.2-1.3c-0.4-0.1-0.8-0.4-0.8-0.5
	s0-0.1,0-0.1s0.1-0.3,0.1-0.8s0.3-1.3,0.5-1.8c0.3-0.5,0.5-0.9,0.6-0.9c0.1,0,0.3-0.1,0.3-0.4c0-0.3,0.1-0.3,0.1,0.1
	c0.1,0.3,0.3,0.5,0.4,0.4c0.1,0,0.1,0,0.1,0.1s-0.1,0.4-0.3,0.5s0,0.3,0.4,0.1c0.3-0.1,0.6-0.1,0.8-0.1s0.3,0,0.3,0s0.8-0.5,1.6-0.9
	c0.8-0.4,1.6-0.8,1.6-0.8s0.3,0,0.4-0.1c0.1-0.1,0.5,0,0.6,0.1s0.5,0,0.8-0.1s0.5-0.3,0.4-0.3s0-0.1,0.1-0.3s0.5-0.3,0.8-0.3
	s0.9,0,1.3,0c0.4-0.1,0.5-0.4,0.4-0.8c-0.3-0.4-0.1-0.5,0.1-0.3c0.3,0.3,0.8,0.3,1.2,0c0.4-0.3,0.4-0.6,0.1-0.9s-0.1-0.5,0.1-0.4
	s0.8,0.3,1,0.3c0.3,0.1,0.9,0.3,1.3,0.4c0.4,0.1,0.8-0.3,0.8-0.9s0.1-0.9,0.4-0.8c0.1,0.3,0.4,0.8,0.5,1.2c0.1,0.4,0.5,0.4,1,0.1
	c0.5-0.3,1.2-0.5,1.6-0.5s0.8-0.4,1.2-1c0.3-0.6,1-1.2,1.6-1s0.6-0.5,0.3-1.4c-0.5-0.8-0.1-1,0.6-0.4c0.8,0.6,1.2,0.3,0.8-0.8
	c-0.4-1-0.5-1.8-0.4-1.9c0.3,0,0-0.3-0.6-0.5c-0.6-0.3-0.6-0.8-0.4-1.2c0.3-0.4,1.4-0.8,2.2-0.8c0.9-0.1,1.3,0,0.9,0.3
	c-0.4,0.1-0.8,0.6-0.8,1s0.1,0.9,0.4,1.2s0.6,0.9,1,1.4c0.3,0.5,0.8,0.9,1.2,0.8s0.4-0.1,0,0.1s0,0.8,0.8,1c0.8,0.3,1.4,0.5,1.4,0.4
	s0-0.3-0.1-0.4c-0.1-0.1-0.1-0.3-0.1-0.4c0,0,0.3,0,0.4,0.1c0.1,0.1,0.3,0,0.3-0.3s0-0.4,0-0.4s-0.1,0-0.1-0.1s-0.4-0.1-0.6-0.1
	s-0.3,0,0-0.1c0.4-0.1,0.4-0.3,0.1-0.3c-0.3,0,0.3,0,1,0c0.8,0,1.4-0.1,1.4-0.5c0-0.3,0.3-0.8,0.8-1c0.5-0.3,0.9-0.1,1,0.4
	s0.3,0.5,0.1,0.1c-0.1-0.5,0.6-1,1.6-1.4c0.9-0.3,1.6-0.4,1.3-0.1c-0.3,0.3,0,0.5,0.4,0.5c0.4,0,0.9,0.1,1.2,0.1
	c0.3,0,0.6-0.1,0.6-0.4c0.1-0.3-0.1-0.5-0.5-0.6s-0.3-0.3,0.4-0.3c0.6,0,1.3,0.3,1.4,0.5c0.1,0.3,0.6,0.4,1.3,0.1
	c0.5-0.1,0.9-0.4,0.9-0.5c-0.1-0.1,0-0.1,0.1,0s0.3,0.3,0.1,0.4c-0.1,0.1,0.1,0,0.3-0.3s0.9-0.5,1.4-0.5c0.5,0,1.2-0.4,1.4-0.8
	s0.4-0.9,0.5-0.8s0.3,0,0.4-0.3c0.1-0.3,0.1-0.4,0.1-0.5s0-0.1,0.3,0c0.3,0.1,0-0.1-0.5-0.5c-0.5-0.4-0.5-0.9,0.1-1.3
	c0.6-0.3,1.6-0.5,2.1-0.5c0.4,0,1-0.1,1.4-0.1s0.6-0.5,0.6-0.9c0.1-0.4,0.4-0.8,0.6-0.8s0.5-0.4,0.5-0.6c0-0.3,0.3-0.1,0.6,0.3
	s0.8,0.3,0.9-0.4c0.1-0.6,0.4-1,0.5-0.6s0.5,0.1,1-0.6c0.4-0.6,1-1.3,1.4-1.4s0.5-0.4,0.4-0.8c-0.1-0.3-0.6-0.6-1-0.6
	c-0.4-0.1-0.8-0.3-0.8-0.3c0-0.1,0.3-0.3,0.5-0.5c0.3-0.1,0.8-0.5,1.2-0.8c0.4-0.3,1.2-0.5,1.7-0.5s1.2,0.3,1.4,0.6
	c0.3,0.4,0.5,0.3,0.8-0.3c0.3-0.5,0.3-1.2,0-1.4c-0.1-0.3-0.1-0.4,0.1-0.4s0.4-0.1,0.4-0.3c0-0.1,0-0.3,0-0.1s0.1,0.1,0.1,0
	s0,0,0,0.1s0.5,0.3,1,0.3c0.5,0,0.9-0.3,0.8-0.3c-0.1-0.1,0-0.3,0.1-0.3s0.4-0.3,0.3-0.5c0-0.3-0.3-0.5-0.5-0.5
	c-0.3-0.1-0.3-0.3-0.1-0.4s0.1-0.3,0-0.5c-0.3-0.1-0.1-0.4,0.3-0.5c0.3-0.1,0.6,0,0.6,0.3s0.1,0.5,0.3,0.6s0.6-0.1,1-0.4
	c0.5-0.3,0.6-0.5,0.4-0.6c-0.3,0-0.6-0.3-0.9-0.6s0-0.6,0.4-0.6s0.6,0,0.6,0l0,0c0,0,0.3,0,0.5,0c0.3,0,0.5,0.1,0.6,0.3
	c0.1,0.1,0.3,0.1,0.5-0.1s0.5-0.1,0.6,0c0.1,0.3,0.1,0.1,0.1-0.1c-0.1-0.4-0.3-0.8-0.3-0.9s-0.3-0.5-0.5-0.6c-0.3-0.3-0.3-0.8,0-1.2
	c0.3-0.4,0.6-0.9,0.8-1.2c0.3-0.3,0.1-0.4-0.1-0.4s-0.8-0.1-1.2-0.1c-0.3,0-0.8-0.1-1.2-0.4c-0.3-0.3-0.4-0.3-0.3-0.1
	c0.1,0.1,0.4,0.3,0.5,0.4s0.1,0.1,0,0.1s-0.6-0.3-1-0.5s0-0.5,0.9-0.3c0.9,0.1,1.8,0,1.9-0.4c0.1-0.4,0.8-0.9,1.4-1.2
	c0.6-0.3,0.6-0.4,0.1-0.3c-0.5,0.1-1.2,0-1.3-0.3c-0.3-0.3,0-0.5,0.4-0.5c0.5,0,0.8-0.3,0.8-0.4c0-0.3-0.5-0.6-0.9-0.8
	c-0.5-0.3-0.8-0.4-0.6-0.4s0.4-0.3,0.5-0.6c0.1-0.4,0.4-0.5,0.5-0.4s0.4,0.1,0.5-0.1s0.3-0.4,0.3-0.3s0.3,0.3,0.8,0.3
	c0.4,0,0.8-0.3,0.6-0.4c0-0.3,0.1-0.5,0.4-0.8c0.3-0.1,0.6-0.5,0.9-0.6s0.4-0.4,0.4-0.6c-0.1-0.1,0.1-0.3,0.4-0.1c0.3,0,0.5,0,0.6,0
	c0,0,0-0.1-0.1-0.1s0,0,0,0s-0.1-0.3-0.5-0.5s-0.5-0.6-0.4-0.6c0.1-0.1,0.5,0.1,0.9,0.4c0.3,0.3,0.8,0.1,1.2-0.3
	c0.4-0.5,0.6-1.6,0.6-2.3c0-0.8,0.4-1.8,0.8-2.2c0.4-0.4,0.3-1-0.3-1.4s-0.4-0.5,0.4-0.1c0.8,0.3,1.6-0.1,1.7-0.8
	c0.1-0.6,0.6-1.4,1-1.6c0.5-0.1,1,0.1,1.2,0.6s0.6,0.6,1.2,0.4c0.5-0.3,0.8-0.8,0.6-1.3s-0.6-1.3-1.2-1.7c-0.5-0.4-1-1-1.3-1.4
	s0.1-0.9,0.8-1c0.6-0.1,1.6-0.4,2.1-0.4c0.4,0,0.5-0.3,0.1-0.4c-0.4-0.1-0.9-0.4-1.2-0.6c-0.3-0.3-0.4-0.4-0.3-0.5
	c0.1,0,0.1-0.1,0-0.3c-0.1,0,0.1-0.4,0.4-0.6c0.3-0.3,0.6-0.4,0.8-0.1c0.1,0.3,0.3,0.3,0.3,0c0-0.3,0-0.3,0.1,0
	c0,0.3,0.3,0.1,0.5-0.3c0.3-0.4,0.6-0.6,0.6-0.5c0.1,0.1,0.4,0.4,0.6,0.5s0.4-0.3,0.4-0.8c-0.1-0.5-0.4-1-0.5-1s-0.4,0-0.6-0.1
	s-0.8,0-1.2,0.1c-0.5,0.1-1,0.1-1.2,0.1s0.1-0.1,0.5-0.3c0.4-0.1,1.4-0.8,2.5-1.6c1-0.8,0.6-2.2-0.8-3c-1.4-0.8-3.1-1.6-3.9-1.4
	s-1.8,0.4-2.5,0.5c-0.6,0.1-1.4,0-1.7-0.5c-0.3-0.5-0.1-0.8,0.4-0.6c0.5,0.1,1.4-0.5,2.2-1.3c0.6-0.8,2.2-1.7,3.4-2.1
	c1.2-0.4,1.8-1.7,1.4-2.8c-0.4-1.2-1.2-2.6-1.9-3.1c-0.8-0.5-2.2-1.6-3.1-2.2c-1-0.6-1.7-1-1.6-0.9c0.1,0.1-0.5,0-1.7-0.3
	c-1-0.3-2.2-0.5-2.5-0.6s0.4-0.4,1.6-0.6c1-0.3,2.3,0,2.8,0.5c0.5,0.5,1.4,0.9,1.9,0.9s1.9,0.3,3.1,0.6c1.2,0.4,1.9,0,1.7-0.8
	c-0.3-0.8-0.9-1.6-1.4-1.8c-0.5-0.3-1-0.6-1-0.9c0-0.3-0.5-0.9-1-1.6c-0.5-0.6-1.4-1.4-1.9-1.8c-0.5-0.4-1.2-1.9-1.6-3.4
	c-0.4-1.4-1.2-4-1.7-5.6s-1.8-3.7-2.8-4.9s-2.8-2.6-4.3-3.1c-1.3-0.5-2.5-1.7-2.5-2.5s0.3-1.6,0.5-1.7c0.3-0.1,0.6-0.6,0.8-1.2
	c0.1-0.5,1-1.6,1.9-2.3s1.7-1.6,1.7-1.8s0.3-0.5,0.4-0.5c0.1,0,0.6-0.3,0.9-0.6c0.4-0.4,0.9-0.9,1-1.3c0.3-0.3,0.1-0.9-0.3-1.4
	c-0.4-0.5-0.4-0.9,0-0.8c0.4,0.1,0.6,0,0.8-0.3c0-0.3,0,0,0,0.5c0,0.5,0.5,0.5,1.3,0.1c0.8-0.5,1.7-1,2.1-1.4
	c0.4-0.3,0.5-0.9,0.4-1.3c-0.3-0.4,0.1-0.9,0.8-1.2c0.6-0.3,2.1-0.9,3.1-1.3c1-0.5,1.9-0.6,1.9-0.5c0,0.3,0.1,0.3,0.1,0.1
	s0.5-0.6,1.2-0.9c0.6-0.3,1-0.6,0.9-0.8c-0.1-0.1,0.1,0,0.3,0.1s0.6,0.1,0.9-0.1s0.5-0.3,0.6,0.1c0,0.4,0.4,0.5,0.9,0.4
	c0.4-0.1,0.9-0.3,1.2-0.3c0.3,0,0.4,0,0.4,0.1s0-0.1,0.1-0.4c0-0.3-0.1-0.5-0.4-0.5s-0.4-0.3-0.3-0.5c0.1-0.4,0.3-1,0.5-1.4
	c0.3-0.4,0.4-0.6,0.5-0.6s0.3-0.1,0.5-0.4c0.1-0.3-0.5-0.5-1.4-0.5c-1,0-2.1,0-2.5-0.1c-0.4,0-1.2-0.1-1.8-0.1
	c-0.6,0-1.7-0.5-2.3-0.9c-0.6-0.5-1.7-1.2-2.5-1.4c-0.8-0.4-2.6-0.4-4-0.3c-1.4,0.1-3,0.9-3.4,1.4s-1.2,1.7-2.1,2.5
	c-0.8,0.8-2.6,0.9-4,0.4c-1.4-0.5-2.1-1.7-1.4-2.5c0.6-0.8,0.6-2.2,0-3.2c-0.6-1-2.2-1.9-3.5-2.1c-1.3-0.1-3.4-0.9-4.8-1.9
	s-2.2-2.7-1.8-3.9s0.9-2.6,1.2-3.1c0.3-0.6,1-0.8,1.6-0.5s1.4,0.5,2.1,0.5c0.6,0,1.7-0.3,2.3-0.5c0.8-0.3,1.4-0.3,1.4-0.1
	c0,0.3,0.6-0.5,1.4-1.7c0.8-1.2,1.3-2.1,1.2-1.9s0.4-0.5,1-1.3c0.6-0.8,2.1-1.9,3.1-2.5c1-0.6,2.7-1.7,3.6-2.3
	c0.9-0.6,2.5-2.1,3.4-3c0.9-0.9,2.3-2.2,3-2.7c0.8-0.5,1.7-0.8,2.2-0.6c0.5,0.3,1.2,0,1.7-0.3c0.5-0.4,1-0.1,1.3,0.5s0.8,1.3,1,1.4
	c0.4,0.1,0.5,0.4,0.5,0.5s-0.1,1.2-0.3,2.1c-0.1,1-0.8,2.5-1.3,3.2c-0.6,0.8-1.6,1.7-2.1,1.9c-0.5,0.3-0.9,1-0.9,1.6s-0.4,1.2-1,1.4
	s0,0.6,1.4,0.9c1.4,0.3,1.9,0.8,1.3,1.2c-0.6,0.4-1.3,1.2-1.3,1.7c0,0.5-0.8,1.3-1.8,1.7c-1,0.4-1.7,0.8-1.6,0.8
	c0.1,0,0.4,0.3,0.5,0.6c0.1,0.3,1,0.3,1.9,0c0.9-0.3,1.6-0.6,1.3-0.8s-0.1-0.4,0.3-0.5c0.3-0.1,0.5-0.4,0.5-0.4s0.1-0.1,0.3-0.1
	s0.5,0,0.6,0s0.6-0.4,1.2-0.8c0.5-0.4,1.7-1.4,2.5-2.1c0.8-0.6,2.1-1.7,2.8-2.1c0.8-0.4,1.7-0.9,2.2-1.2c0.5-0.3,1-0.4,1.2-0.4
	s0.3-0.1,0.1-0.4s0.3-0.3,0.5-0.4c0.3,0,0.6,0.1,0.6,0.4s0.4,0,0.9-0.4c0.4-0.5,1.9-1.3,3.4-1.7c1.4-0.5,2.7-0.6,3-0.5
	c0.3,0.1,0.4,0.8,0.3,1.3c-0.1,0.5,0.1,1.4,0.5,1.9c0.4,0.5,0.8,0.8,1,0.3c0.3-0.5,1.6-0.5,2.8,0c1.4,0.5,2.3,1.3,2.1,1.6
	c-0.3,0.3-0.1,0.8,0,0.9c0.3,0.1,0.4,0.3,0.3,0.3c-0.1,0-0.3,0.6-0.4,1.4c-0.1,0.6-0.4,1.9-0.6,2.6c-0.3,0.8-0.3,1.6-0.1,1.7
	c0.1,0.3,0.8,0.5,1.6,0.8c0.6,0.1,0.4,0.3-0.6,0.1c-1-0.1-2.2,0-2.5,0.1c-0.3,0.1-0.5,1-0.5,1.9s-0.5,1.8-1.2,2.1
	c-0.6,0.3-0.1,0.6,1,0.8c1.2,0.1,2.1,0.5,1.8,0.6c-0.1,0.3-0.6,0.5-1,0.6c-0.4,0.1-0.3,0.3,0.3,0.3s1,0.1,0.9,0.5
	c-0.1,0.4,0.1,0.5,0.4,0.4c0.3,0,0.5-0.1,0.5-0.1s0,0.1,0,0.3s0,0.5-0.1,0.8s0.4,0.3,0.9,0.1c0.5-0.3,1-0.8,1-1.2
	c0-0.4,0.3-0.8,0.4-0.8c0.1,0,0.1-0.3-0.1-0.4s0.1,0,0.9,0.5s1.4,0.8,1.4,0.5c0-0.3,0.3,0,0.6,0.4c0.4,0.4,1.6,0.6,2.6,0.4
	c1-0.3,2.1,0,2.2,0.4c0.1,0.5-0.1,0.9-0.5,0.8c-0.4-0.1-0.5,0.5-0.1,1.2c0.4,0.6,0.9,1.4,1.2,1.7c0.3,0.3,0.3,0.5-0.3,0.5
	c-0.4,0-0.6,0.1-0.5,0.3c0.1,0.1,0.1,0.3,0,0.4s-0.1,0.3-0.1,0.4s0.4,0,0.8,0s0.6-0.1,0.6,0.1c0,0.1,0.1,0.5,0.1,0.8s0,0.4-0.3,0.4
	c-0.1,0,0,0.1,0.5,0.1c0.4,0,0.5,0.4,0.3,0.8c-0.3,0.4-0.5,0.9-0.6,1s-0.3,0-0.3-0.4c0-0.4-0.1-0.6-0.3-0.6c-0.1,0.1-0.4,0.1-0.6,0
	c-0.3,0-0.8-0.4-1-0.8c-0.3-0.4-0.4-0.4-0.1,0c0.1,0.4,0.1,0.8,0,0.9c-0.3,0.1-0.6,0-0.9-0.4s-0.4-0.4-0.3-0.1
	c0.1,0.3,0.1,0.6,0,0.6s-0.3,0.1-0.1,0.4s0,0.3-0.1,0.3s-0.3-0.4-0.1-0.8c0.1-0.4,0-0.5-0.1-0.1c-0.1,0.4-0.3,0.8-0.4,0.8
	c0,0.1-0.1,0.1-0.3,0s-0.3,0.1-0.3,0.4c0,0.3-0.1,0.4,0,0.3c0-0.1,0.1-0.1,0.1,0s0.1,0.3,0.4,0.1c0.3,0,0.5,0.3,0.5,0.5
	c0,0.4,0.1,0.3,0.3-0.1c0.1-0.4,0.4-0.4,0.5-0.1c0.1,0.4,0.3,0.3,0.4,0c0.1-0.3,0.4-0.1,0.6,0.6c0.3,0.8,0.4,1.6,0.1,1.9
	c-0.3,0.4-0.3,0.9,0,1.3s0.1,0.8,0,0.9c-0.3,0.1,0.3,0.4,0.9,0.5c0.6,0.1,0.8,0.5,0.1,0.6c-0.6,0.3-0.8,0.5-0.1,0.8
	c0.6,0.1,0.9,0.4,0.6,0.5s-0.4,0.4-0.3,0.6c0.1,0.1-0.1,0.6-0.8,1c-0.6,0.4-0.6,0.8-0.3,1c0.4,0.3,0.4,0.6-0.1,1.2s-1,1-1.4,1.3
	c-0.3,0.3-0.4,0.9-0.1,1.4c0.3,0.5,0.3,0.6,0.1,0.4c-0.1-0.3-0.4-0.4-0.4-0.1c-0.1,0.3-0.1,0.6-0.1,0.8s0.3,0.4,0.5,0.3
	c0.3,0,0.4,0.4,0.3,0.8c-0.1,0.5,0,0.8,0.3,0.8s0.4,0,0.4,0s0.1-0.1,0.3-0.4c0.1-0.3,0.4-0.4,0.6-0.1c0.3,0.3-0.1,0.5-0.8,0.6
	c-0.6,0.1-0.6,0.5-0.1,0.8c0.5,0.3,0.8,0.5,0.6,0.5s-0.5-0.1-0.9-0.4c-0.3-0.3-0.4-0.1-0.3,0.1s0,0.3-0.4,0
	c-0.4-0.3-0.4-0.1,0.3,0.1c0.6,0.3,1,1.2,0.9,1.8c-0.1,0.6,0.4,0.6,0.9-0.1c0.5-0.6,1.2-0.9,1.3-0.5c0.3,0.4,0.9,0.4,1.4,0
	c0.6-0.4,1.2-0.9,1.2-0.9c0-0.1,0-0.1,0.1-0.1s0,0.1,0,0.1s0,0.1,0,0c0,0,0.3,0.3,0.5,0.6c0.3,0.4,0.4,0.5,0.4,0.1
	c0-0.3,0.3-0.6,0.5-0.6s0.3-0.4,0-0.8c-0.3-0.4-0.4-0.8-0.1-0.9c0.1-0.1,0.1-0.3,0-0.3c-0.1-0.1,0-0.3,0.4-0.4
	c0.3-0.1,0.8,0.3,1,0.9s0.6,0.8,0.9,0.1s0.1-1.2-0.1-1.4c-0.4-0.3-0.5-0.5-0.3-0.6c0.3-0.1,1-0.4,1.7-0.6c0.6-0.3,1.7-0.1,2.2,0.1
	s1,0.8,1.3,0.9c0.1,0.3,0.4,0.3,0.4,0.1c0.1-0.1,0-0.4-0.1-0.6c-0.1-0.3,0.1-0.5,0.6-0.6s0.9-0.5,0.8-0.9c-0.1-0.4,0-0.5,0.1-0.3
	c0.1,0.3,0.3,0.4,0.4,0.3c0.1-0.1,0.5-0.1,1-0.1s1,0.3,1,0.4s0.8-0.5,1.4-1.7c0.8-1.2,1.7-3.2,1.9-4.5c0.3-1.3,0.5-2.2,0.3-2.1
	c-0.3,0.1-0.4-1.4-0.4-3.5v-0.4c0-2.1-0.8-5.4-1.8-7.4l-1.7-3.2c-1-1.9-2.7-4.9-3.9-6.7l-0.3-0.4c-1.2-1.8-2.8-4-3.9-4.8
	c-1-0.8-1.9-1.8-2.2-2.3c-0.3-0.5-0.3-0.8-0.3-0.8c0.1,0,0.1-0.8,0-1.8s0.6-2.5,1.6-3.1s2.3-1.6,3.1-1.8c0.9-0.3,1.9-0.6,2.3-0.8
	c0.4-0.3,0.8-0.6,0.8-0.9c0-0.3,0.8-1,1.6-1.6c0.8-0.5,1.8-1.4,2.2-1.9c0.4-0.5,1.4-1.6,2.5-2.3c1-0.8,1.9-2.1,1.9-2.8
	c0.1-0.9,0-1.8-0.3-2.2c-0.3-0.4,0-1.6,0.6-2.7s1.6-2.7,2.2-3.5s1.4-1.7,1.8-2.1c0.3-0.4,0.9-0.6,1.4-0.5c0.5,0.1,0.6-0.6,0.4-1.6
	s-0.8-1.9-1-2.1s0.6-0.9,2.1-1.7c1.4-0.8,2.7-2.5,3-3.7c0.1-1.3,0.4-3.7,0.5-5.4c0.1-1.7-0.1-4.3-0.5-5.7c-0.4-1.4-0.3-3.4,0.1-4.1
	c0.4-0.9,1.3-1.9,1.9-2.5c0.6-0.5,1.6-1.3,1.9-1.8c0.4-0.5,1.3-0.5,2.2-0.1c0.8,0.4,2.5,1,3.7,1.4c1.3,0.4,2.7,0,3.2-0.9
	s1.3-2.1,1.7-2.7c0.4-0.6,1-1.3,1.3-1.4c0.3-0.1,0.5-0.6,0.5-1.2s0.6-1.8,1.3-3.1c0.6-1.2,1.3-2.6,1.4-2.8c0.1-0.4,0.1-1,0.1-1.4
	s0.1-1.2,0.5-1.8c0.3-0.6,0.6-1.7,0.8-2.6c0.1-0.8,0.4-1.9,0.6-2.6s0.6-1.7,0.9-2.2c0.3-0.6,1.2-1.9,1.9-3c0.8-1,1.2-2.5,0.8-3.1
	c-0.4-0.6-0.4-1.8,0-2.6c0.3-0.8,0.3-1.7-0.1-1.9c-0.4-0.3-1-0.5-1.6-0.4c-0.5,0-1.8,0.4-2.8,0.6c-1,0.4-3.2,1-4.8,1.7
	c-1.6,0.6-3.5,1.6-4.1,2.2c-0.6,0.6-2.5,1.4-3.9,1.8c-1.4,0.4-4,0.6-5.7,0.5c-1.7,0-3.2-0.5-3.4-0.9s-0.8-1.6-1.2-2.3
	c-0.5-0.8-0.8-2.2-0.5-3.2c0.1-1,0.1-2.1-0.1-2.3c-0.3-0.3-0.4-1.2-0.3-2.1c0.1-0.9-1.3-2.7-3.1-3.9l-1.4-0.9
	c-1.8-1.2-3.5-2.2-3.9-2.3c-0.4-0.1-1-0.1-1.6-0.1s-1.4-0.1-1.9-0.4c-0.5-0.3-1.2-0.9-1.3-1.2c-0.1-0.4-1.8-0.8-3.7-0.9
	c-1.9-0.1-3.9-0.8-4.4-1.4c-0.5-0.6-0.8-1.9-0.8-3c0.1-0.9-0.3-2.2-0.8-2.8s-0.9-1.8-1-2.7c0-0.9-0.5-2.3-1-3.4
	c-0.5-1-1.2-2.3-1.3-3.1c-0.1-0.6-0.3-1.7-0.3-2.2s-0.1-0.6-0.4-0.5c-0.3,0.3-0.4-0.1-0.5-0.8c-0.1-0.6-0.3-1.4-0.4-1.7
	c-0.1-0.3-0.3-0.9-0.3-1.3c0-0.5-0.4-1.7-0.9-2.7s-1.2-2.5-1.4-3c-0.3-0.6-0.4-1.3-0.1-1.4c0.3-0.1,0.3-0.8-0.1-1.3
	c-0.3-0.5-0.9-1.4-1.3-1.8c-0.4-0.5-0.9-0.9-1.2-1c-0.3-0.1-0.1-0.5,0.1-0.9s-0.3-1-1.2-1.6c-0.9-0.4-2.8-1.4-4.4-2.1
	c-1.6-0.8-3.5-1.7-4.4-2.1s-1.8-1-2.1-1.3c-0.3-0.3-0.6-0.6-0.9-0.6s-0.9-0.4-1.4-0.8c-0.5-0.4-1.3-0.8-1.8-1
	c-0.5-0.3-1.2-0.5-1.3-0.5c-0.3,0-2.2,0.1-4.3,0.3l-1.6,0.1c-2.1,0.3-5.2,0.8-6.7,1.3c-1.6,0.5-3.9,1.2-5.2,1.4
	c-1.3,0.3-3,1.2-3.6,2.1c-0.8,0.9-1.9,2.3-2.6,3c-0.6,0.8-0.5,1.7,0.4,2.1c0.9,0.4,1.9,1.2,2.3,1.8c0.4,0.6,0.6,1.9,0.8,3.1
	c0.1,1.2-0.9,3.5-2.2,5l-0.4,0.5c-1.3,1.7-3.1,4.7-4,6.6l-0.4,0.9c-0.9,1.9-2.2,4.7-2.8,5.8c-0.8,1.3-1,2.6-0.5,2.8s0.6,1,0.5,1.8
	c-0.1,0.6-1.4,1.7-2.8,2.2c-1.4,0.5-3.5,1.8-4.5,2.8c-1.2,1-3.1,1.8-4.5,1.7c-1.4-0.1-3.7-0.9-5-1.8c-1.4-0.9-3.9-1.6-5.4-1.6
	c-1.6,0-4.5-0.6-6.6-1.3l-3.2-1.2c-1.9-0.8-5-0.5-6.9,0.5s-4.4,2.8-5.8,4.1c-1.4,1.2-4,2.5-5.8,2.7s-4.5,1-6.1,1.7
	c-1.6,0.6-3.9,1-5.2,1s-2.7,0-3.1,0.3c-0.4,0.3-1.6,0.1-2.5-0.1s-3.4-1-5.4-1.7l-3.5-1c-2.1-0.6-4-1.9-4.5-3.1
	c-0.5-1.2-1.8-2.2-3.2-2.6c-1.4-0.4-3.4-1.3-4.3-2.2c-1-0.9-2.6-1.7-3.4-1.7c-0.9,0-2.2-0.3-3-0.5c-0.8-0.3-3.1-0.3-5.3,0.1
	l-3.7,0.6c-2.1,0.4-5,0.9-6.5,1c-1.4,0.3-3.1,0.1-3.7-0.3c-0.6-0.4-1.7-0.8-2.3-0.9c-0.6-0.1-2.1-1.7-3.2-3.5l-1-1.7
	c-1.2-1.8-2.3-4.1-2.7-5.3c-0.4-1-2.1-2.3-3.7-2.7c-1.7-0.4-4.8-1.4-6.7-2.2l-4.7-1.7c-2.1-0.8-4.4-1.8-5.4-2.5
	c-1-0.6-2.2-0.4-2.7,0.5c-0.5,0.9-1.6,1.9-2.2,2.5c-0.6,0.4-1.6,1.3-1.9,2.1c-0.4,0.8-1.2,2.5-1.9,3.7c-0.6,1.3-0.8,3.5-0.3,4.8
	c0.5,1.3,1.3,2.7,1.7,3.2c0.4,0.4,0.5,1.6,0.4,2.5c-0.1,0.9-0.8,2.2-1.3,2.8c-0.5,0.6-1.4,1.3-2.1,1.4c-0.6,0.1-1.9,0.5-3.1,0.9
	c-1,0.4-2.8,0.4-3.9,0.1c-1-0.3-2.7-0.6-3.7-0.9c-1-0.3-2.1-0.5-2.3-0.5c-0.3,0-1.2,0.1-2.2,0.4c-0.9,0.3-2.5,0.1-3.4-0.3
	c-0.9-0.4-2.5-1-3.4-1.4c-1-0.4-2.2-1.7-2.6-3c-0.4-1.2-2.5-2.5-4.5-2.8l-1.3-0.1c-2.1-0.3-4-0.9-4.3-1.2c-0.3-0.4-0.6-0.4-1-0.1
	c-0.4,0.3-1.2,0.1-1.9-0.4s-2.1-0.5-3,0c-0.9,0.4-2.3,1.4-3.2,2.1c-0.9,0.8-2.5,1.6-3.6,1.9c-1,0.4-2.8,1.2-4,1.7
	c-1.2,0.6-2.5,1.3-2.8,1.6c-0.4,0.3-1,0.6-1.3,1c-0.3,0.4-0.9,0.9-1.6,1.3s-1.3,1.2-1.4,1.8s-0.9,1.2-1.7,1.4
	c-0.8,0.1-1.6,0.6-1.7,1c-0.3,0.4-0.6,0.6-1.2,0.5c-0.4-0.1-0.8,0-0.8,0.3s-0.9,0.4-1.9,0.3c-1-0.1-2.3,0.4-2.8,1
	c-0.5,0.6-1.7,1.4-2.6,1.8c-0.9,0.4-2.3,0.5-3.1,0.3c-0.8-0.3-1.9-0.8-2.5-1.2c-0.5-0.4-1.3-1-1.6-1.7c-0.3-0.6-0.8-1.2-1.2-1.3
	c-0.4-0.3-0.5-0.6-0.3-0.9c0.1-0.3,0.1-0.8-0.3-0.9c-0.3-0.3-1.2,0.3-1.9,1.2c-0.8,0.9-1.8,1.4-2.2,1.3c-0.4-0.1-1.2-0.4-1.7-0.6
	c-0.5-0.3-1.3-0.4-2.1-0.4c-0.6,0-1.7-0.5-2.2-1.2c-0.5-0.6-1.2-1.3-1.4-1.7c-0.3-0.4-0.4-1-0.4-1.3c0-0.4-1-1.3-2.5-2.1
	c-1.4-0.8-2.8-2.5-3.2-3.6c-0.4-1.2-1.6-2.8-2.5-3.6c-0.9-0.8-2.7-1.4-3.9-1.4s-2.5,0-2.8,0.1s-0.8,0.3-1,0.5
	c-0.3,0.3-0.6,0.6-0.9,0.9c-0.3,0.3-0.9,0.5-1.3,0.4s-1.7-0.1-2.6-0.1c-1-0.1-2.5-0.3-3.2-0.3c-0.8-0.1-1.4-0.5-1.6-1
	s-0.5-0.8-0.9-0.8c-0.4,0-0.9-0.4-0.9-1c0-0.6-0.5-1.6-1-1.9c-0.5-0.5-1.2-0.9-1.6-0.9s-0.8,0-1,0.1c-0.1,0.1-0.6,0.5-1.2,0.9
	c-0.4,0.4-0.9,1.2-0.9,1.8c-0.1,0.6-0.6,1.7-1.2,2.2c-0.5,0.5-1.6,0.1-2.2-1c-0.6-1.2-2.1-3.7-3-5.6l-0.9-1.9
	c-0.9-1.9-2.6-5-3.6-6.9l-4.8-8.3c-1-1.8-3-4.5-4.3-5.9c-1.3-1.4-3.6-3.7-5.2-5c-1.6-1.4-2.3-3-1.9-3.5c0.5-0.5,1-1.7,1.4-2.6
	c0.3-0.9,0.1-1.6-0.3-1.3c-0.4,0.3-1.2,0.5-1.7,0.8c-0.4,0.1-1.2,0.4-1.6,0.6c-0.4,0.1-1,0.5-1.6,0.9c-0.5,0.4-1.7,0.9-2.7,1.3
	s-2.2,1.2-2.6,1.8c-0.4,0.6-1.3,1.3-2.1,1.6c-0.8,0.3-1.9,0.8-2.6,1.3c-0.6,0.5-1.3,1-1.6,1.2c-0.3,0.1-0.5,0.5-0.5,0.9
	c0,0.4-0.4,0.5-1,0.3c-0.5-0.3-1.2-0.5-1.3-0.6c-0.3-0.1-1,0-1.8,0.3c-0.8,0.3-1.8,0.8-2.3,1.2c-0.5,0.4-1.2,0.1-1.4-0.5
	c-0.3-0.6-0.4-1.6-0.3-1.8c0.1-0.3,0.5-0.8,0.6-1.2c0.3-0.4,0.6-0.6,1-0.8c0.4,0,0.9-0.5,1.2-1.2c0.3-0.6,0-0.9-0.5-0.6
	c-0.5,0.3-1.7,0.4-2.6,0.1c-0.9-0.3-1.9-0.6-2.5-1c-0.5-0.4-1.3-0.4-1.8-0.1c-0.5,0.4-0.6,0.8-0.3,1c0.4,0.3,0.3,0.5-0.4,0.6
	c-0.5,0.1-1-0.3-1-0.6c0-0.5,0-1,0.1-1.2s-0.1-0.4-0.4-0.5c-0.3-0.1-1-0.8-1.6-1.4c-0.5-0.6-0.8-0.6-0.4,0c0.3,0.6,0.1,0.9-0.5,0.8
	c-0.5-0.1-1.7,0-2.3,0.5c-0.8,0.4-1.4,0.5-1.7,0.3c-0.3-0.3-0.6-0.3-1,0c-0.4,0.3-1,0-1.4-0.5c-0.4-0.5-0.5-1.3-0.1-1.6
	c0.4-0.3,0.6-1,0.5-1.7c0-0.6,0-1.6,0-2.2c0-0.5-0.3-1.4-0.6-1.9c-0.4-0.5-0.9-1.6-0.9-2.2c0-0.6-0.8-1.8-1.6-2.5
	c-0.8-0.6-2.1-0.9-3-0.5s-2.6,0.1-3.7-0.5s-2.6-1.2-3.1-1c-0.5,0.1-1.2,0-1.4-0.1c-0.3-0.1-0.6,0-1,0.3c-0.3,0.4-0.9,0.4-1.4,0.1
	c-0.5-0.3-1.8,0.1-2.8,0.8s-1.8,1.7-1.7,2.2c0.1,0.5-0.3,1.2-0.9,1.3c-0.6,0.1-1.4,0.5-1.9,0.9c-0.5,0.4-1.4,0.6-2.2,0.6
	c-0.8,0-1.8,0.3-2.5,0.6c-0.6,0.4-1.9,0.8-3,0.9s-2.5,0.5-3.1,0.8c-0.6,0.3-1.6,0.3-1.9,0.1c-0.4-0.1-0.9-0.3-1.3,0.1
	c-0.4,0.3-1.2,0.5-1.7,0.5c-0.6,0-1.3,0.1-1.4,0.4c-0.1,0.3-0.6,0.5-0.9,0.8c-0.3,0.1-0.8,0.8-1,1.4c-0.3,0.6-0.6,0.9-0.9,0.6
	c-0.3-0.3-0.8-0.4-1.2-0.3c-0.4,0.1-1.9,0.4-3.4,0.5s-3.5,0.5-4.8,1c-1.2,0.4-2.6,0.8-3.1,0.9s-0.9,0.3-0.9,0.5
	c0,0.3-0.8,0.5-1.6,0.6c-0.9,0.1-1.8,0.6-2.1,1.2c-0.3,0.5-0.6,0.8-0.9,0.6c-0.3-0.1-0.8-0.4-1-0.6c-0.3-0.3-1-0.1-1.6,0.3
	c-0.5,0.4-1.3,0.5-1.7,0.3c-0.4-0.3-1-0.3-1.4-0.1c-0.4,0.1-1,0-1.4-0.3c-0.4-0.3-1-0.3-1.4,0.1c-0.4,0.4-1,0.5-1.4,0.5
	c-0.4,0-0.6,0.1-0.5,0.4c0.1,0.3,0.4,0.6,0.5,0.9c0.1,0.3-0.1,0.9-0.6,1.4c-0.5,0.5-0.3,1.2,0.5,1.4c0.9,0.3,1.9,0.5,2.5,0.4
	c0.5,0,0.5,0.1,0,0.4c-0.4,0.3-1,0.8-1.4,1.2c-0.4,0.3,0.3,1,1.4,1.7c1.2,0.6,2.5,1.7,3,2.5s0.4,1.4-0.4,1.4s-2.3,0-3.6,0
	c-1.3,0-2.6,0.4-3,0.9c-0.4,0.6-0.6,1.6-0.8,2.1c-0.1,0.5,0.3,1.8,0.6,2.8c0.5,1,0.3,2.2-0.5,2.7c-0.8,0.5-2.1,1.3-3,1.8
	c-0.9,0.5-1.8,1.2-2.1,1.4c-0.3,0.3,0.1,0.9,1,1.3c0.9,0.4,1.4,1,1.3,1.3c-0.1,0.3,0.5,0.8,1.4,0.9c1,0.1,2.2,0.6,2.8,1
	c0.5,0.4,1.4,1,2.1,1.3c0.5,0.3,1.4,0.8,1.8,1.3c0.4,0.4,0.4,1.9-0.3,3.4c-0.5,1.4-2.7,2.8-4.8,3.1c-2.1,0.4-4.4,0.5-5.2,0.4
	c-0.8-0.1-1.7,0.4-2.1,1c-0.4,0.6-1.2,1.2-1.7,1.3c-0.6,0-0.9-0.1-0.8-0.3c0.1-0.3-0.3-0.6-0.9-0.8c-0.6-0.3-1.9-0.8-3-1.3
	c-1-0.4-2.2-1.6-2.7-2.5s-1.4-1.6-2.1-1.6s-1.7,0.1-2.5,0.3c-0.6,0.1-1.8,0.6-2.5,1.2c-0.6,0.5-1.7,0.5-2.3-0.3
	c-0.6-0.6-1.8-1-2.6-0.6s-1.9,0.5-2.5,0.4c-0.5-0.1-1.3,0.1-1.6,0.5s-0.6,0.8-0.9,0.8c-0.3,0-1.4,0.8-2.7,1.7s-3.4,0.8-4.7-0.3
	c-1.3-1-2.8-2.1-3.4-2.3c-0.5-0.3-0.9,0-0.8,0.4c0.1,0.4-0.1,1.6-0.4,2.6c-0.4,1-0.6,1-0.6,0s-0.4-2.1-0.9-2.3
	c-0.4-0.3-1-0.9-1.3-1.3c-0.3-0.4-1.3-1.4-2.2-2.2c-0.9-0.8-2.5-1.8-3.4-2.2c-0.9-0.4-2.5-0.8-3.4-0.8c-0.9,0-2.2-0.6-3-1.7
	c-0.8-0.9-1.7-1.4-2.1-1.2c-0.4,0.4-1,0.6-1.4,0.6c-0.4,0-0.8,0.4-1.2,1c-0.3,0.5-1.3,1-2.2,1.2c-0.9,0-1.6-0.3-1.4-0.6
	c0.1-0.4-0.3-0.9-0.8-1.2c-0.6-0.3-1.7-0.5-2.3-0.6c-0.6-0.1-1.3,0.1-1.4,0.6c-0.1,0.5-0.4,0.8-0.5,0.5c-0.1-0.1-0.4,0.1-0.5,0.6
	s-0.6,1.3-1.2,1.8c-0.5,0.5-1.7,1.4-2.7,1.9c-0.9,0.5-2.2,1.2-2.8,1.2c-0.6,0.1-1.3,0.5-1.4,1c-0.1,0.5-0.5,1.3-0.9,1.7
	c-0.3,0.5-1.2,1.3-1.8,1.8c-0.6,0.5-1.7,0.9-2.3,0.9s-0.9,0.6-0.5,1.6c0.3,0.9,0.8,2.3,1,3.1c0.3,0.8-0.4,2.1-1.4,2.8
	c-1,0.8-2.8,0-4-1.7c-1.2-1.7-3-1.9-4-0.8c-1,1.2-2.5,2.6-3.1,3.1c-0.6,0.5-1.3,1.6-1.4,2.5s-0.1,2.8,0.1,4.3c0.3,1.6-0.3,4.3-1,6.1
	c-0.9,1.8-0.8,3.6,0.1,3.9c0.9,0.4,2.1,1.2,2.5,1.8c0.5,0.6,0.9,1.9,0.9,3c0,0.9,0.5,1.6,1,1.3c0.5-0.3,1.9-0.1,3,0.1
	s2.7,1.2,3.5,2.1c0.9,0.9,2.2,2.7,3,4.3c0.8,1.4,1.2,3.2,0.9,3.9c-0.3,0.6-0.8,1.4-1.2,1.7c-0.4,0.3,0.4,1,1.7,1.9
	c1.4,0.8,2.5,1.2,2.5,0.8c0-0.4,0.3-0.5,0.5-0.3c0.3,0.3,0.5,0.3,0.6,0c0-0.3,0-0.8-0.3-1c-0.1-0.3,0-0.6,0.3-0.6s0.8,0.1,1,0.5
	c0.3,0.3,0.5,0.3,0.5,0c0.1-0.3,0.3-0.4,0.5-0.4c0.1,0,0.6,0,1-0.1c0.4-0.1,1.2-0.5,1.8-0.9c0.6-0.4,1.3-0.8,1.7-1
	c0.3-0.3,0.9-0.5,1.3-0.8c0.4-0.3,0.6-0.3,0.6-0.1s0.3,0,0.5-0.1c0.4-0.3,2.1-0.5,3.7-0.8c1.7-0.3,3.2-0.5,3.2-0.6
	c0.1-0.1,0.5,0,1,0.3c0.5,0.3,0.8,0.6,0.6,0.8s0.1,0.1,0.4,0c0.4-0.1,0.9-0.1,1.2,0.1c0.3,0.1,1.2,0,1.8-0.3
	c0.6-0.4,1.9-0.5,2.7-0.4s1.8,0.9,2.3,1.6c0.4,0.6,0.5,1.8,0.1,2.3c-0.4,0.6-0.5,1-0.3,0.9c0.3-0.1,0.3,0,0.1,0.1
	c-0.1,0.1-0.5,1.9-0.9,3.9c-0.4,2.1-0.6,4.3-0.8,5c0,0.8,0.6,1.6,1.4,1.8c0.8,0.3,0.6,0.5-0.4,0.6c-1,0.1-3.4-0.1-5.3-0.4
	c-1.9-0.3-4-0.3-4.7-0.1c-0.6,0.1-1.4,1.2-1.7,2.2c-0.3,1-1,1.9-1.7,2.1c-0.6,0.1-0.9,0.6-0.8,1.2c0.3,0.5,1.2,1.4,2.2,2.2
	s1.4,1.3,0.9,1.3c-0.5,0-1.6-0.3-2.5-0.4c-0.9-0.1-2.2-0.4-3-0.5s-1.8-0.1-2.3,0.1c-0.5,0.3-0.5,1,0.1,1.9c0.6,0.9,1.7,2.1,2.3,2.8
	c0.6,0.6,1.8,2.3,2.5,3.5c0.6,1.3,1.3,3.1,1.6,4.1c0.1,1,0.8,1.9,1.4,2.1c0.6,0.1,1.7,0.8,2.5,1.7s1.6,1.4,2.1,1.6
	c0.5,0,1.2,0.1,1.6,0.1c0.4,0,1,0.4,1.3,0.6c0.3,0.4,0.4,2.3,0.3,4.5l-0.1,1.2c-0.1,2.1,0.4,5.4,1.2,7.4s1.4,2.5,1.4,1.3
	s-0.3-2.5-0.4-2.8c-0.1-0.4,0.4-1.6,1.3-2.7c0.9-1.2,2.7-1.9,4-1.8s2.8,1.6,3.4,3.1c0.5,1.6,1.6,3.4,2.2,3.9
	c0.6,0.5,1.6,1.4,1.9,1.7c0.3,0.4,0.5,1,0.5,1.7c0,0.5-0.4,0.9-0.9,0.9c-0.5-0.1-1,0-1.4,0.1s-0.3,0.5,0,0.8
	c0.3,0.3,0.5,0.6,0.5,0.8s-0.6,0.1-1.3,0c-0.6-0.1-1.8-0.1-2.5,0c-0.6,0.1-1.4-0.1-1.7-0.6c-0.3-0.5-0.8-0.8-1.3-0.8s-1,0.3-1.3,0.4
	s-0.4,0.3-0.4,0.1c0-0.1-0.1-0.3-0.4-0.5c-0.3-0.3-0.9-0.8-1.3-1.3c-0.4-0.5-1,0.5-1.4,2.3c-0.4,1.8-0.3,4.7,0.4,6.3
	c0.6,1.7,1.2,2.8,1.2,2.8s-0.1-0.6-0.4-1.3c-0.3-0.6-0.3-1.2,0.1-1c0.4,0.1,0.5,0.1,0.5,0.3c0,0.1,0.8,0.1,1.8,0.1
	c1,0,1.6,0.4,1.2,0.9s-0.5,1.2-0.4,1.6c0.1,0.4,0.4,0.6,0.5,0.6c0.1,0,0.3-0.1,0.3-0.3c0-0.1,0.3,0.1,0.6,0.5c0.4,0.4,0.5,0.9,0.1,1
	c-0.3,0.1-1-0.1-1.6-0.6c-0.5-0.5-1-0.3-1.3,0.5c-0.1,0.8,0.3,1.4,0.9,1.4c0.6,0,1.2,0.3,1.3,0.6c0,0.4,0.3,0.9,0.4,1.3
	c0.3,0.3,0.5,0.1,0.5-0.3c0.1-0.4,0.1-0.4,0.1,0.1s0.1,0.9,0.4,1c0.3,0.1,0.5,0.6,0.8,1.2c0.3,0.5,0.1,2.3,0,4
	c-0.3,1.7-0.1,4.7,0.1,6.5s1.6,3.2,2.8,3.1c1.3-0.1,3.1-1.2,3.9-2.3c0.9-1.2,2.8-2.5,4.5-3c1.7-0.5,3.5-0.8,4.1-0.8
	c0.6,0,1.3-0.1,1.6-0.4c0.3-0.3,1.6-0.5,3-0.6s3.1,0.1,3.6,0.5c0.5,0.4,1.9,1.2,3.1,1.7c1.2,0.5,3,1.4,3.9,1.8c1,0.5,2.8,1,4.1,1.2
	c1.3,0.1,3,1,3.7,1.9c0.8,0.9,2.3,2.2,3.6,3c1.2,0.8,2.8,1.9,3.6,2.6c0.8,0.6,2.5,1.3,3.7,1.3c1.3,0,2.5,1,2.6,2.3s0.1,2.6,0,3
	c-0.1,0.4,0,0.8,0.3,1c0.3,0.3,0.4,0.9,0.5,1.7c0,0.6-0.3,2.2-0.5,3.4c-0.4,1.2-1.3,3.2-2.1,4.7c-0.8,1.4-1.2,3-0.8,3.5
	c0.4,0.5,0,1.8-0.8,2.8c-0.8,1.2-0.8,2.7,0.1,3.5s1.2,1.9,0.6,2.6s-1,1.9-1,2.8s0.3,2.8,0.5,4.3c0.4,1.4,0.6,3.6,0.6,4.9
	s1,2.8,2.3,3.5c1.3,0.6,2.7,2.6,3.1,4.1c0.4,1.7-0.4,4.3-1.8,5.8c-1.4,1.6-2.1,4-1.4,5.3c0.6,1.3,2.1,3.9,3.4,5.7l0.4,0.6
	c1.2,1.8,3.1,3.6,4.1,4.1c1,0.5,2.3,1,2.7,1.3c0.4,0.3,1,1.4,1.2,2.8c0.1,1.4,0.6,3.1,1,4c0.4,0.9,1.2,1.6,1.7,1.7
	c0.5,0.1,0.9,0.4,0.9,0.8c0,0.3-0.4,1.3-0.6,2.3c-0.4,0.9-1.7,1.8-2.8,1.9c-1.3,0.1-2.6,0.6-3,1c-0.4,0.4-1,0.9-1.6,1
	s-1.4,1.9-2.2,3.9l-0.5,1.3c-0.6,2.1-1,3.6-0.6,3.7c0.4,0,0.6,0.3,0.5,0.5c-0.1,0.3,0.4,0.4,1.2,0.4c0.6-0.1,1.6-0.1,1.8-0.1
	s1.2-0.3,1.8-0.6c0.6-0.4,2.2-0.6,3.4-0.6s2.5,0.1,3,0.3c0.4,0.1,0.9,0,0.9-0.1c0.1-0.1,0.6-0.4,1.3-0.5c0.6-0.1,1.4-0.4,1.8-0.5
	c0.4-0.1,0.9-0.4,1.3-0.4c0.4-0.1,1.6,0.4,2.6,0.9s3,0.6,4.1,0.3c1.2-0.4,3.1-0.8,4.1-0.8s2.5,0,3,0c0.6,0,1.8,0.9,2.8,2.1
	c1,1.2,2.2,2.2,2.8,2.2s1.6,0.1,2.2,0.4c0.6,0.3,1,0.6,1,1c0,0.4,0,0.9,0.1,1.2c0.1,0.4,0.3,0.8,0.4,0.9c0.1,0.3,0.5,0.9,0.9,1.4
	c0.4,0.5,0.6,1.3,0.6,1.6s-0.1,0.6-0.3,0.6s-0.1,0.1,0,0.1s0.4-0.1,0.6-0.1c0.3-0.1,0.5,0.1,0.5,0.4s0.4,0.3,0.8,0.1
	c0.4-0.1,0.9-0.1,1.2,0.1s0.5,0.3,0.5-0.1s0.3-0.3,0.5,0.3c0.3,0.5,0.5,0.5,0.5,0.1c0-0.4,0-0.5,0-0.3c0,0.4,0,0.9,0,1.2
	c0,0.3,1,0,2.3-0.5s1.8-0.4,1,0.4c-0.8,0.8-1.4,1.6-1.4,1.7c0,0.1,0.1,0.5,0.4,0.9c0.3,0.4,0.6,0.9,1,1.3c0.3,0.4,1.4,1,2.5,1.7
	c1,0.5,3.4,0.8,5,0.5c1.8-0.3,3.9-0.8,4.7-1c0.8-0.3,0.8,0.4,0,1.6c-0.8,1.2-1.9,2.3-2.7,2.6c-0.6,0.3-1.7,0.5-2.2,0.5
	c-0.5,0-1.6,0.3-2.2,0.5c-0.6,0.3-1.4,0.3-1.6-0.1c-0.1-0.4-0.1,0.3,0.1,1.4c0.3,1.2,0.8,2.2,1.2,2.3c0.4,0.1,1.2,0.9,1.8,1.7
	c0.6,0.8,2.8,1.9,4.9,2.6l5.7,1.8c2.1,0.6,3.6,1.2,3.6,1.3c0,0,1-1,2.5-2.3c1.4-1.3,2.2-2.7,1.8-3.2c-0.4-0.4-0.8-0.9-0.6-1.2
	c0.1-0.3,0-0.5-0.1-0.5c0-0.1,0-0.3,0.1-0.3c0.1-0.1,0.3-0.3,0.3-0.3s0.1-0.5,0.3-1.2c0.1-0.5,0.6-1.2,1-1.4c0.5-0.1,1.7-0.1,2.7,0
	s1.2,0.6,0.5,0.9s-1,0.8-0.6,1.2c0.4,0.3,1.3,0.9,2.1,1.4c0.8,0.5,0.5,1.4-0.5,2.2c-1,0.8-1.7,1.3-1.3,1.2c0.4-0.1,0.3,0-0.1,0.1
	c-0.4,0.1-0.5,0.4-0.4,0.4c0.1,0,0.4,0.4,0.6,0.8c0.3,0.4,0.1,0.8,0,0.9c-0.1,0.1-0.3,0.4-0.1,0.5s0.3,0.3,0.4,0.3
	c0.1,0.1,0.4,0.3,0.6,0.4c0.3,0.1,0.4,0.5,0.3,0.8s-0.1,1-0.3,1.8c0,0.6-0.1,2.5-0.4,4c-0.3,1.6-0.4,2.8-0.5,3c-0.1,0.1,0,0.6,0.1,1
	c0.1,0.4,0.4,0.8,0.6,0.8c0.3,0,0.8,0.5,1,1.2c0.4,0.6,0.3,1.2-0.3,1.2s-0.8,0.1-0.8,0.1c0,0.1-0.1,0.5-0.1,1c0,0.5-0.1,0.9,0,1
	c0.1,0.1,0.4-0.3,0.8-0.9c0.3-0.5,0.8-0.8,0.9-0.4c0.1,0.3,0.1,0.6,0,0.8s-0.4,0.3-0.5,0.4c-0.1,0.1-0.1,0.5,0,0.9s0,0.6-0.3,0.8
	c-0.3,0-0.3,0.5,0,1c0.3,0.5,0.6,1.4,0.8,1.9c0.1,0.5,0,0.8-0.3,0.6c-0.3-0.3-0.3,0,0,0.4c0.3,0.4,0.5,1.6,0.6,2.3
	c0.1,0.8,0.5,2.2,0.8,3c0.3,0.8,0.5,2.1,0.6,2.8s0.3,1.9,0.4,2.6c0.1,0.6,0.1,1.2,0,1.2c-0.1,0-0.1,0.1,0,0.1
	c0.1,0.1,0.3,0.3,0.3,0.3c0,0.1,0,0.4,0,0.8c0,0.4,0.1,0.9,0.4,1.2c0.3,0.3,0.9,1.6,1.7,2.6c0.8,1,1.3,2.2,1.3,2.5
	c0,0.3,0.1,0.5,0.1,0.5s-0.1,0.3-0.3,0.4c-0.1,0.1,0,0.4,0.4,0.5s0.3,0.3,0,0.1c-0.4-0.1,0.1,0.8,0.9,1.8c0.8,1,1.4,2.1,1.2,2.2
	s-0.1,0.8,0.3,1.3c0.4,0.6,0.9,1.2,1,1.2s0.4,0.5,0.8,1c0.3,0.5,0.8,1.9,1,3.1c0.3,1.2,0.6,2.1,0.6,1.9s0.1-0.1,0.3,0
	c0.1,0.1,0.1,0.6,0.1,1c0,0.5-0.1,0.8-0.3,0.6c0-0.1,0.3,0.8,0.8,1.9c0.5,1.2,1.2,3,1.4,4.1c0.3,1,0.8,2.6,1.2,3.4s0.8,1.3,0.8,1.3
	c0-0.1,0.3-0.1,0.4,0s0.3,0.1,0.1,0.3c-0.1,0.1,0.5,1.6,1.6,3.4c1,1.8,2.2,4,2.5,4.9c0.3,0.9,0.9,2.3,1.3,3s0.8,1.7,0.9,2.1
	c0.1,0.5,0.3,1,0.3,1.2c0.1,0.1,0.1,0.1,0,0.1c-0.1-0.1,0.3,1.2,0.6,2.7c0.4,1.7,0.8,3,0.8,3.1c0,0,0.1,0.4,0.3,0.8
	c0.1,0.4,0.3,0.5,0.4,0.4c0-0.1,0.1-0.1,0.1,0s0.1,0,0.4,0c0.3-0.1,0.3-0.1,0,0.1c-0.1,0.1-0.3,0.3-0.1,0.3c0.1,0,0,0-0.1,0
	s1,1.2,2.7,2.5l1.2,0.9c1.7,1.3,3.7,2.1,4.8,1.6s2.1-1.7,2.3-2.5c0.3-0.8,0.6-1.8,0.8-2.3c0.1-0.5,0.8-1.2,1.6-1.6
	c0.8-0.4,2.6-0.6,4.3-0.5c1.7,0.1,2.2-0.8,1.4-2.1c-0.8-1.3-1.2-2.6-0.8-3s0.6-1,0.8-1.4c0-0.4,0.6-0.9,1.4-1.3
	c0.8-0.4,1.3-0.5,1.3-0.5s0.4-0.8,0.9-1.8c0.5-1,0.5-2.7,0.3-3.6s-0.4-1.9-0.3-2.2c0.3-0.3,0.4-1.2,0.4-2.1s0.3-2.1,0.5-2.7
	c0.3-0.6,1.2-3,1.8-4.9l0.1-0.3c0.8-1.9,1-4,0.8-4.5c-0.3-0.5-0.6-1-0.6-1.3c-0.1-0.3,0.1-0.1,0.5,0.1c0.4,0.4,0.4-0.1,0.1-1.2
	c-0.3-1-0.6-2.2-0.9-2.7s-0.4-2.7-0.3-4.8s0.6-4.8,1.4-5.9c0.6-1.3,1.8-2.1,2.6-1.8c0.8,0.3,1.4-0.1,1.6-0.6
	c0.1-0.6,0.3-1.2,0.3-1.2s0.3,0.4,0.5,0.9s0.8,0.3,1.2-0.6c0.4-0.9,1.3-1.8,1.9-2.2c0.6-0.3,2.5-1.6,4-2.7c1.6-1.2,2.7-2.1,2.6-1.8
	c-0.1,0.3,0.5-0.4,1.4-1.4c0.9-1,2.5-2.3,3.5-3c1-0.6,1.8-1.3,1.7-1.4c-0.1-0.1,0.1-0.5,0.5-0.9c0.4-0.4,1.2-1,1.7-1.3
	s1.3-0.8,1.8-1.2c0.5-0.4,1.4-1.2,1.9-1.7c0.5-0.6,1.8-2.1,2.8-3.2c1-1.2,1.9-2.2,1.8-2.1c-0.1,0,1.2-0.9,2.8-2.2
	c1.7-1.3,2.6-2.1,2.1-1.9c-0.5,0.1-1,0.4-1,0.4s0.1-0.3,0.3-0.4c0.3-0.1,0,0-0.6,0.5c-0.5,0.4-0.4,0.1,0.3-0.6
	c0.6-0.8,1.2-1.2,1-0.9c-0.1,0.4,1.3,0.1,3.2-0.4c1.8-0.5,3-1.3,2.6-1.7c-0.4-0.4-0.4-0.4,0.1-0.1s1.6,0,2.2-0.6
	c0.6-0.6,1.3-1.4,1.3-1.7c0.1-0.3,0-0.4-0.1-0.3c-0.1,0.1,0.3-0.3,0.9-1c0.6-0.6,1-1.3,0.8-1.3c-0.3,0-0.5-0.1-0.6-0.3
	s-0.1-1.3,0-2.5s1.3-2.7,2.7-3.4c1.4-0.6,3.2-1.7,4.3-2.5c0.9-0.8,1.4-2.1,1-3s-0.3-0.8,0.1,0.3c0.5,1,1,2.5,1.3,3.2
	c0.1,0.8,0.4,1,0.4,0.6c0-0.5,0.1-0.5,0.3-0.1c0.1,0.4,0.4,0.8,0.5,0.8s0.4-0.6,0.6-1.3c0.3-0.8,0.4-0.6,0.5,0.3
	c0.1,0.9,0.3,1.3,0.5,0.8c0.3-0.5,0.3-1.2,0.1-1.6c-0.1-0.4,0-1.2,0.1-1.8c0.1-0.5,0.3-0.5,0.3,0s0.1,0.6,0.3,0.3s0.4,0.3,0.4,1.4
	c0,1.2,0,1.9,0.1,1.7s0.1-0.3,0.1-0.1s0.1,0,0.3-0.3s0.5-0.4,0.9-0.3c0.4,0.1,0.5-0.1,0.1-0.9c-0.4-0.8-0.4-1.4-0.1-1.8
	c0.3-0.3,0.8,0.3,1.2,1.2s0.9,1.3,1.2,0.6c0.3-0.6,0.5-0.8,0.5-0.3c0,0.5,0.3,0.3,0.5-0.4c0.3-0.6,0.4-1.6,0.3-2.1
	c0-0.5,0-0.4,0.1,0.3c0.1,0.6,0.4,0.6,0.5-0.1s0.3-0.3,0.1,1c-0.1,1.3,0,2.1,0.1,1.6c0.1-0.5,0.5-0.8,0.8-0.5
	c0.3,0.1,0.6-0.1,0.6-0.6c0-0.5,0.4-1.6,0.8-2.5c0.4-0.9,0.6-0.6,0.5,0.4s0,1.7,0.3,1.3c0.3-0.4,0.3-0.4,0.1-0.1
	c-0.1,0.4,0.1,0.3,0.5-0.1c0.4-0.4,0.6-0.3,0.5,0.3c-0.3,0.5-0.1,1.2,0.1,1.3s0.6-0.5,0.9-1.4c0.3-0.9,0.5-1.3,0.6-0.9
	c0,0.4,0.1,0,0.1-0.8s0-1.9-0.1-2.6c-0.1-0.5,0-1.3,0.4-1.6c0.4-0.3,0.6-0.6,0.6-0.8s0.3-0.1,0.5-0.1c0.3,0,0.4,0,0.4,0
	c0-0.1-0.1-0.3-0.4-0.4c-0.3-0.1-0.4-0.4-0.4-0.6s0-0.3,0-0.3c0,0.1,0.1-0.1,0.1-0.4s-0.4-0.9-1.2-1.6c-0.8-0.5-0.8-1-0.1-0.9
	c0.6,0.1,1-0.1,0.8-0.4c-0.1-0.4-0.1-0.4,0.1-0.3c0.3,0.3,0.6,0.3,0.8,0.1s0.1,0.6,0.1,1.7c-0.1,1,0.1,2.5,0.5,3.2
	c0.4,0.8,1,1.4,1.3,1.6s0.9,0.1,1.3,0.1s0.6-0.1,0.6-0.1c0-0.1,0.3-0.1,0.5-0.1c0.3,0,0.5,0,0.4,0s0-0.1,0-0.3
	c0.1-0.1,0.4-0.4,0.8-0.6s1,0.6,1.7,2.1c0.6,1.4,1.3,2.2,1.6,1.8c0.3-0.4,0.3-0.1,0.1,0.5c-0.1,0.6-0.3,1.2-0.3,1
	c0,0,0.3,0.5,0.5,1.3s0.5,1.4,0.6,1.7c0.1,0.3,0.1,0.6,0.1,1.2c0,0.5,0,1.2,0,1.6c0,0.4,0.5,1.7,1.2,2.8c0.6,1.2,0.9,1.7,0.9,1
	c0-0.6,0.5,0.1,1.4,1.8c0.9,1.7,1.6,2.3,1.3,1.4c-0.3-0.9-0.1-1.3,0.1-0.8s0.5,0.8,0.5,0.8c0-0.1,0.4,0.1,0.6,0.5
	c0.3,0.4,0.4,1,0.4,1.4c-0.1,0.4,0.1,0,0.5-0.9c0.4-0.9,0.6-1.4,0.8-1.2c0,0.3,0.1,0.8,0.1,1.3s-0.1,0.9-0.5,1.2
	c-0.4,0.3-0.3,0.9,0.1,1.6c0.4,0.6,0.6,0.9,0.5,0.5s0-0.4,0.3,0c0.3,0.4,0.3,0.3,0-0.4c-0.3-0.5,0-1,0.4-1c0.4,0,0.8,0.1,0.8,0.3
	s0.1,0.1,0.1,0s0.3-0.1,0.6,0.1c0.3,0.1,0.9,0.5,1.3,0.6c0.4,0.1,0.8,0.4,0.8,0.4c0,0.1-0.3,0.4-0.5,0.8c-0.3,0.4-0.1,0.5,0.3,0.5
	s1,0.5,1.3,1.3c0.3,0.8,0,1.4-0.6,1.3c-0.6-0.1-0.8,0.8-0.1,1.9c0.6,1.2,1.2,1.4,1.2,0.8s0.3-1.7,0.5-1.9c0.3-0.4,0.6,0.3,0.8,1.3
	c0.1,1,0.5,2.2,0.8,2.5c0.3,0.3,0.5,1.2,0.6,2.1s0.6,2.8,1.2,4.5c0.5,1.6,1,3.2,0.9,3.7c0,0.5-0.6,2.6-1.4,4.7l-0.1,0.4
	c-0.6,2.1-0.9,4-0.5,4.3c0.4,0.4,0.9,0.3,1-0.1s0.5-0.6,0.5-0.5c0.1,0.1,0.4-0.3,0.5-0.9c0.1-0.6,0.4-1,0.5-1s-0.1,1-0.4,2.2
	c-0.4,1.2-0.3,1.8,0.3,1.3c0.4-0.5,0.5-0.4,0.1,0c-0.4,0.5,0,0.4,0.6-0.4c0.8-0.6,1.3-0.9,1.2-0.4
	C393.7,693.8,393.5,694.4,393.4,694.8z"/>
<path class="st0" d="M575.1,583.5c0.6-0.4,1.3-0.6,1.4-0.6s-0.4,0.4-1.2,0.8C574.6,583.9,574.4,583.9,575.1,583.5z"/>
<path class="st0" d="M570.1,567c0-0.4,0.3-0.5,0.5-0.4c0.3,0.1,0.5,0.5,0.6,0.9c0,0.4,0.3,0.8,0.5,0.9c0.3,0.1,0.1-0.1-0.1-0.6
	s-0.3-0.8,0.1-0.6s0.8,0.6,1,1.2s-0.3,0.5-1.2,0.1C570.8,568,570.1,567.3,570.1,567z"/>
<path class="st0" d="M260.6,739.6c-0.1-0.4-0.1-0.5,0-0.5c0,0.1,0.1,0.4,0.1,0.6S260.7,740,260.6,739.6z"/>
<path class="st0" d="M730.3,502.6c-0.1-0.1-0.9-1.8-1.6-3.9l-0.4-1c-0.6-2.1-1.4-5.4-1.6-7.5l-0.1-1c-0.3-2.1-1.3-4.1-2.3-4.4
	c-1-0.3-2.2,0.3-2.5,1.2s0.1,1.6,0.9,1.4s1.4-0.3,1.3-0.3c-0.1,0,0.1,0.6,0.3,1.3c0.3,0.6-0.3,1.2-0.9,1.2c-0.6,0-1.6,0-2.1,0
	c-0.5,0-0.9-0.3-0.9-0.8c0-0.5-0.5-1.2-1.2-1.4c-0.5-0.3-1.2-0.1-1.4,0.1c-0.1,0.4-0.1,0.9,0.3,1.2c0.3,0.3,0.5,0.6,0.5,0.6
	s-0.1,0.1-0.3,0s-0.9,0.8-1.9,1.8c-0.9,1.2-1.9,3.2-2.2,4.8c-0.3,1.6,0,3.2,0.6,3.9c0.6,0.6,0.9,2.6,0.5,4.4s-1.6,4.8-2.6,6.7
	l-2.1,3.6c-1,1.8-2.6,4.3-3.5,5.4c-0.9,1.2-2.7,2.8-4,3.6c-1.3,0.8-3.2,1.8-4,2.2c-0.8,0.4-1.8,1-2.2,1.6s-1.2,0.1-1.7-0.8
	c-0.5-0.8-1.2-1.4-1.6-1.4c-0.4,0-0.1-0.4,0.5-0.9c0.6-0.5,1.3-1.4,1.6-1.9c0.3-0.5-0.5-0.6-1.4-0.3c-1,0.4-2.1,1-2.2,1.4
	c-0.1,0.4-0.1,1,0,1.3c0.1,0.3-0.4,1.9-1.4,3.6c-0.9,1.7-2.2,3.7-2.8,4.5s-1,1.9-0.9,2.5c0.1,0.5,0.1,1,0.1,1.2
	c0,0.1-0.5,0.4-0.9,0.6s-0.6,0.8-0.6,1s-0.1,0.5-0.4,0.4c-0.3-0.1-0.4,0-0.3,0c0.1,0,0.1,0-0.1,0c-0.1,0-0.6,0-0.9,0
	s-0.6-0.1-0.8-0.3s-0.3,0-0.5,0.4c-0.3,0.4-0.6,0.5-0.8,0.3c-0.1-0.3-0.3-0.5-0.1-0.5c0.1,0,0.1-0.1,0-0.3c-0.1-0.1-0.1,0-0.3,0.1
	c-0.1,0.1-0.4-0.1-0.6-0.5c-0.3-0.4-1.8-0.4-3.4,0c-1.7,0.4-4.5,0.8-6.5,0.9s-3.4,0-3.2-0.1c0.1-0.1-0.4-0.1-1.2,0
	c-0.8,0.1-1.9,0.4-2.5,0.6c-0.5,0.3-1.9,1.4-3,2.7c-1,1.3-2.5,2.7-3.2,3.2c-0.8,0.5-2.1,1.4-3,2.1s-1.8,1.2-1.9,1.2
	c-0.3,0-0.4,0-0.4,0.1c0,0.1-0.4,0.3-0.9,0.1c-0.5-0.1-0.9,0.3-1,0.6c-0.1,0.4-0.1,1.3-0.3,1.9c0,0.6-0.5,1.3-1.2,1.6
	s-1.6,0.6-2.1,1c-0.5,0.4-0.8,0.9-0.5,0.9s0.1,0.1-0.3,0.1s-0.9,0.3-1,0.4c-0.1,0.1-0.3,0.5-0.1,0.5s-0.3,0.1-0.9,0
	c-0.6,0-1.2,0.1-1.3,0.3c-0.1,0.1-0.1,0.6,0,1.2s-0.3,0.8-0.8,0.6c-0.5-0.1-0.8,0.3-0.6,0.8c0.1,0.5,0.4,0.9,0.4,0.8
	s0.3-0.3,0.4-0.1c0.1,0,0.4,0.3,0.5,0.5c0.1,0.3,0.5,0.8,0.9,1.3s0.1,0.6-0.3,0.4c-0.4-0.3-0.8-0.4-0.6-0.3c0,0.1-0.1-0.3-0.4-0.6
	c-0.3-0.4-0.1,0,0.1,0.8c0.4,0.9,0.4,1.8,0.3,2.2c-0.1,0.4,0.1,0.3,0.8-0.3c0.6-0.5,1.3-0.5,1.6-0.1c0.1,0.4,0.6,0.4,1-0.1
	c0.4-0.5,0.3-1-0.3-1.2c-0.5-0.1-0.5-0.6,0-1.2c0.5-0.5,1.2-0.5,1.6,0.1c0.4,0.5,0.5,1.6,0.3,2.1c-0.3,0.5,0,0.9,0.4,0.9
	s0.5,0.5,0.3,1.3c-0.4,0.8-0.9,1.8-1.4,2.3c-0.5,0.5-1,1.2-1.2,1.4c-0.3,0.3-0.4,0.8-0.4,1.3c0,0.5,0.3,1.3,0.5,1.8
	c0.3,0.5,0.3,1.3-0.3,1.6c-0.4,0.4,0.1,0.8,1.2,1c1,0.3,1.8,0,1.8-0.6c0-0.6,0.1-0.8,0.4-0.4c0.3,0.4,0.3,1.4,0.1,2.3
	c-0.3,0.9,0.4,1.2,1.3,0.5c0.9-0.6,2.1-1.3,2.5-1.6c0.4-0.3,1.2-2.1,1.8-4.1l0.6-2.1c0.6-2.1,1.6-4.4,2.1-5.2c0.5-0.8,1-1.7,1.2-1.9
	c0.1-0.3,0.1-0.8,0-0.9c-0.1-0.3-0.3-0.5-0.3-0.6s-0.3-0.1-0.5-0.1c-0.3,0-0.4,0-0.3-0.1s0.1-0.4,0.1-0.8c0-0.4-0.6-0.8-1.4-1
	c-0.8-0.3-1-0.9-0.6-1.6s0.3-1-0.3-1s-1.6-0.5-2.5-1.3c-0.8-0.8-0.9-1.7-0.3-1.9c0.6-0.3,1.9-0.3,2.7-0.1s1.8,0.6,2.3,1.2
	c0.5,0.5,1.3,0,1.7-1s1-2.2,1.3-2.6s0.8-0.3,1,0.1s1.4,0.5,2.6,0.1c1.2-0.4,1.9-0.6,1.9-0.6s0.3-0.1,0.5-0.4
	c0.3-0.1,0.5-0.1,0.5,0.1s0.4,0.3,0.8,0c0.4-0.3,1-0.6,1.4-0.8c0.4-0.3,0.9-0.3,1.3,0c0.3,0.1,0.9,0,1.3-0.3
	c0.4-0.3,0.5-0.5,0.4-0.5s0.1-0.4,0.6-0.8c0.5-0.4,1.8-0.8,2.8-0.8c1,0,2.2,0.1,2.6,0.3c0.4,0.1,1.3,0.4,1.9,0.4
	c0.6,0,1.4,0.3,1.7,0.4c0.4,0.1,0,0.9-0.6,1.7c-0.6,0.8-1,1.7-0.8,1.9c0.3,0.3,0.3,1,0,1.7c-0.3,0.6,0.1,1.4,0.8,1.8
	c0.6,0.4,1.2,0.8,0.9,0.9c-0.3,0.1,0.3,0.5,0.9,0.9c0.6,0.4,1.6,0.6,1.9,0.4c0.4-0.3,1.4-1,2.2-2.1s2.1-2.5,3-3.2
	c0.9-0.9,1.8-1.6,1.9-1.4c0.1,0,0.4,0,0.5-0.1s-0.1-0.5-0.4-1c-0.4-0.4-0.9-1.3-1.2-1.9c-0.3-0.6,0-1.7,0.5-2.3
	c0.5-0.6,1-1.2,1.2-1.2c0.1,0,0.4,0.8,0.5,1.7c0.1,0.9,0.3,1.3,0.4,0.8c0.1-0.5,0.5-0.5,1.2,0c0.6,0.5,0.6,1.3,0.1,1.6
	c-0.5,0.3-0.1,0.3,1,0c1.2-0.3,3.1-0.3,4.4-0.1c1.3,0.1,2.7-0.4,3.2-1.4c0.5-0.9,1.6-1.8,2.3-1.8c0.8-0.1,1.7,0.3,2.1,0.8
	c0.4,0.5,0.8,0.1,1-1s1.2-1.8,2.1-1.4c0.9,0.3,1.7,0,1.7-0.6s-0.1-1.3-0.1-1.4c-0.1-0.1,0-0.6,0.3-1.2c0.3-0.5,0.9-0.8,1.6-0.6
	s0.6,0.8,0,1.4c-0.5,0.6-1,1.8-1.2,2.7c-0.1,0.9,0.9,1,2.1,0.5c1.2-0.5,3-1.9,4-3.1s1.4-3.4,0.9-4.9c-0.5-1.6-0.3-4.3,0.5-6.1
	s1.6-5,1.8-7.2l0.4-4c0.1-2.1,0.5-4,0.8-4c0.3-0.1,0.9,0.1,1.4,0.5c0.5,0.4,0.9,0.1,0.9-0.4c0-0.6,0-1,0-1c0,0.1,0-0.3-0.1-0.6
	c-0.1-0.4,0-1.2,0.5-1.7c0.4-0.5,0.8-1.2,0.8-1.6s0.1-0.5,0.3-0.5c0.1,0.1,0.4,0,0.5-0.1c0.3-0.1,0.5-0.4,0.5-0.5
	c0-0.1,0-0.3-0.1-0.3c-0.1-0.1,0-0.4,0.3-0.5c0.3-0.1,0.3-0.5,0.3-0.5c-0.1,0,0-0.1,0.1-0.3c0.1-0.1,0.1-0.4,0.1-0.5
	c-0.1-0.3,0-0.6,0.3-1c0.3-0.4,0.4-0.6,0.1-0.6c-0.1,0-0.1-0.1,0.1-0.4C730.5,502.7,730.5,502.7,730.3,502.6z"/>
<path class="st0" d="M649.3,572.9c-0.3,0-0.4-0.3-0.4-0.5s0.1-0.3,0.4,0C649.4,572.6,649.4,572.9,649.3,572.9z"/>
<path class="st0" d="M756.3,467.2c-0.5,0.4-1.3,0.5-1.8,0.3c-0.5-0.3-0.6-0.5-0.4-0.4c0.3,0.1,0.1-0.5-0.1-1.3
	c-0.3-0.8-0.5-1.3-0.4-1.2c0.1,0.1,0.4,0.3,0.5,0.3c0.1,0,0-0.1-0.3-0.3s-0.8-0.6-0.9-1.2c-0.3-0.5,0-2.1,0.5-3.6
	c0.5-1.6,0.1-1.9-0.8-0.8c-0.9,1.2-2.7,1.6-3.9,1.2c-1.2-0.4-2.5-0.6-2.6-0.4c-0.1,0.3-0.6,0.3-1,0c-0.4-0.3-1-0.5-1.3-0.8
	c-0.4-0.1-1.8-1.6-3.4-3l-4.1-4c-1.6-1.4-3.5-3.5-4.3-4.5c-0.8-1-2.1-1.7-2.7-1.7s-1.3,1.2-1.2,2.3c0,1.2,0.1,3.5,0.3,4.9
	c0.1,1.6,0.1,3.9,0,5.2c-0.1,1.3-0.8,3.1-1.4,4s-1,2.5-0.9,3.5c0.1,1-0.1,2.2-0.6,2.6c-0.5,0.4-1.3,0.5-1.8,0.3s-1.6-0.6-2.3-1
	c-0.8-0.4-1.4,0-1.6,0.8c-0.1,0.9-1,2.3-2.2,3.4s-2.2,2.5-2.3,3.1c-0.1,0.6,0,1.8,0.4,2.6c0.4,0.8,0.8,2.3,0.8,3.4s0.3,2.6,0.5,3.4
	c0.3,0.8,1.4,0.6,2.5-0.3c1-0.9,2.3-1.6,2.8-1.4c0.4,0,1.3,0,1.8-0.3c0.5-0.3,0.3-1-0.5-1.7c-0.8-0.8-2.3-1.8-3.2-2.3
	s-1.3-1.6-0.6-2.3c0.6-0.8,1.7-0.9,2.5-0.3c0.8,0.6,1.9,0.8,2.7,0.3s2.5-0.9,3.7-0.9c1.3,0,3.2,0.6,4.4,1.4c1.2,0.8,3.1,2.1,4.4,2.8
	s2.6,0.5,2.8-0.8c0.3-1.2,1.3-3.1,2.2-4.1s3.1-2.3,5-2.6c1.8-0.4,3.4-0.9,3.2-1.2c-0.1-0.3,0.3-0.4,0.6-0.3s1-0.1,1.4-0.5
	c0.4-0.4,1.2-0.8,1.9-0.9c0.6-0.1,1.7-0.8,2.2-1.3C756.7,466.9,756.8,466.8,756.3,467.2z"/>
<path class="st0" d="M676.3,556.2c1.2-1.4,1.9-2.6,1.8-2.6s-0.3,0-0.4-0.1c-0.1-0.1-0.1-0.9-0.1-1.8s0-1.7-0.1-1.7s-0.9-0.3-1.8-0.6
	c-0.9-0.4-2.6-0.4-3.7,0c-1.2,0.4-2.6,1.2-3.1,1.8c-0.6,0.6-1.7,0.9-2.3,0.6c-0.6-0.3-1.7,0.1-2.1,1c-0.4,0.9-1.8,2.5-3.2,3.4
	c-1.3,0.9-1.8,1.7-1,1.8c0.8,0.1,1.6,0.1,1.8,0.1s0.5,0.3,0.4,0.6c-0.1,0.4-0.3,0.5-0.5,0.5c-0.1-0.1-0.1,0.1,0,0.4
	c0.1,0.3,0.1,0.6,0,0.8c-0.3,0.1-0.1,0.4,0.1,0.6c0.3,0.3,0.8,0.5,1.2,0.5s0.5,0.3,0.4,0.6c-0.1,0.4,0.4,0.8,1.2,0.8
	c0.8,0.1,1.6-0.5,1.6-1.3c0-0.8,0.4-1.7,0.6-1.8c0.3-0.1,0.6-0.8,0.8-1c0.1-0.3,1.6-0.6,3.1-0.6c1.7,0,3.1,0.1,3.2,0.4
	C674.1,558.7,675.1,557.6,676.3,556.2z"/>
<path class="st0" d="M549.9,817.5c0.1,0.4,0.9,0,1.9-0.8c0.9-0.8,1.8-1.3,1.9-1.2s0.6,0.1,1.2-0.1c0.5-0.3,0.8-0.6,0.5-0.8
	s-0.3-0.4-0.1-0.5s0.3-0.3,0.1-0.4c-0.1,0,0-0.4,0.3-0.6s0.1-0.5-0.3-0.3c-0.4,0.1-0.6-0.8-0.4-2.1c0.3-1.3,0.5-3.1,0.8-3.9
	c0.3-0.9,0.6-1.8,0.9-2.2s0.8-0.8,1-0.9c0.3-0.1,0.8-0.3,0.9-0.4s0.1-0.6-0.1-1c-0.3-0.4,0.1-0.4,0.6,0c0.6,0.4,1.8,0.9,2.7,1
	c0.9,0.1,2.1,0.1,2.5,0.1c0.4,0,0.9-0.4,0.9-0.8c0-0.4-0.8-1.4-1.8-2.2s-2.5-1.9-3.2-2.5c-0.8-0.5-1.8-1.4-2.5-2.1
	c-0.6-0.6-0.8-1-0.6-1.2s0.6-0.4,0.9-0.4c0.4-0.1,0.6-0.6,0.6-1c0-0.4-0.4-1.3-0.8-1.9c-0.4-0.5-1-1.3-1.4-1.4
	c-0.4-0.3-0.8-0.5-0.9-0.8c-0.1-0.1,0-0.4,0.3-0.5s0.3-0.4,0-0.6s-1-0.8-1.6-1c-0.5-0.3-0.8-0.8-0.4-1c0.4-0.3,0.4-0.6,0.1-0.8
	c-0.3-0.1-0.9-0.5-1.4-0.8s-0.3-0.8,0.5-1.2c0.9-0.4,1.9-0.6,2.5-0.6c0.5,0,0.5-0.3,0.3-0.5c-0.4-0.3-0.4-0.5,0-0.5
	c0.4,0,0.1-0.4-0.5-0.8c-0.6-0.5-0.6-1.3,0-1.7c0.6-0.4,1.4-0.6,1.8-0.4s1.4,0.4,2.2,0.4s1.3-1,1-2.2s1.3-2.6,3.4-3.1
	s3.4-1.3,2.8-1.8c-0.5-0.5-1.6-1.2-2.3-1.3c-0.8-0.3-2.1-0.8-2.8-1.3s-1.7-0.8-2.2-0.6c-0.5,0.3-0.9,0.1-0.9,0
	c0-0.3,0.1-0.8,0.3-1.3s-0.6-0.6-1.7-0.3c-1,0.4-1.7,0-1.3-0.8s0.8-1.7,0.9-1.9s0-0.9-0.4-1.3c-0.4-0.4-0.9-0.8-1-0.9
	s-0.3-0.3-0.1-0.3c0.1,0,0-0.1-0.1-0.3c-0.1-0.1-0.4-0.1-0.4-0.1s-0.3,0-0.5-0.1c-0.3-0.1-0.8-0.4-1.3-0.5c-0.5-0.1-1.2,0-1.7,0.4
	c-0.5,0.3-0.9,0-0.9-0.6s-0.3-0.8-0.5-0.1c-0.3,0.5-1.2,1.8-1.9,2.7s-1.4,1.8-1.3,1.8c0.1,0.1-0.3,0.9-0.9,1.8s-1.7,2.1-2.5,2.6
	c-0.8,0.4-1.3,0.6-1.3,0.4s0,0.3,0,1s-0.9,2.2-1.9,3c-1,0.8-2.1,1.4-2.2,1.2c-0.1-0.1,0-0.5,0.1-0.9s-0.5-0.1-1.6,0.5
	c-1,0.5-2.8,1.3-3.7,1.7c-1,0.4-2.1,1.2-2.2,1.7c-0.3,0.5-1.2,1.9-2.2,3.2c-1,1.3-3.4,3.1-5.2,4.3l-1.8,1.2
	c-1.8,1.2-4.3,2.2-5.3,2.3c-1.2,0.1-2.2,0.9-2.6,1.6c-0.3,0.6-0.5,1.6-0.6,1.8c0,0.3-0.3,0.5-0.4,0.4c-0.1-0.1-0.4-0.8-0.6-1.6
	c-0.1-0.8-0.4-0.9-0.4-0.3c0,0.6,0,1.3,0.1,1.4s0,0.1-0.3,0s-0.4,0.3-0.5,0.8c-0.1,0.5,0.1,0.9,0.5,1c0.4,0,0.5,0.9,0.3,1.9
	c-0.3,1-0.8,1.9-1.3,2.1s-0.3,0.5,0.4,1c0.6,0.4,0.1,0.6-1.3,0.4c-1.4-0.1-2.8-0.6-3.2-0.9c-0.4-0.3-0.6-0.8-0.6-1
	c0.1-0.3-0.1-0.5-0.5-0.6c-0.4-0.1-0.6,0-0.8,0.3s-1.2-0.3-2.5-1s-2.7-1.2-3.1-0.9c-0.5,0.3-0.9,0.8-1,0.9c-0.1,0.3-0.6,0.8-1,1.3
	c-0.5,0.5-1,1.4-1.3,2.2c-0.3,0.8,0,1,0.5,0.6c0.5-0.4,0.5-0.3-0.1,0.4c-0.6,0.5-1.2,1.4-1.2,1.8c0,0.5,0.5,2.2,1.3,4
	c0.8,1.7,1.2,3.5,1,4c-0.1,0.5-0.5,0.9-0.9,0.9c-0.4,0-0.5,0.4-0.5,0.8c0.1,0.4,0.6,0.9,1.3,1.3c0.6,0.4,1.3,0.8,1.4,1
	c0.1,0.3-0.1,0.5-0.8,0.5c-0.5,0.1-0.8,0.4-0.4,0.5c0.4,0.1,1.3,0.4,1.9,0.4c0.8,0,1.6,0.5,1.8,1c0.3,0.6,0.6,1.9,0.8,3.1
	c0.1,1.2,0.1,2.2,0,2.3c-0.1,0.3,0.1,0.6,0.5,1c0.4,0.4,0.9,1.4,1.3,2.3c0.3,0.9,0.6,2.5,0.6,3.2s0.5,1.6,1,1.3c0.5-0.1,1,0,1.2,0.3
	s0.8,0.3,1.4,0c0.6-0.3,0.9-0.3,0.4,0c-0.4,0.3,0.3,0.3,1.4,0.1c1.2-0.1,2.6-0.3,3.1-0.1c0.5,0.1,1.2-0.1,1.4-0.6
	c0.3-0.5,0.6,0,0.8,1.2s0.6,2.3,1,2.7c0.4,0.4,1.2,0.4,1.6,0c0.4-0.3,1.2-0.4,1.6-0.3c0.4,0.1,1.7,0,2.7-0.5c1-0.5,1.9-1.3,1.9-1.8
	s0.5-0.5,1,0s1.3,0.9,1.8,0.9s1,0.4,1.3,0.8s1.2,0.4,2.1,0c0.9-0.4,2.1-0.6,2.6-0.6c0.5,0,1.2,0.3,1.6,0.5s0.8,1.6,0.9,3
	s0.9,2.5,1.8,2.3c0.9-0.1,2.6-0.6,4-1.2c1.4-0.5,3.2-1.8,3.9-2.7c0.8-0.9,1.6-1.9,1.8-2.2s0.3-1,0-1.6c-0.3-0.6-0.1-1.4,0.3-1.9
	c0.4-0.4,0.9-0.9,1.2-0.9c0.3-0.1,0.6-0.8,0.9-1.4c0.3-0.6-0.1-1.3-0.6-1.3c-0.6,0-1.2-0.6-1.3-1.4s0.3-1.7,0.8-1.9
	c0.5-0.3,1-0.8,1.2-1c0.1-0.3,0.5-0.8,1-1.2c0.5-0.4,0.8-1,0.8-1.7S549.8,817.1,549.9,817.5z"/>
<path class="st0" d="M635.3,806.7c-0.6-0.8-1.7-1.7-2.5-2.1c-0.6-0.4-0.5-1.2,0.4-1.8c0.9-0.6,1.8-1.8,1.8-2.7s-0.9-1.2-2.2-0.6
	c-1.2,0.6-2.3,1.3-2.3,1.6c-0.1,0.3-0.4,0.8-0.6,1.3c-0.3,0.5-0.8,0.5-1,0.1c-0.3-0.4-0.1-1.8,0.4-3.1c0.5-1.3,0.6-2.6,0.4-2.8
	s-1.2,0.8-2.2,2.5c-1,1.7-1.4,3.5-1,4c0.4,0.5,0.5,1.3,0.4,1.7s-0.1,1,0,1.3c0.1,0.4,0.4,0.9,0.5,1.3s0.3,1.4,0.3,2.2
	s0.4,1.8,0.9,2.3s1.7,1.6,2.7,2.5c1,0.8,1.2-0.1,0.3-2.1l-0.8-1.8c-0.9-1.9,0.1-3.4,2.1-3C634.9,807.8,636,807.4,635.3,806.7z"/>
<path class="st0" d="M647.1,811.8c0.6,0.5,1.4,0.6,1.7,0.3c0.3-0.4,0.9-0.5,1.3-0.4c0.4,0,0.3-0.3-0.3-0.6c-0.5-0.4,0.1-0.4,1.4,0
	c1.4,0.4,1.7,0.4,0.6-0.1c-1-0.5-2.6-0.9-3.4-0.8s-1.6,0.3-1.6,0.3c0,0.1,0,0.1-0.1,0c0-0.1,0,0,0,0.3s0.1,0.3,0.3,0.1
	s0.3-0.1,0.3,0.1c0,0.1-0.3,0.3-0.6,0.3C646.2,811,646.4,811.3,647.1,811.8z"/>
<path class="st0" d="M608.1,801.6c1-1.4,1.8-2.8,1.6-3.4c-0.3-0.5-0.9-0.5-1.3-0.3s-1.3,0.8-1.7,1c-0.4,0.3-0.8,0.8-0.9,1.3
	c0,0.4-0.5,0.9-1,1.2c-0.5,0.3-1.6,0.6-2.2,1.2c-0.6,0.4-2.5,0.6-4,0.4c-1.6-0.3-3.4-0.1-4,0s-2.2,0.1-3.5-0.3
	c-1.3-0.4-3.4-0.6-4.5-0.6c-1.2,0-2.5-0.5-2.7-0.9c-0.3-0.5-0.8-0.8-1-0.6c-0.3,0.1-1,0-1.7-0.1c-0.6-0.1-1.4,0-1.8,0.4
	c-0.4,0.4-1,1.2-1.3,1.8s-1.2,0.9-1.7,0.5c-0.6-0.4-1.7,0.1-2.2,1.2s-1.3,2.3-1.6,2.8c-0.3,0.5-0.8,1.3-1,1.6
	c-0.4,0.4-0.6,0.6-0.8,0.6s0.1,0.3,0.4,0.5c0.3,0.3,0.5,1.2,0.5,2.1c0,0.9,0.1,2.2,0.3,2.7c0.1,0.5,0,0.6-0.1,0.1
	c-0.3-0.5-1,0.4-1.9,1.8c-0.9,1.4-1.6,3.6-1.6,4.9c0,1.2-0.3,2.6-0.6,3.1c-0.4,0.5-0.8,1.4-0.9,1.9c-0.3,0.6-0.8,1.3-1.2,1.4
	c-0.4,0.3-0.6,0.6-0.5,1c0.1,0.4,0.4,1.8,0.8,3.1c0.3,1.4,1.3,2.3,2.2,2.2c0.9-0.1,1.7,0.1,1.6,0.5c0,0.4,0.1,1.3,0.4,1.9
	c0.3,0.6,0.5,1,0.6,0.9s-0.1,1.3-0.4,3.1c-0.4,1.8-0.6,4.4-0.6,5.8c0,1.4,1.6,2.6,3.5,2.6c1.9,0,3.4-1.2,3-2.6
	c-0.3-1.6-0.4-3.5-0.4-4.4c0.1-0.9,0.3-2.8,0.4-4.1c0.1-1.4-0.1-3.6-0.5-5c-0.4-1.4,0-3.1,1-3.7c1-0.6,2.3-0.8,2.8-0.4s1,0.6,1,0.6
	c0.1,0,0,0.8-0.1,1.8c-0.1,1,0,2.6,0.4,3.4c0.4,0.8,1.4,2.2,2.2,3.2c0.8,1,1.6,1.7,1.6,1.7s0.9,0.8,2.1,1.9s1.9,1.7,1.8,1.3
	c-0.1-0.4,0.8-0.9,2.1-1.2c1.3-0.1,2.3-0.4,2.5-0.5s0.1-0.4-0.1-0.6s-0.1-0.3,0.3,0c0.4,0.3,0.5-0.1,0.4-0.9s-0.6-1.6-1-1.7
	c-0.4-0.1-1-0.6-1.4-1c-0.4-0.4-0.9-1-1.2-1.6c-0.4-0.4-0.5-1-0.5-1.3s0.4-0.5,0.6-0.4s0.6-0.3,0.8-0.8c0.1-0.5,0-1.4-0.4-1.9
	c-0.4-0.5-1.2-1.4-1.8-2.2c-0.6-0.8-2.2-2.1-3.4-3.2c-1.2-1-2.2-2.3-2.3-2.6c-0.1-0.3,0.4-0.5,1-0.3c0.6,0.3,1.7,0,2.3-0.5
	c0.6-0.5,2.1-1.4,3.1-2.1s2.5-1.8,3.1-2.7c0.6-0.8,2.2-1.6,3.4-1.7c1.2-0.1,1-0.5-0.4-0.9s-2.2-0.5-1.7-0.4c0.4,0.1,0,0.4-1.2,0.4
	c-1,0.1-2.6,0.4-3.5,0.8c-0.9,0.4-2.6,0.8-3.9,0.9c-1.3,0.3-3.4,0.9-4.5,1.6c-1.2,0.6-2.6,0.5-3-0.3c-0.4-0.8-1.3-1.6-1.8-1.8
	c-0.5-0.3-1.2-1.9-1.4-3.6s0.6-4,1.9-4.8c1.3-0.9,4.1-1.6,6.3-1.6h4.4c2.1,0,4.8,0,6.1-0.1c1.3-0.1,2.6,0.3,3.2,0.6
	c0.5,0.4,1.9,0.8,3,0.8c1,0,3.1-0.8,4.5-1.7C605.2,804.7,607,802.9,608.1,801.6z"/>
<path class="st0" d="M646.4,831c-1-0.4-2.6-0.9-3.5-1.2c-0.9-0.3-2.3-0.3-3.1,0s-1.7,0.4-1.9,0.1c-0.3-0.3-2.1-0.3-3.9,0.1
	c-1.8,0.3-3.4,0.6-3.5,0.9s-0.4,0.6-0.6,0.9s-0.5,1-0.4,1.7c0.1,0.6,0.6,0.4,1.2-0.4c0.5-0.9,1.6-1,2.3-0.4c0.8,0.6,1.7,0.9,2.2,0.5
	c0.5-0.4,1-0.5,1.3-0.4s1,0.5,1.9,0.6s1.7,0.4,1.9,0.5c0.3,0,0.5-0.1,0.5-0.4s0.8-0.4,1.7-0.1c0.9,0.3,3,1,4.7,1.9
	c1.7,0.9,2.6,0.4,2.1-1C648.6,832.8,647.4,831.4,646.4,831z"/>
<path class="st0" d="M624.1,833.2c-0.4-0.1-0.9-0.6-1.2-1c-0.3-0.4-1-0.8-1.8-0.8s-2.3,0.3-3.4,0.6c-1,0.4-0.9,1.7,0.5,2.7
	c1.4,1,3.4,1.2,4.5,0.3C624,834.3,624.5,833.5,624.1,833.2z"/>
<path class="st0" d="M678,850.3c-0.3-0.6-0.4-1.2-0.3-1.3c0.1-0.1-0.1-0.3-0.5-0.3c-0.4-0.1-1.2,0.1-1.7,0.5c-0.5,0.4-0.8,0.8-0.4,1
	c0.3,0.3,0.5,0.8,0.5,1.2c0,0.4,0.1,1.3,0.4,1.8c0.3,0.5,0.8,0.9,1.2,0.6c0.4-0.3,0.8-0.8,0.9-1c0.1-0.3-0.1-0.6-0.3-0.9
	c-0.3-0.1-0.3-0.3,0-0.3s0.5,0,0.5,0s0-0.1-0.1-0.3c-0.1-0.1,0-0.1,0.1-0.3C678.4,851.5,678.2,850.9,678,850.3z"/>
<path class="st0" d="M674.1,854.6c0.1,0.6,0.4,1.8,0.4,2.6s0.5,0.9,1,0.3c0.5-0.6,0.4-1.8-0.4-2.6C674.4,854,674,853.9,674.1,854.6z
	"/>
<path class="st0" d="M653.4,865.2c0.1,0.4,0.1,0.9,0.1,1.2c0,0.1,0.6-0.4,1.3-1.3c0.6-0.9,1.3-2.3,1.4-3.1c0.1-0.8-0.4-0.5-1.3,0.5
	C654.1,863.5,653.4,864.8,653.4,865.2z"/>
<path class="st0" d="M532.6,867.5c-0.1-1.6-1.3-2.8-2.7-2.8c-1.4,0-3.9-0.4-5.4-0.8c-1.6-0.4-2.8-1-2.8-1.6c0-0.4-0.3-1-0.8-1.2
	c-0.4-0.3-0.9-0.9-0.9-1.6c0-0.6-1.7-1.4-3.5-1.8c-1.8-0.4-4.1-0.8-5-0.8c-0.9,0-2.1-0.5-2.7-1c-0.6-0.5-1.4-0.4-1.9,0.3
	c-0.5,0.6-1.6,1.6-2.3,1.9c-0.8,0.4-3.1,0.5-5.2,0.3l-2.3-0.3c-2.1-0.1-4.4-0.9-5.2-1.6c-0.6-0.6-1.6-1.6-1.9-1.9
	c-0.4-0.4-0.9-0.6-1.3-0.5s-1.4,0.1-2.5-0.1c-1-0.3-2.8-0.8-4-1.2c-1.2-0.4-2.3-0.5-2.6-0.3c-0.3,0.3-0.9,0.3-1.4,0.1
	c-0.5-0.1-1.7-0.4-2.6-0.4c-0.9-0.1-2.2,0.1-2.6,0.4c-0.4,0.3-1.2,1.2-1.3,1.8c-0.3,0.6-0.5,1.2-0.8,1.2c-0.1,0-0.6,0.5-1.2,1.2
	c-0.4,0.6-1.2,1.2-1.6,1c-0.4-0.1,0.6,0.1,2.3,0.3s3.7,0.5,4.5,0.6c0.8,0.3,1.3,0.8,1.2,1.4s0.4,1.3,1,1.6c0.6,0.3,2.3,0.6,3.6,0.9
	s3.1,0.8,4.1,1.2c1,0.4,2.8,0.8,3.9,0.8c1.2,0,2.7-0.1,3.4-0.4c0.8-0.1,2.1-0.1,2.8,0c0.8,0.1,2.8,0.6,4.5,1.2s4.4,1.3,6.1,1.9
	s4.3,1.2,5.6,1.2c1.4,0.1,3.4,0.1,4.4,0.3c1,0,3.2,0.1,5,0.1s4.7,0.4,6.5,1c1.8,0.5,4.1,1.2,5.2,1.3c1,0.1,1.7,0.1,1.2-0.3
	C532.8,870.6,532.7,869,532.6,867.5z"/>
<path class="st0" d="M593.8,868.3c-0.3,0-1.3,0.5-2.5,1.3c-1.2,0.8-2.6,1-3.2,0.8s-1.8-0.4-2.5-0.3c-0.6,0.1-3-0.3-4.9-0.9
	s-4.8-0.8-6.2-0.5s-2.6,1.4-2.5,2.3s1.4,1.7,3.1,1.7c1.6,0,3.1-0.1,3.2-0.3s0.5,0,0.6,0.3s1.2,0.4,2.1,0.3c0.9-0.1,1.8-0.3,2.2-0.4
	c0.3-0.1,0.8-0.1,1,0.1c0.3,0.1,0.8,0.3,1.2,0.1c0.4-0.1,2.3-0.6,4.3-1.3c1.9-0.6,3.7-1.6,4-2.1C594,868.8,594.1,868.3,593.8,868.3z
	"/>
<path class="st0" d="M569.1,877.2c-2.1,0.4-2.5,1.2-0.8,1.8c1.7,0.6,3.9,1.8,5,2.6c1.2,0.8,2.8,0.9,3.6,0.4c0.9-0.6,0.4-2.1-1.2-3.2
	C574.4,877.4,571.5,876.8,569.1,877.2L569.1,877.2z"/>
<path class="st0" d="M464.6,849.8c1.2,0.5,2.2,0.9,2.3,0.8c0.1,0,0.3-0.1,0.1-0.3s0-0.5,0.3-1c0.3-0.5,1.2-0.3,2.1,0.6
	c0.9,0.8,1.7-0.3,1.9-2.3l0.3-2.6c0.3-2.1,0.4-4.9,0.5-6.2s0-2.7-0.1-3.1c-0.1-0.5,0-1.3,0.4-1.9c0.4-0.6,0.1-2.1-0.5-3.2
	c-0.6-1.2-1.6-2.6-2.1-3.1c-0.5-0.5-1.3-1-2.1-1.2c-0.8-0.1-1.4-0.1-1.7-0.1c-0.3,0-0.5,0-0.8-0.1s-0.9,0.5-1.7,1.6
	c-0.8,1-1.2,1.2-1,0.4s0.6-1.8,1.2-2.5c0.5-0.6,0.6-1.3,0.1-1.6c-0.5-0.3-0.9-0.4-1-0.3c-0.1,0.1-0.4,0-0.5-0.1s-0.5-1.7-0.9-3.4
	c-0.3-1.7-1.4-3.1-2.3-3.1c-1,0-2.5-0.4-3.2-0.9c-0.8-0.5-1.6-1.6-1.7-2.2c-0.1-0.6-0.3-1.4-0.4-1.6c-0.1-0.1,0.1-0.5,0.4-0.9
	s0.1-0.5-0.3-0.4c-0.4,0.1-0.3-0.3,0.3-0.6c0.6-0.5,0.9-1.7,0.6-2.7c-0.3-1-2.1-1.4-4-0.9c-2.1,0.5-2.7,0.3-1.4-0.4
	c1.2-0.8,1.6-1.6,0.6-1.8c-0.9-0.3-1.7-0.6-1.8-0.8s0.5-0.1,1.6-0.1c1,0,1.2-0.3,0.3-0.8c-0.9-0.5-1.7-1-1.9-1s-0.4,0.3-0.5,0.6
	s-0.5,0.3-1.2-0.3c-0.5-0.5-1.6-1.7-2.1-2.5c-0.6-0.9-2.1-2.1-3.1-2.7c-1-0.6-2.6-1.8-3.4-2.6c-0.8-0.8-1.3-0.6-1.3,0.3
	c0,0.9-0.9,0.9-1.9-0.1c-1-1-2.3-2.2-3-2.5c-0.6-0.4-1.3-0.8-1.6-0.9s-0.8-1.2-1.3-2.2s-1.9-2.6-3.1-3.5c-1.3-0.8-3.7-2.3-5.7-3.4
	c-1.9-1-3.5-2.6-3.6-3.5c-0.1-0.9-0.4-1.6-0.6-1.6s-0.5-0.3-0.5-0.6c0-0.4-0.4-1-0.6-1.6s-1.3-1.3-2.2-1.7c-0.9-0.4-1.9-0.8-2.5-0.8
	s-1.3-0.1-1.8-0.1c-0.5-0.1-1.9-0.3-3.2-0.3s-3.4-0.6-4.8-1.4c-1.3-0.8-2.6-0.1-2.8,1.3s0.8,3.9,2.3,5.4l1.4,1.6
	c1.4,1.6,3.6,3.2,4.8,3.9c1.2,0.5,2.6,1.8,3.2,2.7c0.6,0.9,1.7,2.2,2.3,2.8c0.6,0.8,1.6,2.1,1.8,3.1c0.3,1,0.9,1.8,1.2,1.8
	s1,0.4,1.6,0.6s1.7,1,2.7,1.7c1,0.6,1.8,1.4,1.8,1.8c0,0.4,0.5,2.3,1.2,4.1c0.6,1.8,1.9,4.1,2.8,5.2c0.9,0.9,2.2,2.6,3,3.6
	c0.8,1,2.2,3,3.2,4.4c1,1.4,1.9,2.8,1.9,3.1c0.1,0.4,0.5,1,0.8,1.6c0.4,0.5,1,1.9,1.6,3.1c0.5,1.2,1.9,3.5,3.2,5.3l2.1,2.6
	c1.3,1.7,3,3.5,3.6,3.9c0.6,0.4,1.4,1.4,1.7,2.1c0.3,0.6,1.3,2.1,2.5,3c1,0.9,3.1,2.5,4.4,3.4c1.3,0.9,3.2,2.2,4.1,3
	c0.9,0.8,2.8,2.3,4.1,3.6c1.3,1.3,2.2,1.7,1.9,0.9C462.8,849.4,463.4,849.3,464.6,849.8z"/>
<path class="st0" d="M507.9,667.4c0.1,0,0.4-0.4,0.4-0.8c0-0.5-0.4-1.4-1-2.1c-0.6-0.6-1.2-0.9-1.3-0.4c-0.1,0.5-0.5,0.9-0.9,0.9
	s-1-0.3-1.4-0.5c-0.4-0.3-0.8-0.4-0.9-0.3c-0.1,0.1-0.5,0.4-0.9,0.5c-0.4,0.3-0.9,0.4-1.2,0.3c-0.3,0-0.5-0.1-0.5-0.3
	s-0.5-0.1-1.2,0.1c-0.6,0.1-0.9,0.4-0.8,0.5s-0.3,0.4-0.9,0.5c-0.6,0.3-1.8,0.9-2.7,1.6c-0.9,0.6-1.9,2.1-2.3,3.2
	c-0.4,1.2-0.3,2.8,0.4,3.9c0.6,1,1.9,2.2,3.1,2.6c1.2,0.4,2.1,0.6,2.2,0.5c0.1,0,0.3,0,0.3,0.3s0.1,0.1,0.4,0c0.3-0.3,0.9-0.6,1.7-1
	c0.6-0.4,1.2-0.6,1-0.5s0,0.1,0.1,0.1c0.3,0,0.9-0.5,1.4-1c0.6-0.5,1.3-1.4,1.6-1.8c0.3-0.4,0.5-1.2,0.8-1.8c0.1-0.5,0.1-1-0.1-1
	s0.3-0.8,1-1.7C506.8,668.3,507.7,667.4,507.9,667.4z"/>
<path class="st0" d="M632.9,512.9c-1,1.6-1,3.6-2.7,4.5c-0.9,0.5-3.2,0.1-4.1,0.1c-2.6,0-5.7,1.4-5.7,4.4"/>
<path class="st0" d="M221.4,522.4c0-0.3-7.4-4.4-13.3-1.3c-2.5,1.3-4.9,2.5-6.2-0.5c-1.8-4.4-8.4-0.8-8.4-1c0.1-0.6,1-3.1,0.9-3.4
	c-0.3-0.6-4.1-2.3-5-2.6c-1-0.3-1.7,0.1-2.8-0.3c-1.7-0.6-3.4-2.5-4.9-3.5c-1.3-0.9-2.7-2.2-4-2.8c-0.1,0-1.3,0-1.7-0.3
	c-0.9-0.4-1.8-1.3-2.6-1.9c-2.5-2.2-7.5-4.7-8.8-7.6c-0.4-0.8,0-1.6-0.3-2.3c-0.5-1.2-1-1.2-1.6-1.9c-0.9-1.6-0.8-3.2-1.6-4.7
	c-0.6-1.2-2.1-2.8-3.6-2.8c-0.6,0-0.5,0.9-0.9,1c-0.5,0-1.3-0.3-1.8-0.3c-1.6,0.1-3.9,0.3-5.7-0.8c-2.3-1.4-0.9-1-0.9-2.6
	c0-1,0-1,0-1c0.3-0.4,0.3-1.2-0.1-1.6c-0.4-0.5-1.2-1.8-0.6-2.6c0,0,0,0-0.1-0.4c-0.6-1.9-2.7-0.8-4-1.2c-1.7-0.5-1-1.3-2.2-2.1
	c-0.6-0.5-1.2,0.1-1.8-0.4c-1-0.8-1-0.8-1-0.8c-0.8-1-2.5-1.9-3.7-1.9c0,0,0,0-0.9,1.6c-0.3,0.4,2.2,2.2,2.3,3.1
	c0.3,1-1.4-1.3-1.8-1.4c-0.8-0.3-1.4-0.4-2.2,0.3c-0.3,0.3-0.3,2.2-0.6,2.5c-1.3,1-3.1,0.1-4.7,1.4c-1.4,1.3-1.2,2.6-1.2,2.6
	c0.5,2.1-0.8,3.9-2.8,4.1c0,0-2.5,0.3-4.7,0.1"/>
<path class="st0" d="M118.3,485.1c0-6.7,0-13.4,0-20c0-3.5,0-7,0-10.5c0-1-0.5-4.7,0-5.4c0.4-0.5,2.5-0.8,3-1
	c3.7-1.2,7.5-2.5,11.2-3.6c3.7-1.2,4.5-0.9,7.9,1.4c4.1,2.7,10.7,5.6,14,9.3c1.9,2.2,3.5,6.7,6.3,8.4c2.1,1.2,5.8-0.5,8.3-0.8
	c2.6-0.1,5.3,0.5,7.9,0.5c1.6,0,3.9-1.8,4.9-1.6c3.9,0.6,6.3,4,6.3,4c1.3,1.7,1.9,4.8,1.6,7c0,0-0.8,3.7,0.1,5.2
	c0.8,1.2,2.7,0.1,3.6,1.3c1.2,1.4-0.3,5.6,1.3,7c0.9,0.9,2.3,0.4,3.5,0.4c1.7-0.1,1.7-0.1,1.7-0.1c2.1-0.1,4,0.4,4.1,0.6
	c0.1,0.3,0.6,0.4,0.6,0.3c0.1,0,0,1-0.3,1.6c-0.3,0.4,0.8,1.9,2.5,3.2c0,0,0.4,0.4,1.4-0.5c0.5-0.5-0.5-1.6-0.4-2.3
	c0.1-0.6,0.9-1.6,1.6-2.2c0.5-0.5,1.4-0.6,1.8-1.2c0.3-0.3,0.1-1.4,0.1-1.4c0.6-0.6,0.6-0.6,0.6-0.6c1-0.3,2.8-1.2,4-2.1
	c0,0,0,0,1.2-0.6c1.2-0.6,1.8-1.8,3-2.6c0.5-0.4,0.8-0.9,1.4-1.3c0.3-0.1,0.4,0.9,0.8,0.8c1.3-0.6,1-1.8,2.7-2.2
	c0,0-0.4,7.1,1.6,7.8c1.9,0.6,1.6,1.4,1.6,1.4s-2.3,2.5-2.3,3.4c0,0.9,6.5,1.4,5.2,3.6s-1.3,2.2-1.3,2.2l-1,1.9l0.6,2.2l1.8,3.5
	l2.2,1.7"/>
<g>
	<path class="st0" d="M118.3,485.1c-2.5,0.3-3,0.9-4.8-0.9c-1.8-1.8-2.3-4.3-4.1-6.1c-5.4-5.3-12-1.7-16.4,2.8"/>
</g>
<path class="st0" d="M349.8,615.9"/>
<polyline class="st0" points="71.1,817.1 71,816.9 70.8,816.9 70.8,816.8 70.8,816.7 70.7,816.7 "/>
<path class="st0" d="M71.1,817.3"/>
<path class="st0" d="M70.7,817.7"/>
<path class="st0" d="M245.6,502.4c0,0,0,0.1-0.1,0.3c-0.1,0.1-1.2,0.8-2.5,1.4c0,0,0,0-1,0.1c-1.4,0.1-3.5-0.6-5.2-0.5
	c-3.4,0.3-6.6,0.8-8.9,2.3c-0.8,0.5-1.7,1.7-2.2,2.1c-0.1,0-0.8-0.4-1.3,0c-0.1,0.1-1.4,1.3-1.6,1.6c-1.4,2.1-0.9,0.5,0,2.3
	c0.5,1.2,0.8,1.9,1,2.8c0.8,2.8,1,3.7-1.2,6.2c-0.6,0.8-2.6,2.8-2.6,3.4c-0.1,0.9,1,1.3,1,2.3c0,0.9-0.1,1.3-0.6,1.8
	c-2.2,2.1-9.4-2.1-7.6,2.1c0.3,0.6,1,0.4,1.3,1c0.4,0.6,0.1,0.9,0.3,1.6c0.1,0.5,1.2,0.6,0.9,1.4c-0.1,0.4-1.9,1.6-2.2,1.7
	c-2.5,1-2.6-0.3-3.6,2.3c-0.5,1.2-1.3,2.5-1.7,3.9c-0.5,2.2,1.6,4.1-1.2,5.8S204,550,204,550c-1.2-1.3-1.8-2.3-1.7-2.3
	c0.1,0-0.1,0-1-0.3c0,0,0,0-0.6,0.1c-0.6,0.1-0.5,0.1-1.3,0.5c-1.2,0.5-1.2,0.5-1.2,0.5c-1.3,0.6-2.3,1.4-2.2,1.7
	c0.1,0.3-0.5,0.8-2.6,0.9c0,0-1.2,0.1-2.3,0.4c-1.8,0.5-4.3,3.9-4.5,5.7c-0.1,1.3-0.1,1.7-0.1,1.7c0.3,2.1-1,4.5-3,5.4
	c0,0-1,0.5-3.1,1c-2.1,0.6-3.7,0.4-5.8,0.5c-1.2,0.1-2.2,0.6-3.1,0.9c-0.9,0.1-1.6,0.1-3-0.1c-4-0.6-7.6,0.9-11.6-0.3
	c-3-0.9-5.3-5-8.3-6.1"/>
<path class="st1" d="M206.3,634.9c0,0,0.1-0.1,0.4-0.4c0.1-0.3,0.4-0.4,0.5-0.5c0.1-0.1,0.8-0.1,1.6-0.1c0.8,0,1.6-0.5,1.8-1
	c0.3-0.5,1.7-1,3.4-0.9c1.6,0,4.4-0.3,6.2-0.8c1.8-0.5,4.1-0.8,5.2-0.8s1.7-0.3,1.4-0.5c-0.3-0.3-0.5-1.2-0.5-1.9
	c0-0.8-0.5-2.2-0.9-3.1c-0.5-0.9-0.9-2.1-1-2.6c-0.1-0.5-0.4-1-0.8-1.3c-0.4-0.1-1.2-0.6-1.8-1c-0.6-0.4-1.3-1.2-1.3-1.8
	c0-0.6,0-1.8,0.1-2.7s-0.9-1.9-2.2-2.3c-1.3-0.4-1.6-2.3-0.6-4.3l0.8-1.6c0.9-1.9,2.3-3.9,3-4.4c0.6-0.5,1.6-0.6,2.1-0.1
	c0.4,0.5,2.3,0.8,4.3,0.6c1.9-0.1,4.5-1.7,5.7-3.4l0.1-0.1c1.3-1.7,3.2-3.7,4.5-4.5c1.3-0.8,2.8-2.3,3.4-3.5
	c0.5-1.2,1.3-2.7,1.7-3.6c0.4-0.9,1.2-1.8,1.9-2.2c0.8-0.3,1.6-1.2,1.7-1.8c0.1-0.6,1.4-2.5,3-4l0.4-0.5c1.4-1.6,2.6-3.2,2.3-3.9
	c-0.3-0.6-0.5-1.8-0.5-2.7c-0.1-0.9,0.5-2.2,1.6-2.8c1-0.6,2.1-1.9,2.6-2.7c0.5-0.8,0-2.3-1-3.4s-2.6-1.9-3.2-2.1s-1.7-0.6-2.2-1.3
	c-0.5-0.6-0.9-1.6-0.8-2.1c0.1-0.5,0.3-1.3,0.3-1.8c0.1-0.5-0.1-1-0.4-1.2s-0.4-0.8-0.4-1.2c0.1-0.5,0.3-1.2,0.5-1.6
	c0.3-0.4,0-0.9-0.5-1.2c-0.5-0.3-0.9-0.8-0.9-1.3s0-1.2-0.3-1.4s0.5-1.2,1.6-2.1c1-0.8,3.5-1,5.6-0.5c2.1,0.5,4.9,0.8,6.3,0.5
	c1.4-0.3,3.7-1,5.2-1.7c1.4-0.6,2.8-1.4,3.2-1.7c0.4-0.3,0.4-1.7-0.1-3.1c-0.5-1.4-0.9-2.6-0.9-2.6l5.2,0.8c2.1,0.3,4.1,1.8,4.4,3.4
	c0.3,1.6,1.6,3.5,2.6,4.5c1.2,1,1.9,2.6,1.9,3.4c-0.1,0.9,0.1,2.8,0.5,4.5c0.4,1.7,1.3,3.4,2.1,3.9c0.8,0.5,1.7,1.7,1.9,2.6
	s-0.4,2.3-1.7,3.2c-1.3,0.9-2.5,1.2-2.6,0.6c-0.1-0.5-0.9-0.8-1.6-0.6c-0.6,0.1-1,0.9-0.9,1.7c0.1,0.8,0.3,1.4,0.3,1.4l0,0
	c0,0,0.5,1,1,2.3c0.5,1.3,1.4,3,1.8,3.7s1.7,2.1,2.6,2.8c1,0.8,3,2.2,4.3,3.1s3.7,2.5,5.3,3.2c1.6,0.8,3,1.6,3,1.6s-0.1,0-0.4,0
	s-1.3,0.9-2.2,2.1c-1,1.2-2.1,2.8-2.2,3.6c-0.3,0.8-0.8,2.2-1.2,3.2c-0.4,1-0.1,2.3,0.8,3.1c0.9,0.8,2.8,1.9,4.3,2.6
	s3.9,1.8,5.6,2.6c1.6,0.8,2.8,1.4,2.8,1.4h0.1c0,0,0.5,0.4,1,0.8c0.6,0.4,1.6,0.8,2.2,0.8c0.6,0.1,1.3,0.5,1.4,0.9
	c0.1,0.4,0.8,0.9,1.4,1c0.6,0.1,1.7,0.3,2.2,0.4c0.5,0.1,1.8,0.3,2.8,0.4c0.9,0.1,1.7,0.1,1.7-0.1s1.3,0.1,2.8,0.8
	c1.6,0.6,2.8,1.3,2.8,1.6s0.1,0.5,0.4,0.6c0.3,0.1,0.6,0.3,0.9,0.4c0.3,0,0.9,0.3,1.4,0.6c0.5,0.3,1.3,0.6,1.7,0.9
	c0.4,0.3,0.9,0.3,1.3,0.1c0.4-0.1,1,0.1,1.7,0.6c0.5,0.5,1.8,0.9,2.8,0.9c1,0,3,0.1,4.4,0.1s3.6,0.4,4.8,0.6
	c1.2,0.4,2.8,0.5,3.7,0.3c0.8-0.3,1.6,0.3,1.7,1c0.1,0.8,0.5,1.6,0.8,1.8c0.3,0.3,0,0.9-0.6,1.4c-0.6,0.5-1,1.7-0.6,2.5
	s1.6,2.5,2.8,3.6c1.2,1.3,1.7,2.2,1,2.2c-0.6,0-1.6,0.3-1.9,0.8c-0.4,0.4-1.3,1.3-1.9,1.9s-0.1,1.8,1.3,2.7s2.3,2.3,2.1,3.2
	c-0.1,0.9-0.1,2.3,0.1,3.1c0.3,0.8,0.8,1.9,1.2,2.6c0.4,0.6,0.8,2.8,1,4.9l0.4,4.4"/>
<path class="st0" d="M298.2,583.9c0,0,0.6-0.1,1.3-0.4c0.8-0.3,2.5-0.5,3.9-0.5c1.4-0.1,2.7,0.4,3,1c0.3,0.6,1,1.4,1.6,1.7
	c0.6,0.3,1.9,1.2,3.1,1.9c1,0.8,2.2,1.6,2.6,1.6c0.4,0.1,0.9,0.5,1.3,1c0.3,0.4,1.4,0.9,2.5,1s2.6,1,3.2,1.9
	c0.6,0.9,2.2,2.3,3.4,3.1c1.2,0.8,2.6,1.3,3,1.2c0.5-0.1,0.8,0.4,0.6,0.9c-0.1,0.5,0.6,1,1.9,0.9s2.7,0.6,3.5,1.7
	c0.8,1,1.6,1.3,1.7,0.8c0.3-0.6,0.8-0.6,1-0.3c0.3,0.4,0.9,0.5,1.4,0.1c0.4-0.4,2.1-0.1,3.7,0.4c1.7,0.5,3,1.2,2.8,1.2
	s1.2,0.1,2.6,0c1.4-0.1,2.7-0.3,2.7-0.3l5.6,4.4c0,0,0.1,0,0.4,0s1.2-1.4,2.2-3c1-1.7,3.5-3.2,5.7-3.5h0.3c2.1-0.3,3.6-0.3,3.4,0
	s0.6,0.6,1.9,0.8s3.1,0.6,4.1,1.3c1,0.6,1.8,1,1.8,1s1-0.1,2.2-0.4c1.2-0.3,2.3-0.3,2.5-0.1c0.1,0.1,0.9-0.1,1.7-0.8
	c0.8-0.5,1.6-1.3,1.8-1.6c0.3-0.3,0.9-1,1.7-1.7c0.6-0.6,2.5-1.8,3.9-2.5c1.4-0.8,3-1.6,3.2-1.7c0.4-0.1,0.9-0.5,1.3-0.6
	c0.4-0.1,0.8-0.5,0.8-0.9c0-0.3,0.5-0.9,1.2-1.4c0.6-0.5,1.7-0.5,2.6-0.1c0.9,0.4,1.4,0.5,1.4,0.5c-0.1-0.1,0.4,0,1,0.3
	c0.6,0.3,1.4,0.3,1.8-0.1c0.3-0.3,0.6-0.4,0.6-0.3s0.3,0,0.5-0.3c0.3-0.3,0.6-0.6,1-0.8c0.3-0.1,0.9-0.4,1.3-0.4
	c0.4-0.1,0.8-0.3,0.8-0.3l0.9-0.1c0,0,0.4,0.1,0.9,0.4s0.8,0.8,0.4,1.4c-0.4,0.6-0.3,0.9,0,0.8s0.9,0.3,1.4,0.9
	c0.4,0.6,0.6,1.9,0.5,2.7c-0.1,0.9,0.4,1.6,1.2,1.6c0.8,0,2.1,0.4,3,0.8c0.9,0.4,1.6,0.8,1.6,0.8s0.4-0.6,0.8-1.3
	c0.4-0.8,1.6-0.8,2.3-0.3c0.9,0.5,1.8,1.6,2.1,2.3c0.3,0.6,0.9,1.8,1.6,2.5c0.6,0.6,1.6,2.5,2.2,4.1c0.6,1.6,1,4.5,0.8,6.3
	c-0.1,1.8-0.4,3.9-0.4,4.5s-0.4,1.3-0.8,1.6c-0.4,0.3-1.2,0.5-1.7,0.8c-0.5,0.1-1.6,0.9-2.1,1.7c-0.6,0.8-1.3,1.9-1.6,2.6
	s-0.4,1.4-0.3,1.7c0.1,0.3-0.1,0.6-0.4,0.6s-0.6,0.6-0.8,1.2s-0.1,1.2,0.1,1.3c0.1,0.1,0.4,0.5,0.4,0.8s-0.1,1.2-0.4,1.9
	c-0.3,0.8-0.3,1.7,0,1.9c0.3,0.3,1.3-0.1,2.5-0.6c1.2-0.5,3.1-1.2,4.4-1.2s2.3,1.3,2.3,3.1s0,3.5,0,3.7c0,0.3,1.2,1,2.5,1.6
	c1.3,0.5,2.2,1,1.9,0.9s-0.6,0.9-1,2.1c-0.3,1.2-0.3,2.5,0.1,3.1c0.4,0.6,1.3,1.2,2.1,1.3c0.8,0.1,1.9,0.9,2.6,1.8
	c0.6,0.9,1.2,1.9,1.4,2.3c0.1,0.4,0.8,0.8,1.4,0.8s2.1-0.1,3.2-0.4c1.2-0.3,2.2-0.4,2.2-0.4s0.1,0.4,0.3,0.9s0.6,1,1.3,1.2
	c0.6,0.1,1.6,0.3,2.2,0.1c0.6,0,1-0.6,0.9-1.3c-0.1-0.6-0.3-1.7-0.3-2.1c0-0.4-0.3-1.7-0.5-2.7c-0.3-1-0.1-2.1,0.3-2.5
	c0.4-0.3,1.3-0.5,1.8-0.4c0.5,0.1,1.2,0.1,1.2,0.1s0.5-0.6,1-1.3c0.5-0.6,1.8-1,2.6-0.6c0.9,0.4,2.1,0.5,2.8,0.4
	c0.6-0.1,1.8-0.3,2.5-0.3s1.3-0.1,1.3-0.5c0.1-0.3,0.5-0.3,0.9-0.1s1,0.6,1.3,1c0.4,0.3,1,0,1.6-0.6c0.5-0.6,1.8-1.2,2.7-1.3
	c0.9-0.1,2.5-0.8,3.4-1.7c0.9-0.9,2.2-1.4,3-1c0.8,0.4,2.2,0.8,3.2,1c1,0.3,2.2,0.6,2.7,0.9c0.4,0.3,1.2,0.4,1.7,0.3
	c0.5-0.1,1.3,0,1.8,0.3c0.5,0.3,0.5,1.3,0,2.2c-0.5,0.9-0.8,2.3-0.5,3.1s1.4,1.9,2.7,2.7c1,0.5,2.6,1.2,3.9,1.6"/>
<path class="st0" d="M343.5,407.3c0,0-0.9,0.8-2.1,1.6c-1.2,0.9-3.1,2.5-4.4,3.6c-1.3,1-3.1,3-4.3,4c-1,1.2-1.9,3.4-1.8,4.8
	c0,1.4-0.1,3.7-0.3,5.2s-0.9,2.7-1.8,3.1c-0.8,0.3-2.1,0.9-2.8,1.2c-0.6,0.4-1.9,0.3-2.7-0.3c-0.8-0.5-2.7-1.2-4.4-1.4
	c-1.7-0.3-3.7-0.5-4.8-0.6c-0.9-0.1-2.1,1.3-2.6,3c-0.5,1.7-1.3,4.9-1.9,7l-0.8,3.1c-0.5,2.1-0.5,4,0,4.4c0.5,0.4,0.8,1.2,0.5,1.8
	c-0.3,0.6-0.9,0.9-1.6,0.6c-0.5-0.3-1.6-0.4-2.2-0.3c-0.6,0.1-1.8,0-2.6-0.3c-0.8-0.4-3-0.1-4.9,0.4c-1.9,0.5-4.3,1.2-5.2,1.4
	s-1.4,0.9-1,1.4s0.9,1.4,1.2,2.1c0.3,0.5,0.4,2.1,0.3,3.5c-0.1,1.3,0.3,3.4,0.8,4.7c0.5,1.3,1,3,1.2,4c0.1,0.9,0.4,2.1,0.6,2.5
	c0.3,0.4-0.3,1-1,1.6c-0.8,0.5-1.3,1-0.9,1.4s0.4,0.8-0.1,0.9c-0.4,0.1-1,0.9-1.3,1.6c-0.4,0.8-0.5,2.1-0.4,3
	c0.1,0.9,0.1,1.7,0.1,1.7s-0.6,0.4-1.3,0.9c-0.6,0.5-2.1,1.4-2.8,1.9c-0.8,0.5-3,1.8-4.7,2.6c-1.7,0.8-3.5,2.1-4,2.6
	c-0.5,0.5-1.7,1.4-2.6,1.9c-0.9,0.5-3.2,0.9-5.2,1.2c-1.9,0.1-4.4,1.7-5.4,3.4c-1,1.7-2.6,3.1-3.5,3.2s-2.1-0.3-2.6-0.9
	c-0.5-0.6-1.7-0.9-2.7-0.8c-1,0.3-2.2,0.6-2.7,1c-0.5,0.4-1.8,1.2-2.8,1.7c-1.2,0.6-2.6,1.4-3.4,1.7c-0.8,0.4-1.8,1.7-2.5,3
	s-1,2.3-1,2.3s0.1,0.8,0.4,1.8c0.1,1,0.4,2.1,0.6,2.3c0.3,0.3,0.1,0.8,0,1.2c-0.1,0.4,0,1,0.3,1.7c0.3,0.6,0.9,1,1.3,0.8
	c0.4-0.1,1.9,0,3.5,0.5c1.4,0.4,2.6,1.6,2.5,2.5s0,2.2,0.3,2.8c0.1,0.5,0.8,1.9,1.3,3.1c0.5,1.2,0.5,2.3,0,2.7c-0.5,0.4-1,0.8-1,0.8
	l-2.5,1.8c0,0,0.5,0.3,1.2,0.5c0.6,0.3,2.1,0.9,3.2,1.3c1.2,0.4,2.6,0.9,3.2,1c0.6,0.1,1.4,0.9,1.8,1.9c0.4,0.9,0.9,2.5,1.2,3.2
	c0.3,0.9,0.6,1.8,0.8,2.2c0.1,0.4,0.5,0.5,0.9,0.5c0.4,0,0.9-0.3,1.3-0.4c0.4-0.1,1,0.3,1.6,0.8c0.4,0.6,0.8,1.2,0.8,1.2"/>
<path class="st0" d="M553.1,401.2c-0.9,1.9-4.3,8.4-4.9,10c-0.6,1.4-1.2,3.2-1.2,3.9c0,0.6-0.3,1.4-0.6,1.7
	c-0.4,0.3-0.8,1.2-0.8,1.9s1.2,1.6,2.6,1.7c1.6,0.1,3.9,0.4,5.3,0.5c1.4,0.1,3.5,0.1,4.5,0c1-0.1,2.8-0.6,3.9-1.2
	c1.2-0.5,3-0.4,4.1,0.4c1.2,0.8,3.2,2.6,4.7,4.3l3.1,3.4c1.4,1.6,0.9,3.2-1,3.7c-1.9,0.5-4.9,1-6.5,1.2c-1.6,0.1-3.5,0.6-4.3,1
	s-1.9,0.6-2.5,0.5c-0.5-0.1-2.1,0.3-3.2,0.8c-1.2,0.5-3.1,2.2-4.3,3.6c-1,1.4-2.7,3.2-3.6,4.3c-0.9,0.9-2.6,2.1-3.7,2.5
	c-1.2,0.4-3,0.6-4.1,0.6s-2.8,0.8-3.7,1.9c-0.9,1.2-2.5,2.6-3.6,3.4c-1,0.8-3.6,0.9-5.7,0.4l-4.4-1.3c-2.1-0.6-4.4,0.5-5.3,2.5
	l-0.3,0.6c-0.9,1.9-0.8,4.7,0.1,6.1c0.9,1.3,0.9,3.1,0,4c-0.9,0.9-3,2.6-4.5,3.9c-1.6,1.3-3.7,3.1-4.9,4c-1.2,1-3.7,2.2-5.8,2.6
	l-3,0.6c-2.1,0.4-5.6,1.2-7.6,1.6l-11.6,2.5c-2.1,0.4-4.9,1.4-6.3,2.1c-1.4,0.6-3.2,1.4-3.9,1.7c-0.6,0.3-1.9,0-2.5-0.6
	c-0.5-0.6-2.5-0.8-4-0.5c-1.6,0.3-3.9,0-5-0.6s-3.7-1.7-5.8-2.2l-1.2-0.4c-2.1-0.6-4.4-1.7-5.3-2.5c-0.9-0.8-2.6-1.4-3.7-1.6
	c-1.2-0.1-3.9-0.3-6.1-0.3h-1c-2.1,0-5.6-0.3-7.8-0.5l-9.7-1c-2.1-0.3-5-0.3-6.5-0.1c-1.4,0.1-2.8-0.1-3.1-0.5
	c-0.3-0.4-1.2-1.8-2.2-3.1c-0.9-1.3-2.3-3.7-3.1-5.4c-0.8-1.7-1.6-3.7-1.6-4.5c-0.1-0.8-1.8-2.1-3.7-3l-10.3-4.3
	c-1.9-0.8-5.3-1.7-7.5-1.8h-0.3c-2.1-0.1-5.4-0.5-7.2-0.9c-1.9-0.4-3.7-1.3-4.1-2.1c-0.4-0.8-0.1-2.7,0.5-4.3c0.6-1.6,1-3.4,0.9-4
	c-0.1-0.6-0.3-1.6,0-2.1c0.1-0.5,0.3-1.6,0.4-2.3c0.1-0.8-0.4-2.2-1-3.1c-0.6-0.9-1.7-3.2-2.5-5c-0.8-1.8-1.7-3.6-2.2-4.1
	c-0.5-0.5-1.2-1-1.4-1.2s-0.6-0.1-0.9,0s-0.8,0-1.3-0.4c-0.5-0.4-1.2-0.9-1.8-1c-0.5-0.3-1.3-0.3-1.7-0.1c-0.4,0.1-1-0.1-1.3-0.4
	c-0.3-0.3-1.2-0.9-1.9-1.2c-0.8-0.3-1.4-1-1.7-1.6c-0.3-0.6-1-1.4-1.8-1.7c-0.6-0.4-1.4-1-1.6-1.4s-0.4-0.9-0.4-1.2
	s-0.3-0.6-0.6-0.8c-0.4-0.1-0.6-1.2-0.6-2.3c0-1.2,0-2.1,0-2.1l-3.5,0.9"/>
<path class="st0" d="M450.5,727.8c0-1-0.8-1.8-1-2.8c-0.1-0.6,0-2.6,0-2.8c-0.5-1-1.4-1.8-1.9-2.7c-0.9-1.9-0.8-2.2-0.8-2.2
	c0.9-1.9,2.3-5,3.4-7c0,0,0.5-1,1.9-1.8c2.3-1.3,5.3-0.5,7.5-0.6c0.6,0,3.1-0.3,3.6-0.3c1.6,0.1,2.6,2.1,3.5,0.6
	c2.8-0.4,2.8-0.9,2.8-0.9c0-2.1,0.4-5.3,0.9-7.1c0,0,0,0-0.5-2.1c-0.1-0.4-1.3-0.6-1.7-1c-0.8-0.8,0.3-0.8-0.4-1.4
	c-0.9-1-2.3-1-3.2-2.5c-0.8-1.4-1-1.7-1-3.4c0-1.4,0.9-3.1,0.3-4.5c-0.5-1.2-2.2-1.9-3.1-2.8c-0.9-1-1.7-3.2-2.8-4
	c-0.4-0.3-1-0.1-1-0.1c-2.1,0.3-4,0.6-4.3,0.8c-0.3,0.1-1,0.9-1,0.8c0,0-0.5,0.1-1.2,0.4c-0.6,0.3-2.3,1.6-3.1,1c0,0,0,0-1.2-0.6
	c-1.8-1-0.6-1.2-2.6-0.5c-1.4,0.4-1.4,0.4-1.4,0.4c-1.3,1.4-3.5,3.9-4.9,5.4c0,0-0.6,0.8-1.4-2.1c0-0.1,0.6-1.9,0.8-1.9
	c0.6-1.4,0.8-1.6,0.9-3.1c0-0.5-0.8-0.5-0.6-1.2c0-0.5,0.9-0.8,1-1.3c0.3-1,0.6-2.7,0.6-3.6c-0.3-3.1,0.1-3.9-3.1-3.5
	c-1,0.1-2.3,1.2-3-0.6c-0.4-1.3-0.4-1.3-0.4-1.3c0.8-1.4,1-3.4,0.5-4.1c-0.5-0.8-1.9,0.8-2.1,0.6c0,0,0,0-0.1-0.3
	c-1.4-1.9-1.4-1.9-1.4-1.9c-1.8,0.8-3.2,2.2-3.1,3.1c0,0,0,0-1.2,0.6c-0.3,0.1-1-0.8-1.6-0.3c-0.5,0.4-0.3,1.2-0.5,1.3
	c-1,0.8-0.5,0.9-1.9,1.3c-0.8,0.3-1.2,0.4-1.8,0.4c-2.3,0.3-3.1-1.3-4.3,1c-0.6,1.3-1,2.7-1.2,4c-0.1,0.9-0.1,0.9-0.1,0.9
	c-1.4,1.4-1.8,3.2-0.9,3.9c0,0,0,0,0.8,1.8c0.4,1-0.1,1.9,0,2.5c1.2,3.1,3.1,4.7,3.1,4.7c1.7,1.4,3.1,3.1,3.2,4s1,2.6,1.2,2.3
	c0.3-0.3,0.5-0.4,0.3,0.4c-0.3,0.8-1.6,2.7-1.6,3.9c0,1.2-0.4,3.1-0.6,3s-1.3,1.6-2.2,2.5c0,0,0,0,0.5,1.3c1.2,2.7,3.4,3.6,5,5.7
	c2.8,3.2,0.5,6.7,2.1,10c0.6,1.4,0.6,1.4,0.6,1.4c0.5,1.6,0.6,4.7,0.4,6.7c0,0-0.4,2.2-1.4,3.7c-0.5,0.8-1,1.3-1.4,1.9
	c-1.2,1.3-1.8,1.6-2.2,3.7"/>
<path class="st0" d="M604.3,497.8c0,0,0.9-0.8,1.9-1.8c1-1,3.1-2.5,4.7-3.1c1.6-0.8,3.4-1.7,4-2.1s1.9-1.7,3-2.8
	c1-1.2,1.8-2.1,1.7-1.9c0,0,0.3-0.8,0.6-1.8c0.4-1,1.6-1.6,2.5-1.2c1,0.4,1.7,0.8,1.6,0.9c-0.1,0.1,1.2,0.4,3,0.5
	c1.8,0.1,3.4,0.5,3.6,0.8c0.3,0.3,0.4-0.3,0.5-1.2s0.9-2.2,1.7-3c0.8-0.8,2.6-2.1,3.9-3s2.8-1.7,3.5-1.8c0.6,0,2.1-1.4,3.1-3.1
	c1.2-1.7,2.1-2.8,2.1-2.7s0.5,1.2,1.2,2.1c0.6,1,1.3,1.7,1.4,1.6c0-0.1,0.1-0.1,0.3,0.1c0.1,0.3,0.1,0.4,0.1,0.4"/>
<path class="st0" d="M591.8,911.2L591.8,911.2L591.8,911.2z"/>
<path class="st0" d="M556.1,868.1L556.1,868.1L556.1,868.1z"/>
<path class="st0" d="M653.2,862.1C652.9,862.2,652.9,862.2,653.2,862.1S653.3,862.1,653.2,862.1z"/>
<path class="st0" d="M664.2,849.7C664.2,849.9,664.2,849.9,664.2,849.7S664,849.4,664.2,849.7z"/>
<path class="st0" d="M665.6,849.9C664.9,851.3,664.9,851.3,665.6,849.9C666.2,848.6,666.2,848.6,665.6,849.9z"/>
<path class="st0" d="M662.9,849.7L662.9,849.7L662.9,849.7z"/>
<path class="st0" d="M660.7,849.1L660.7,849.1L660.7,849.1z"/>
<path class="st0" d="M677.5,857.3C677.3,857.7,677.3,857.7,677.5,857.3C677.6,857,677.6,857,677.5,857.3z"/>
<path class="st0" d="M673.3,856.9c-0.1,0.6,0.4,0.9,1,0.8c0.6-0.3,0.8-1.2,0.1-2.1c-0.6-0.9-0.9-1.2-0.6-0.5s0.3,1,0,1
	C673.7,855.9,673.5,856.2,673.3,856.9z"/>
<path class="st0" d="M674.2,852.9c-0.3,0,0,0.3,0.5,0.8c0.5,0.5,0.6,0.5,0.4,0.1C674.9,853.4,674.5,852.9,674.2,852.9z"/>
<path class="st0" d="M677.6,856.1C677.9,856.2,677.9,856.2,677.6,856.1C677.3,856.1,677.3,856.1,677.6,856.1z"/>
<path class="st0" d="M674.1,850.8L674.1,850.8L674.1,850.8z"/>
<path class="st0" d="M676.6,856.4L676.6,856.4L676.6,856.4z"/>
<path class="st0" d="M676.2,853.9c0.5,0.6,1,0.9,1.4,0.5s0.4-0.6,0.3-0.6s-0.3,0-0.3,0s-0.1-0.4-0.3-0.9s-0.1-0.6,0.1-0.6
	c0.3,0,0.5,0,0.5,0s0-0.1-0.1-0.3s0-0.1,0.1-0.3c0.1-0.1,0-0.5-0.3-1.2c-0.3-0.6-0.6-1.2-0.9-1.2s-0.9,0.1-1.6,0.4
	c-0.6,0.3-0.8,0.8-0.4,0.9s0.6,0.6,0.6,1.2S675.8,853.3,676.2,853.9z"/>
<path class="st0" d="M678.6,855.1C678.5,855.5,678.5,855.5,678.6,855.1C678.9,854.8,678.9,854.8,678.6,855.1z"/>
<path class="st0" d="M658.3,848.1L658.3,848.1L658.3,848.1z"/>
<path class="st0" d="M565.7,868.3L565.7,868.3L565.7,868.3z"/>
<path class="st0" d="M549.6,872.1c-0.3,0.9,2.3,1,5.7,0.3c3.4-0.8,6.9-0.9,7.9-0.5s1.6,0.8,1,0.6s-0.1-0.6,0.8-1
	c0.9-0.4,0.8-0.6-0.1-0.8c-1,0-2.5-0.4-3.1-0.6c-0.6-0.3-2.2-1-3.2-1.4s-1.8,0.1-1.4,1.3c0.3,1.2,0.1,1.6-0.5,1
	c-0.5-0.5-1-0.9-1.2-0.6c-0.1,0.3-0.4,0.3-0.6,0.1s-1.6-0.1-2.7,0S549.9,871.2,549.6,872.1z"/>
<path class="st0" d="M543.7,872.4c-0.5,0,0.1,0.4,1.2,0.6c1.2,0.3,2.2,0.4,2.3,0.1c0.1-0.3,0.1-0.3,0.1-0.1s0.1,0.1,0.4,0.1
	c0.3,0,0.4-0.1,0.3-0.1s-0.3-1-0.4-2.2c-0.1-1.2-0.6-1.4-1.6-0.5c-0.9,0.9-1.6,1.8-1.6,1.9S544.1,872.4,543.7,872.4z"/>
<path class="st0" d="M583.5,885.7L583.5,885.7L583.5,885.7z"/>
<path class="st0" d="M540.7,872.4C540.5,872.3,540.5,872.3,540.7,872.4S540.8,872.5,540.7,872.4z"/>
<path class="st0" d="M640.4,857.9L640.4,857.9L640.4,857.9z"/>
<path class="st0" d="M641.1,866.2L641.1,866.2L641.1,866.2z"/>
<path class="st0" d="M637.8,859.6L637.8,859.6L637.8,859.6z"/>
<path class="st0" d="M636.5,868.4C636.1,868.3,636.1,868.3,636.5,868.4C636.9,868.4,636.9,868.4,636.5,868.4z"/>
<path class="st0" d="M584.7,885.3L584.7,885.3L584.7,885.3z"/>
<path class="st0" d="M651.1,868.5C650.2,869,650.2,869,651.1,868.5C652,868,651.9,868.1,651.1,868.5z"/>
<path class="st0" d="M644.3,865.2L644.3,865.2L644.3,865.2z"/>
<path class="st0" d="M642.1,863.6L642.1,863.6L642.1,863.6z"/>
<path class="st0" d="M644.3,854.8L644.3,854.8L644.3,854.8z"/>
<path class="st0" d="M644,864.8L644,864.8L644,864.8z"/>
<path class="st0" d="M634,860.9C633.8,860.8,633.8,860.8,634,860.9S634.2,861.2,634,860.9z"/>
<path class="st0" d="M625.2,863.7C625.2,864,625.2,864,625.2,863.7S625.2,863.5,625.2,863.7z"/>
<path class="st0" d="M601.5,876.5c0,0-0.4,1.2-0.9,2.6c-0.5,1.4-1.4,3.1-1.9,3.7s1.6-0.4,4.7-2.1l5.7-3.2"/>
<path class="st0" d="M595.4,886c-0.8,0.9-0.8,1.2-0.1,0.5c0.6-0.6,1.4-1.3,1.4-1.6S596.2,885.1,595.4,886z"/>
<path class="st0" d="M596.8,883.5c0.3-0.1,0.5-0.4,0.6-0.6s0-0.1-0.4,0.1C596.7,883.3,596.6,883.6,596.8,883.5z"/>
<path class="st0" d="M627.6,868.3C627.3,868.3,627.3,868.3,627.6,868.3S628,868.3,627.6,868.3z"/>
<path class="st0" d="M630.9,868.7C630.7,868.7,630.7,868.7,630.9,868.7S631.3,868.8,630.9,868.7z"/>
<path class="st0" d="M657.6,861.2C657.2,861,657.2,861,657.6,861.2C658,861.3,658,861.3,657.6,861.2z"/>
<path class="st0" d="M629.5,867.9C628.7,867.7,628.7,867.7,629.5,867.9S630.2,867.9,629.5,867.9z"/>
<path class="st0" d="M568.2,871.1c-0.1,0.5,0,0.8,0.1,0.5c0.1-0.3,0.5-0.5,0.6-0.5s0.4-0.1,0.5-0.1c0,0-0.1-0.3-0.4-0.6
	c-0.3-0.3-0.5-0.5-0.6-0.4C568.5,869.9,568.4,870.5,568.2,871.1z"/>
<path class="st0" d="M624,867.2C623.8,867.4,623.8,867.4,624,867.2S624.1,867.1,624,867.2z"/>
<path class="st0" d="M617.8,865.9c-2.1,0.5-2.8,0.8-1.7,0.6c1.2-0.1,2.8-0.5,3.7-0.9C620.7,865.4,619.8,865.6,617.8,865.9z"/>
<path class="st0" d="M606.5,869c0.8,0.3,0.5,0.4-0.5,0.1c-1-0.3-1.7-0.5-1.4-0.5C604.8,868.7,605.7,868.7,606.5,869z"/>
<path class="st0" d="M651.6,864.4C651.4,864.5,651.4,864.5,651.6,864.4S652,864.3,651.6,864.4z"/>
<path class="st0" d="M650.7,863.2C650.5,863.2,650.5,863.2,650.7,863.2c0.3,0.3,0.4,0.3,0.4,0.3S651,863.4,650.7,863.2z"/>
<path class="st0" d="M652.1,863c0.3-0.1,0.1-0.3-0.3-0.1c-0.4,0.1-0.5,0.3-0.4,0.3S651.9,863.2,652.1,863z"/>
<path class="st0" d="M589.4,870.1L589.4,870.1L589.4,870.1z"/>
<path class="st0" d="M594.2,869.4L594.2,869.4L594.2,869.4z"/>
<path class="st0" d="M585.4,862.3C585.3,862.4,585.3,862.4,585.4,862.3C585.6,862.3,585.6,862.3,585.4,862.3z"/>
<path class="st0" d="M601.3,869.8C600.9,869.9,600.9,869.9,601.3,869.8C601.7,869.7,601.7,869.7,601.3,869.8z"/>
<path class="st0" d="M594.7,870.1c-0.3,0-0.8,0.3-1,0.5c-0.3,0.3,0,0.3,0.5,0C594.7,870.3,595.1,870.1,594.7,870.1z"/>
<line class="st0" x1="604.4" y1="875.4" x2="607.8" y2="873.7"/>
<path class="st0" d="M596.7,869.9c-0.5,0.4,0.3,0.1,1.7-0.4c1.4-0.5,1.9-0.8,1.3-0.5c-0.6,0.3-1.4,0.5-1.6,0.4
	c-0.1-0.1-0.1-0.3-0.1-0.4c0.1-0.3-0.1-0.3-0.5-0.1c-0.4,0.1-0.5,0.3-0.3,0.4C597.5,869.4,597.2,869.7,596.7,869.9z"/>
<path class="st0" d="M579.2,861.8C578.7,861.7,578.7,861.7,579.2,861.8C579.9,861.8,579.9,861.8,579.2,861.8z"/>
<path class="st0" d="M576.8,860c-0.1,0.1,0.1,0.3,0.5,0.3c0.4,0,0.5-0.1,0.3-0.3C577.3,859.9,576.9,859.7,576.8,860z"/>
<path class="st0" d="M569.9,871.8c0,0.4,0.3,0.4,0.5,0.1c0.4-0.3,0.4-0.5,0.1-0.6C570.3,871.1,569.9,871.4,569.9,871.8z"/>
<path class="st0" d="M607.8,873.7l6.3-1.9c3.4-1,7.1-1.8,8.3-1.8c1.2,0,0.3,1-2.1,2.1c-2.3,1.2-5.8,2.7-7.9,3.7
	c-2.1,1-3.7,1.7-3.7,1.7"/>
<path class="st0" d="M612.5,868.3C612.2,868.5,612.2,868.5,612.5,868.3C612.7,868,612.8,868.1,612.5,868.3z"/>
<line class="st0" x1="604.4" y1="875.4" x2="601.5" y2="876.5"/>
<line class="st0" x1="607.8" y1="873.7" x2="608.8" y2="877.6"/>
<path class="st0" d="M604.4,875.4c0,0-0.3,0.5-0.6,1.2s-1,0.9-1.6,0.6s-0.8-0.5-0.8-0.5"/>
<path class="st0" d="M483.6,704.1c0,0,0-1.2,0.1-2.6c0.1-1.4-0.4-3.1-1-3.6c-0.6-0.5-0.9-1.7-0.4-2.5c0.5-0.8-0.3-2.1-1.4-3.1
	c-1.2-1-2.6-2.5-3.2-3.4c-0.6-0.9-1.6-2.2-2.1-2.8c-0.5-0.6-1.9-2.3-3.4-3.7c-1.4-1.4-3-3-3.5-3.4c-0.5-0.4-1.3-0.9-1.6-1.3
	c-0.3-0.3-0.5-1-0.5-1.7s-1-1.7-2.2-2.2c-1.2-0.5-3.4-1.7-4.7-2.5c-1.3-0.8-2.2-2.1-1.9-2.8c0.3-0.8,1.8-1.8,3.2-2.2s3-1.3,3.2-1.8
	s-0.4-1.7-1.4-2.2s-2.1-1.7-2.2-2.6c-0.1-0.9-0.9-1.6-1.8-1.6s-2.1,0.3-2.6,0.5c-0.5,0.3-1.6,0.3-2.3,0c-0.8-0.3-2.1-1.2-2.7-1.9
	c-0.8-0.9-1.2-1.9-0.9-2.3c0.3-0.4,0.3-0.6,0.1-0.6s-0.3-0.6-0.4-1.4c-0.1-0.8-0.6-1.8-1.3-2.2c-0.6-0.4-1.8-1.3-2.5-2.2
	c-0.6-0.9-1.3-1.6-1.3-1.6"/>
<path class="st0" d="M483.6,704.1c0,0-0.1,1.6-0.3,3.4c-0.1,1.8-0.1,4.9-0.1,6.7c0,1.8,0.3,4,0.4,4.8c0.1,0.8-0.3,1.7-1,2.1
	c-0.6,0.4-2.6,1.2-4.1,1.8c-1.7,0.6-2.8,1.7-2.8,2.3c0,0.6-0.3,2.6-0.8,4.4c-0.5,1.8-1.3,3-1.8,2.7c-0.5-0.3-1.4-0.6-1.9-0.8
	c-0.6-0.1-1.9-0.1-3-0.1s-2.2,0.6-2.6,1.3c-0.4,0.6-1.4,1.4-2.3,1.8c-0.9,0.4-1.7,0.8-1.7,0.8"/>
<path class="st0" d="M466.9,706.7c0,0,1.3,0,2.8-0.1s3.2-0.3,3.7-0.5c0.5-0.3,1.4-0.6,1.9-0.8c0.5-0.1,2.6-0.5,4.7-0.8
	s3.6-0.4,3.6-0.4"/>
<path class="st0" d="M373.8,604.6c0,0,0.8,0.8,1.6,1.8c0.9,1,1.3,2.6,0.9,3.5c-0.4,0.9-0.6,1.8-0.8,1.9c0,0.1-0.9,0.3-1.9,0.3
	s-3.5-0.1-5.6-0.4c-2.1-0.1-4.5,0-5.4,0.4c-1,0.4-2.6,0.5-3.6,0.1c-1-0.3-2.6-0.6-3.5-0.9c-0.9-0.3-1.6-1-1.6-1.8
	c0.1-0.8,0.1-1.4,0.1-1.4"/>
</svg>
