<?xml version="1.0" encoding="utf-8"?>
<!-- Generator: Adobe Illustrator 18.1.1, SVG Export Plug-In . SVG Version: 6.00 Build 0)  -->
<!DOCTYPE svg PUBLIC "-//W3C//DTD SVG 1.1//EN" "http://www.w3.org/Graphics/SVG/1.1/DTD/svg11.dtd">
<svg version="1.1" id="Layer_1" xmlns="http://www.w3.org/2000/svg" xmlns:xlink="http://www.w3.org/1999/xlink" x="0px" y="0px"
	 viewBox="0 0 1224 792" enable-background="new 0 0 1224 792" xml:space="preserve">
<path fill="none" stroke="#000000" stroke-miterlimit="10" d="M235.9,180.6c0.1,0.5,0.5,0.6,0.5,0.3c0-0.2-0.1-0.7-0.3-0.9
	C235.9,179.9,235.8,180.1,235.9,180.6z"/>
<path fill="none" stroke="#000000" stroke-miterlimit="10" d="M500,548.2c-0.5-0.6-0.7-1-0.5-1c0.3,0-0.1-0.7-0.7-2
	c-0.7-1-1.4-2.4-1.5-2.9c-0.1-0.5-0.6-1.2-1.2-1.4c-0.5-0.3-0.7-0.5-0.6-0.5s0.3-0.1,0.3-0.3c0-0.2,0.1-0.1,0.1-0.1
	c0.1,0-0.1-0.5-0.5-1.2c-0.3-0.7-0.9-1.5-1.2-2c-0.3-0.3-0.7-0.9-1-1.2c-0.3-0.3-0.6-0.9-0.6-1.2c0-0.3-0.1-0.5-0.1-0.5
	c0,0.1-0.1,0-0.3-0.1c-0.2-0.1-0.7-0.7-1.2-1.4c-0.5-0.6-1.6-1.5-2.5-2.1c-0.9-0.6-1-0.6-0.3,0c0.7,0.6,0.3,0.6-0.9,0.1
	c-1.2-0.5-1.6-0.5-1,0c0.6,0.5,1.8,1,2.9,1.4c0.9,0.3,1.2,0.6,0.6,0.5c-0.6,0-1.6-0.3-2.4-0.6c-0.6-0.3-0.9-0.3-0.5,0
	c0.3,0.3,0.5,1,0.3,1.6s-0.7,1.6-1,2.2c-0.5,0.6-0.7,1.8-0.9,2.5c0,0.7-0.3,2.5-0.5,3.9c-0.1,1.4-0.5,1.8-0.6,1
	c-0.1-0.7-0.3-0.1-0.3,1.4s0,3.6,0.1,4.5c0.1,0.9,0.3,2,0.3,2c0,0.1,1,2,2.2,4l1.5,2.5c1.2,2.1,3.7,2.7,5.7,1l4.3-3.6
	c2-1.6,3.2-3.6,3.2-4.5C501.4,549.7,500.4,548.8,500,548.2z"/>
<path fill="none" stroke="#000000" stroke-miterlimit="10" d="M830.4,407.2c0.6-1.6,1.4-4.2,1.8-5.7c0.5-1.5,0.1-3.1-0.7-3.7
	c-0.7-0.6-1.8-0.9-2.4-0.6c-0.5,0.3-2.1,2.1-3.5,4l-5.5,7.6c-1.5,2-2.9,4.5-3,5.7c-0.1,1.2-0.1,2.1,0.1,2.1s0.6,0.7,0.7,1.5
	c0.1,0.7,0.3,1.6,0.5,2c0.1,0.3,0.9,1.4,1.8,2.1c0.7,0.7,1.8,2.2,2.2,3c0.5,0.7,1.4-0.3,2.1-2.5c0.7-2.2,2.1-5.8,3-8.1
	C828.7,412,829.8,408.8,830.4,407.2z"/>
<path fill="none" stroke="#000000" stroke-miterlimit="10" d="M858.7,526.3c0.3,0.3,0.6,0.5,0.9,0.3c0.3-0.1,0.5-0.6,0.3-0.9
	c0-0.3-0.5-1.4-1-2.4c-0.6-1-1.2-3-1.4-4.3c-0.3-1.4-0.9-2.2-1.4-2.1c-0.5,0.1-1.2,0.3-1.8,0.1c-0.5-0.1-1.2,0-1.5,0.1
	c-0.3,0.1-0.3,1,0.1,2.1c0.3,0.9,0.9,1.6,1.4,1.5s0.9,0.5,1,1c0.1,0.7,0.9,2.4,1.5,3.9c0.6,1.5,0.9,2,0.9,1c-0.1-0.9,0-1.4,0-1.2
	C858,525.5,858.4,525.9,858.7,526.3z"/>
<path fill="none" stroke="#000000" stroke-miterlimit="10" d="M853.2,507c-0.6-0.1-0.6,0.7,0,2c0.6,1.2,2,2.9,3.1,3.6
	c1.2,0.7,1.6,2,1.2,2.4c-0.5,0.5-0.3,1.4,0.5,2c0.7,0.6,1.8,1.4,2.4,1.6c0.6,0.3,1.6,0.7,2.5,0.9c0.7,0.1,1,0,0.6-0.5
	c-0.5-0.5-0.7-1.2-0.7-1.6s-0.1-1.6-0.5-2.4c-0.3-0.7-0.5-2.1-0.3-3c0.1-0.9,0.3-1.6,0.3-1.6s-0.3-0.3-0.7-0.6
	c-0.5-0.3-2.4-0.9-4-1.5C855.5,507.5,853.8,507.1,853.2,507z"/>
<path fill="none" stroke="#000000" stroke-miterlimit="10" d="M840.6,534.9c0.3,0.6,0.7,0.1,1.2-0.9c0.5-1,1.2-3.6,1.8-5.7
	c0.6-2,1-4.6,0.9-5.8c-0.1-1.2-0.9-1.8-2-1.2c-1,0.7-2,2.1-2.1,3.6c-0.3,1.4-1,3.5-2,4.5c-0.9,1-0.7,2.5,0.1,3.1
	C839.4,533.4,840.4,534.4,840.6,534.9z"/>
<path fill="none" stroke="#000000" stroke-miterlimit="10" d="M834.9,523.6c1.4-0.5,3.1-1.6,4.2-2.4s2.2-2.1,2.7-2.9
	c0.5-0.7,0.9-1.8,0.9-2.4c0-0.6-0.5-0.7-1.2-0.5c-0.7,0.2-1.5,0.5-2,0.3c-0.5-0.1-2.2-0.9-4.2-1.4c-2-0.5-3.2,1-3.1,3.6l0.1,1
	c0.3,2.4,0.3,4.6,0.3,5S833.5,524.2,834.9,523.6z"/>
<path fill="none" stroke="#000000" stroke-miterlimit="10" d="M815.1,476.4c-0.3,1-0.1,3.1,0.1,4.6c0.5,1.4,1.2,3.5,1.8,4.5
	c0.6,1,1.6,2.7,2.2,3.7c0.6,1,1.4,1,1.6-0.1c0.2-1.2,0.5-2,0.5-2s0.7,0.9,1.5,1.8c0.7,0.9,0.9,3,0.1,4.6c-0.7,1.6-0.7,3.1-0.3,3.5
	c0.6,0.1,2,0.3,3.2,0.3c1.4,0,2.7-0.5,3.1-1c0.5-0.6,1.6-0.7,2.5-0.3c0.9,0.5,2.2,1.4,3,1.8c0.7,0.5,1.6,1.6,2,2.4
	c0.3,0.7,0.7,0.7,1,0c0.1-0.7,0-2.2-0.6-3.1c-0.6-0.9-0.1-1.4,0.7-0.6c0.9,0.7,2.4,1.8,3.1,2.2c0.7,0.5,1.6,1.6,2,2.4
	c0.1,0.7,1.2,1.6,2.1,2.1c0.9,0.5,1.8,0.9,1.8,1c0,0.1,0,0.3,0.1,0.3c0,0,0.7-0.1,1.4-0.3c0.7-0.2,0.9-0.1,0.3,0
	c-0.6,0.3-0.5,0.7,0.3,1.2c0.7,0.5,1.4,0,1.5-1c0.1-0.9-0.6-1.6-1.5-1.6c-0.9,0-1.5-0.3-1.2-0.7c0.3-0.5-0.1-1.4-0.7-2.2
	c-0.7-0.7-0.5-1.8,0.5-2.1c0.9-0.2,0.7-0.9-0.6-1.4c-1.4-0.5-2.4-1-2.5-1.4c-0.1-0.3-0.3-0.6-0.3-0.7s0-0.1,0,0.1c0,0.2-0.5,0.7-1,1
	c-0.6,0.3-1.2,0.1-1.2-0.5s-0.7-1.5-1.6-2.1c-0.7-0.6-1.8-1-2.4-1c-0.5,0-1.2,0.6-1.6,1c-0.5,0.6-0.7,0.6-0.9,0.3
	c-0.1-0.3-0.3-0.5-0.5-0.3c-0.1,0.3-0.3,0.5-0.3,0.3c0,0,0.1,0.1,0.5,0.6c0.3,0.5,0.5,0.9,0.3,1c-0.1,0.3-1.2-0.3-2.4-1.2
	c-1.2-0.9-2.1-2.4-2.1-3.5c0-1-0.1-3.6-0.5-5.8c-0.3-2.2-0.5-4.5-0.5-5.1c0-0.6,0.9-1.8,2.1-2.5c1.2-0.9,2-1,1.6-0.6
	c-0.3,0.6-0.1,0.5,0.5-0.3c0.6-0.7,0.9-1.4,0.9-1.6s0-0.3,0-0.3s0.3-1.6,0.9-3.6c0.6-2,0.5-4.3-0.1-5c-0.6-0.6-1-2.4-0.9-3.9
	c0.1-1.5,0.1-3.2,0-4c-0.1-0.7-0.6-1-1-0.6c-0.5,0.5-1.4,0.9-2.1,0.7c-0.7,0-2.4-0.6-3.7-1.4s-2.9-1.4-3.5-1.5
	c-0.6,0-1.6,0.9-2.4,2.1c-0.7,1.2-1.6,3-2,4.2c-0.3,1-0.5,3-0.3,4.3c0.1,1.4,0,3.5-0.3,4.6c-0.3,1.2-0.5,3.2-0.5,4.5
	c0,1.2-0.6,1.6-1.6,1C816.4,474.9,815.4,475.3,815.1,476.4z"/>
<path fill="none" stroke="#000000" stroke-miterlimit="10" d="M861.6,561.2c0.5-2.1,0.5-4.2,0.1-4.7c-0.3-0.6-0.3-1.6,0.1-2.4
	s1-2,1.4-2.4c0.3-0.5,1-0.9,1.4-0.6c0.3,0.3,1.2,2.1,2,4.3c0.8,2.2,1.2,2.7,1.2,1.4c0-1.4,0.1-2.4,0.6-2.1c0.5,0.3,1,0,1.4-0.6
	s0.7-1.8,0.9-2.7c0.2-0.8,0.1-2.2-0.1-3.1c-0.3-0.9-0.5-2.4-0.5-3.2c0-1-0.5-2.4-0.9-3s-0.7-1.8-0.6-2.5s0.1-2.1-0.1-3.2
	c-0.1-1-0.9-2.2-1.5-2.5c-0.6-0.3-1.6-0.9-2.2-1.4c-0.6-0.5-1.5-1-2.1-1.5c-0.6-0.5-0.7,0.3-0.6,1.8c0.1,1.4-0.3,2.9-1,3
	c-0.7,0.3-1.5,1-1.6,1.6c-0.3,0.6-0.9,0.7-1.5,0.3c-0.6-0.5-1.5,0.3-2,1.6c-0.5,1.4-1.4,2.1-1.8,1.6c-0.6-0.5-1.2-0.1-1.6,0.5
	c-0.3,0.6-1.6,2-3,2.7c-1.4,0.7-2.1,0.9-1.6,0.3c0.5-0.6,0.3-2-0.3-2.9c-0.7-0.9-1.2-1.6-1.2-1.5s-0.5,0.1-0.9-0.3
	c-0.5-0.3-1.5,0-2.4,0.6c-0.9,0.7-2,1.8-2.4,2.5c-0.5,0.7-1.2,1.2-1.5,1.2s-0.7,0-0.9,0.1s-0.6,0.3-1.2,0.6c-0.5,0.1-1.4,0.9-2,1.5
	c-0.6,0.6-1,1.5-1,1.8s-0.1,1-0.5,1.6s-0.5,1.6-0.5,2.5c0,0.9,0.9,0.6,1.8-0.7c1-1.4,2.4-2.9,3-3.5c0.6-0.6,1.4-0.6,1.4,0
	c0.1,0.6,0.5,1,0.7,0.9s0.9-0.6,1.4-1c0.5-0.5,0.9-0.5,0.9,0s0.3,0.9,0.7,0.9c0.3,0.1,0.9,0.5,1.2,0.7c0.3,0.3,0.5,0.3,0.3-0.3
	c-0.1-0.5,0.3-1.4,1-1.8c0.7-0.5,2.2-0.3,3.2,0.5c1,0.7,2.1,1.8,2.2,2.1c0.1,0.3,0,1-0.3,1.5c-0.3,0.5-0.6,1.6-0.7,2.4
	c0,0.7,0.5,2.5,1,4c0.6,1.5,2.2,3,3.6,3.6c1.4,0.6,3,0.7,3.7,0.1c0.7-0.5,1.6,0,2,1.2C860.6,564.1,861.2,563.3,861.6,561.2z"/>
<path fill="none" stroke="#000000" stroke-miterlimit="10" d="M806,529.9c0.1-0.1,0.9-0.6,1.6-1c0.7-0.3,1.6-1,2.2-1.5
	c0.5-0.5,1.6-1.5,2.7-2.1c1-0.6,1.5-1.4,1.4-1.6c-0.1-0.2-0.3-0.6-0.3-0.6s-0.1-1.5-0.6-3.2c-0.5-1.8-1-2.7-1.4-2
	c-0.5,0.7-0.7,1.6-0.7,2.1c0,0.5,0.3,1,0.6,1.5c0.3,0.5,0.1,0.5-0.5,0c-0.6-0.5-0.7-0.3-0.6,0.3c0.3,0.6,0,1.5-0.5,2
	c-0.5,0.5-1.2,1-1.5,1.4c-0.3,0.3-0.7,0.7-1,1.2c-0.3,0.3-0.6,0.9-0.9,1.2c-0.3,0.3-0.5,0.5-0.5,0.3c0-0.1-1.4,1.2-3,3l-1,1
	c-1.6,1.8-4.3,4.7-6,6.6c-1.5,1.8-2.9,3.5-3,3.7c0,0.3,1.4-1,3.1-2.7l6-5.8C804.3,531.6,805.9,530,806,529.9z"/>
<path fill="none" stroke="#000000" stroke-miterlimit="10" d="M609,478.3c-0.1,0.5-0.3,0.9-0.3,1s0.3,0.1,0.7,0.1
	c0.5,0,0.9-0.3,1-0.6c0.1-0.3,0.3-0.3,0.5,0c0,0.3,0.3,0.1,0.6-0.3c0.3-0.5,0.7-1,1-1.5c0.1-0.3,0.6,0.1,0.7,1.2s0.9,0.9,1.5-0.3
	c0.6-1.2,1.5-2.2,1.8-2.2c0.5,0,0.7-0.1,0.9-0.1c0.2,0,0.3,0,0.1,0.1c0,0.1,0.1-0.1,0.3-0.6c0.1-0.5,0.7-1,1.5-1.4
	c0.7-0.3,1.2-1.2,1.2-1.8s0.3-0.6,0.7,0.1c0.5,0.7,1.4,0.6,2.1-0.5c0.7-0.9,1.5-1.6,1.5-1.6c0.1,0,0.1-0.9,0-2.1
	c-0.1-1.2,0-2.2,0.1-2.4c0.1-0.2,0.7,0.5,1.4,1.4c0.7,0.9,1.2,1.6,1.5,1.5c0.3,0,0.5,0.3,0.5,0.9s0.1,1.8,0.5,2.7
	c0.3,0.9,1.2,1.5,2.1,1.4c0.9-0.1,1.5,1.5,1.5,3.9c0,2.2,0.1,5.1,0.3,6.2c0.1,1.2,0.3,2.7,0.5,3.6c0.1,0.9,0.3,1.5,0.5,1.4
	c0.1-0.1,0.3-0.3,0.5-0.3c0.1,0,0.3,0.3,0.6,0.6c0.1,0.3,0.3,1.4,0.3,2.1c0,0.7,0.1,3,0.5,4.6c0.3,1.6,0.6,3.1,0.6,3.1
	c0.1,0,0.1-1,0.1-2.2c0-1.2,0.1-1.6,0.5-0.7c0.1,0.7,0.7,2.1,1,2.9c0.3,0.8,0.7,1.5,0.7,1.4s0.5,1,0.9,2.7c0.5,1.5,0.9,2.9,0.9,2.9
	s0.1,0.6,0.1,1c0,0.5,0,1.4-0.1,2c-0.1,0.6-0.3,0.9-0.5,0.7c0-0.1-0.1,0-0.3,0.3c-0.1,0.3,0,0.5,0.3,0.3c0.3-0.1,0.5,0.1,0.3,0.5
	c-0.1,0.3-0.5,1-0.6,1.5c-0.1,0.6-0.1,0.9,0.3,0.9s0.9,0,1,0.1c0.1,0.1,0.6,0.5,0.7,0.7c0.1,0.2-0.3,2.2-0.9,4
	c-0.7,2-1.5,3.7-1.6,4.2c-0.1,0.5-0.3,2.1-0.1,3.7c0.1,1.6,0.6,2.2,1.2,1.5c0.5-0.9,0.5-0.6-0.1,0.6c-0.6,1.2-0.9,2.1-0.7,2.1
	s0.3,0.1,0.1,0.5c0,0.3-0.1,0.7-0.1,1.2c0,0.5-0.5,1.8-0.7,3c-0.3,1.2-0.9,3.1-1.2,4.3c-0.3,1.2-0.6,2.4-0.6,2.7
	c0,0.3,0.3,1,0.6,1.5c0.3,0.5,0.7,0.7,0.7,0.3c0-0.5,0.6-0.9,1-1c0.6-0.1,0.9-0.1,0.9,0.1s0,0.5,0.3,0.5s1,0.7,1.8,1.5
	c0.7,0.7,1.5,1.8,1.5,2.2c0,0.3,0.3,1,0.7,1.2c0.5,0.1,0.9,0.6,1,1s0.7,0.9,1.2,1c0.5,0.1,0.9,0.3,1.2,0.3c0.1,0,0.6,0.5,0.9,1
	c0.3,0.6,1.2,2.1,2.1,3.5c0.7,1.4,2,3.7,2.5,5.2s1,3.6,1.2,4.5c0.1,0.9,0.3,2.9,0.6,4.2c0.3,1.4,0.9,2.7,1.2,3.1
	c0.5,0.5,1,2.1,1.5,3.6s0.7,3,0.7,3.5s0.5,1.5,1,2.2c0.6,0.7,1.6,2.4,2.1,3.2c0.6,1,1,2.2,1.4,3c0.1,0.6,1,1.5,2,2.1
	c0.9,0.5,1.8,1.2,2,1.5c0.1,0.3,0.6,0.6,0.9,0.7c0.3,0.1,1,0.6,1.8,1c0.7,0.5,2.2,1.5,3.6,2.2c1.2,0.7,3,1.8,3.9,2.2
	c0.9,0.5,2,1.4,2.5,2.1c0.6,0.7,1.8,0.6,2.9-0.1c1-0.9,2.2-1.4,2.5-1.2c0.5,0.3,1,0.5,1.4,0.6s0-1.4-0.7-3.1c-0.7-1.8-1.8-4-2.1-4.7
	c-0.5-0.7-1.4-1.8-2-2.2c-0.6-0.5-1.2-2.1-1.4-3.7c0-1.5-0.1-3.9-0.3-5.1c-0.1-1.2-0.3-4-0.5-6.1c-0.1-2.1-1.6-5.4-3.5-7.2l0,0
	c-1.6-1.8-3.5-3.7-3.7-4.3c-0.2-0.6-1-1.4-1.6-1.6c-0.5-0.3-2.4-1.8-4.3-3.2c-2-1.5-4.3-2.9-5.2-2.9c-1,0-2.4-0.7-3.1-1.5
	c-0.7-0.7-1.5-1.5-1.5-1.6c-0.1-0.1-0.7-2.2-1.6-4.5l-0.6-1.6c-0.7-2.4-1.4-4-1.2-3.7c0.2,0.3-0.3-1-0.9-3c-0.6-2-1.8-3.5-2.5-3.5
	s-1.8-0.5-2.4-0.7c-0.6-0.2-1-2.2-1.2-4.2c-0.1-2,0-4.5,0.3-5.7c0.3-1.2,0.7-2.4,1-2.7s0.5-0.9,0.5-1.5c0-0.6,0.3-2.1,0.9-3.2
	c0.6-1.2,1.4-4.3,2-6.7l0.7-3c0.6-2.4,1.4-5.2,1.8-6.2c0.5-1,1.5-2.1,2.2-2.4c0.7-0.3,2.2-0.3,3.1,0c0.9,0.3,1.6,2.2,1.5,4.3
	c0,2.1,0.7,3.7,1.6,3.6c0.9-0.1,2.9,0,4,0.3c1.2,0.3,2.2,0.3,2.2,0.1c0-0.2,0.1,0,0.5,0.3c0.3,0.3,0.3,0.5,0.3,0.1
	c0-0.3-0.1-0.5,0-0.5c0.1,0,0.3,0,0.3,0.1s0.1,0.1,0.1,0.1c0.1,0,0.1,0,0,0.1c-0.1,0,0.1,0.5,0.6,1c0.5,0.6,0.6,0.6,0.5,0.3
	c-0.1-0.3-0.1-0.3,0.1,0c0.1,0.3,0.5,0.5,0.5,0.3c0-0.1,0.6,0.5,1.2,1.2c0.6,0.7,1,1,1.2,0.6c0.1-0.5,0.7,0.5,1.5,2
	c0.7,1.5,1.4,2.2,1.2,1.6c-0.2-0.6,0.1-0.9,0.6-0.6c0.5,0.3,0.6,0.6,0.5,0.7c-0.1,0.1-0.3,0.3-0.1,0.5c0.1,0.1,0.1,0.1,0.1,0.3
	s0,0.1,0,0.1s0.3,0.3,0.6,0.7c0.3,0.5,0.3,0.7,0.1,0.6c-0.3,0-0.3,0.6-0.3,1.5c0,0.9,0.7,2,1.4,2.4s1.4,0.3,1.6-0.3
	c0.2-0.7,0.7-0.5,1,0.6c0.3,1,0.3,2.1,0.1,2.2c-0.1,0.3,0,0.7,0.5,0.9c0.5,0.3,0.7,0.3,0.6,0.3c-0.1,0,0.1-0.5,0.5-0.7
	c0.5-0.3,2,0,3.5,0.6c1.5,0.6,2.9,1.6,3.1,2.4c0.3,0.7,1.4,1.6,2.4,2.4c1.2,0.6,1.6,1.4,0.9,1.6c-0.7,0.3-1.2,1.4-1.2,2.4
	s0.1,2.9,0.3,3.9c0.3,1,0.3,2.2,0.1,2.4c-0.1,0.1-0.1,0.3-0.1,0.3s1.5-0.7,3.1-1.8c1.6-1,3.9-2.2,5.2-2.9c1.4-0.6,1.8-2.2,0.9-3.6
	c-0.7-1.4-0.3-1.6,1.2-0.6c1.5,1,2,0.6,1.2-0.9c-0.7-1.5-0.9-2.4-0.3-1.8c0.6,0.6,1.6,1.4,2.2,1.6c0.6,0.3,0.5-0.3-0.5-1.2
	c-0.9-0.9-0.9-1.5-0.1-1c0.7,0.3,1,0.3,0.6-0.3c-0.5-0.5-0.3-1,0.6-1.4s1.2-0.5,0.7-0.6s-0.5-0.6-0.1-1c0.3-0.5,0.6-0.7,0.6-0.7
	s0,0.3,0.1,0.6c0.1,0.3,0.1,0.7,0.5,0.9c0.3,0.1,0.3,0.3,0.3,0.1c-0.1-0.1,0-0.1,0-0.1c0.1,0,0-0.3-0.1-0.6
	c-0.1-0.5-0.1-0.5,0.1-0.1c0.3,0.3,0.6,0.6,0.5,0.6c0,0.1-0.1,0.3-0.1,0.6s0.1,0.3,0.3,0.3s0.3-0.3,0.3-0.5c-0.1-0.1-0.1-0.3,0-0.3
	c0,0,0.1-0.3,0.1-0.6c0-0.3,0.1-0.5,0.3-0.3c0.1,0.1,0.1,0.5,0,0.6c-0.1,0.1,0.3,0.3,0.7,0.6s1.8,0,2.9-0.6c1.2-0.5,2.9-1.2,3.7-1.8
	c0.9-0.6,2.1-1,2.5-1.2c0.5-0.1,2.2-1.6,3.9-3.5c1.6-1.6,3.2-3.5,3.7-4c0.5-0.6,0.6-0.9,0.5-0.9c-0.1,0.1-0.1-0.5-0.1-1
	s0.5-0.7,0.6-0.1c0.1,0.6,0.3,0.5,0-0.3c-0.3-0.7-0.5-1.5-0.5-1.6s-0.1-0.6-0.1-1c0-0.5-0.1-0.7-0.1-0.7s0.3,0.1,0.6,0.3
	s0.5,0,0.3-0.6c-0.1-0.5-0.3-0.9-0.5-0.7c-0.1,0.1,0.1-0.3,0.5-0.9c0.3-0.6,0.6-0.7,0.6-0.5c0,0.2,0,0.6,0.1,0.5
	c0.1,0,0.3,0.1,0.5,0.5c0.1,0.3,0.1,0,0.1-0.7s0-1.2,0-1.2s-0.3-0.7-0.6-1.8c-0.3-1-0.6-2-0.7-2c-0.1,0-0.1-0.3-0.3-0.7
	c0-0.5,0-0.6,0.1-0.5c0.1,0.1,0-0.1-0.1-0.7c-0.1-0.6-0.3-1.5-0.3-2.1c0.1-0.6,0-1.5-0.1-2.2c-0.1-0.6-0.5-2-0.7-2.9
	c-0.2-0.9-0.5-1.8-0.5-2.2c0-0.3,0-0.6,0.1-0.5c0,0-0.3-0.9-0.7-2c-0.5-1-0.9-2.1-0.9-2.1c-0.1,0,0-0.1,0.1-0.5
	c0.1-0.3,0.1-0.7-0.3-1.2s-0.7-0.6-0.7-0.3c0,0.3-0.5,0.1-0.7-0.1c-0.2-0.2-0.5-0.7-0.3-0.7c0.1-0.1-0.3-1.4-1.2-2.9
	c-0.7-1.5-1.6-2.4-2-2.1c-0.3,0.3-0.7,0.3-0.7,0.1c0-0.3-0.3-0.7-0.6-1c-0.3-0.3-0.5-0.6-0.3-0.6c0.1,0-0.3-0.3-1-0.6
	c-0.7-0.3-1.2-0.6-1-0.6c0.1,0-0.3-0.3-0.7-0.7c-0.3-0.3-0.9-0.7-0.9-0.7s-0.3-0.1-0.7-0.5c-0.3-0.3-0.5-0.3,0-0.1
	c0.5,0.2-0.1-0.3-1.2-0.9c-1.2-0.7-3.2-2.9-5-4.6l-0.3-0.5c-1.6-2-2.9-3.5-2.9-3.5c0.1,0-0.1-0.1-0.5-0.3c-0.3-0.1-0.1-0.1,0.3,0
	s0.7-0.6,0.6-1.5c-0.1-0.9-0.5-1.6-0.6-1.5c-0.1,0.1-0.3,0.1-0.3,0s-0.6-0.7-1.4-1.5c-0.7-0.6-1.6-1.6-2.1-2.1c-0.3-0.5-0.9-1-1-1.2
	c-0.1-0.1-0.6-0.6-0.7-1.2c-0.1-0.5-0.3-0.7-0.1-0.7c0,0,0.3-1.5,0.6-3.2c0.3-1.8,0.5-3.2,0.5-3.2s0.1-0.3,0.3-0.7
	c0.1-0.5,0.6-1.4,1.2-2c0.6-0.6,1-1,1-0.9s0.7-0.5,1.6-1.2c0.9-0.9,1.8-1.4,2-1.4c0.1,0.1,0.3,0,0.3-0.3c0-0.3-0.1-0.6-0.3-0.7
	c-0.2-0.1-0.1-0.5,0-0.7c0.1-0.2,0.1-0.5,0-0.5c-0.1,0-0.1-0.1,0-0.5c0.1-0.3,0.7-0.6,1.2-0.6c0.5,0,0.7-0.5,0.6-1
	c-0.1-0.6-0.5-1.2-0.7-1.5c-0.1-0.3-0.1-0.6,0.3-0.6c0.3,0,0.6,0.1,0.6,0.3s0.1,0.5,0.3,0.6c0.2,0.1,0.5,0.1,0.5,0.1
	c0-0.1,0-0.3,0-0.5c0-0.1,0.1-0.3,0.5-0.3c0.3,0,0.6-0.1,0.7-0.1c0,0,0.3,0,0.6-0.1c0.3,0,0.9-0.1,1.4-0.1c0.5-0.1,1-0.7,1-1.2
	c0.1-0.6,0.5-1,0.6-1.2c0.1-0.1,0.9-0.5,1.4-0.7c0.5-0.5,1-0.7,1.2-0.6c0.1,0,0.3,0,0.3,0c0-0.1,0.1,0,0.5,0.1
	c0.3,0.1,0.6,0.3,0.7,0.1c0.1-0.2,0.5-0.1,0.6-0.1c0.1,0,0.1-0.1,0-0.3c-0.1-0.2,0.1-0.5,0.6-0.7c0.6-0.3,0.9-0.1,0.9,0.1
	c0,0.2,0.1,0.1,0.5-0.3c0.3-0.6,0.7-0.9,1-0.7s0.5,0.3,0.5,0.5c0,0.1-0.1,0.3-0.3,0.3c-0.2,0,0,0.1,0.1,0.3c0.1,0.2,0.3,0,0.5-0.1
	c0-0.1,0-0.1,0-0.1c0,0.1,0.1,0,0.3-0.3c0.2-0.3,0.3-0.6,0.1-0.6c0,0-0.1,0-0.3,0.1c-0.2,0.1-0.1-0.3-0.3-1c0-0.6-0.1-1,0-0.7
	c0,0.1,0.1,0.1,0.3,0c0.1-0.3,0.3-0.5,0.3-0.5v0.1c0,0.1,0,0.1,0.1,0.1c0,0,0.1,0.3,0.1,0.7c0,0.5,0.1,0.6,0.1,0.5s0.3-0.3,0.3-0.3
	c0.1,0,0.1,0.1,0.1,0.3s0,0.3-0.1,0.3c-0.1,0-0.1,0.1,0,0.1c0.1,0,0.1,0,0.3,0c0.1-0.1,0.1,0,0.3,0.3c0,0.3,0.3,0.5,0.6,0.5
	c0.3,0,0.3-0.1,0.1-0.3c-0.2-0.2-0.3-0.3-0.1-0.3c0.2,0,0.1-0.1,0-0.5c-0.1-0.3,0.1-0.3,0.5-0.3c0.3,0,0.9,0.5,1.2,0.7
	c0.3,0.3,0.7,0.6,0.9,0.7s0.3,0.6,0.3,1c0,0.5,0.3,0.7,0.5,0.5c0.1-0.3,0.7-0.5,1.4-0.5c0.6,0,0.9-0.5,0.9-0.7c0-0.5,0.1-0.9,0.5-1
	c0.3-0.1,0.6,0,0.7,0.5c0.1,0.5,0.3,0.7,0.3,0.6c0.1-0.1,0.3,0,0.6,0.3c0.1,0.3,0.5,0.5,0.5,0.1c0-0.3,0.1-0.1,0.1,0.1
	c0.1,0.3,0.1,0.7,0,1c-0.1,0.3-0.3,1.5-0.5,2.9c-0.1,1.4-0.1,2.2-0.1,2.1s0.3,0,0.6,0.5c0.3,0.3,0.5,0.9,0.5,1.2
	c0,0.3,0.1,0.9,0.3,1.2c0.1,0.3,0.3,0.6,0.3,0.5s0.1-0.1,0.1-0.1c0.1,0,0.1,0.3,0.1,0.7c0,0.3-0.1,0.5-0.5,0.3
	c-0.3-0.1-0.5,0.1-0.3,0.5c0.1,0.5,1.2,0.1,2.5-0.5s2.1-1.6,2-2.2c-0.3-0.6-0.9-1.2-1.4-1.5c-0.5-0.1-0.9-0.5-0.9-0.6
	c0-0.1,0-0.1,0-0.1s0.1-0.3,0.1-0.9s0.3-1.5,0.6-2.1c0.3-0.6,0.6-1,0.7-1c0.1,0,0.3-0.1,0.3-0.5c0-0.3,0.1-0.3,0.1,0.1
	c0.1,0.3,0.3,0.6,0.5,0.5c0.1,0,0.1,0,0.1,0.1c0,0.1-0.1,0.5-0.3,0.6c-0.2,0.1,0,0.3,0.5,0.1c0.3-0.1,0.7-0.1,0.9-0.1s0.3,0,0.3,0
	s0.9-0.6,1.8-1c0.9-0.5,1.8-0.9,1.8-0.9s0.3,0,0.5-0.1c0.1-0.1,0.6,0,0.7,0.1c0.1,0.1,0.6,0,0.9-0.1c0.3-0.1,0.6-0.3,0.5-0.3
	s0-0.1,0.1-0.3c0.1-0.2,0.6-0.3,0.9-0.3s1,0,1.5,0c0.5-0.1,0.6-0.5,0.5-0.9c-0.3-0.5-0.1-0.6,0.1-0.3c0.3,0.3,0.9,0.3,1.4,0
	c0.5-0.3,0.5-0.7,0.1-1c-0.3-0.3-0.1-0.6,0.1-0.5c0.2,0.1,0.9,0.3,1.2,0.3c0.3,0.1,1,0.3,1.5,0.5c0.5,0.1,0.9-0.3,0.9-1
	c0-0.7,0.1-1,0.5-0.9c0.1,0.3,0.5,0.9,0.6,1.4c0.1,0.5,0.6,0.5,1.2,0.1c0.6-0.3,1.4-0.6,1.8-0.6c0.5,0,0.9-0.5,1.4-1.2
	c0.3-0.7,1.2-1.4,1.8-1.2c0.7,0.2,0.7-0.6,0.3-1.6c-0.6-0.9-0.1-1.2,0.7-0.5c0.9,0.7,1.4,0.3,0.9-0.9c-0.5-1.2-0.6-2.1-0.5-2.2
	c0.3,0,0-0.3-0.7-0.6c-0.7-0.3-0.7-0.9-0.5-1.4c0.3-0.5,1.6-0.9,2.5-0.9c1-0.1,1.5,0,1,0.3c-0.5,0.1-0.9,0.7-0.9,1.2
	c0,0.5,0.1,1,0.5,1.4c0.3,0.3,0.7,1,1.2,1.6c0.3,0.6,0.9,1,1.4,0.9c0.5-0.1,0.5-0.1,0,0.1c-0.5,0.2,0,0.9,0.9,1.2
	c0.9,0.3,1.6,0.6,1.6,0.5c0-0.1,0-0.3-0.1-0.5c-0.1-0.1-0.1-0.3-0.1-0.5c0,0,0.3,0,0.5,0.1c0.1,0.1,0.3,0,0.3-0.3c0-0.3,0-0.5,0-0.5
	s-0.1,0-0.1-0.1c0-0.1-0.5-0.1-0.7-0.1s-0.3,0,0-0.1c0.5-0.1,0.5-0.3,0.1-0.3c-0.3,0,0.3,0,1.2,0c0.9,0,1.6-0.1,1.6-0.6
	c0-0.3,0.3-0.9,0.9-1.2c0.6-0.3,1-0.1,1.2,0.5s0.3,0.6,0.1,0.1c-0.1-0.6,0.7-1.2,1.8-1.6c1-0.3,1.8-0.5,1.5-0.1
	c-0.3,0.3,0,0.6,0.5,0.6s1,0.1,1.4,0.1c0.3,0,0.7-0.1,0.7-0.5c0.1-0.3-0.1-0.6-0.6-0.7c-0.5-0.1-0.3-0.3,0.5-0.3
	c0.7,0,1.5,0.3,1.6,0.6c0.1,0.3,0.7,0.5,1.5,0.1c0.6-0.1,1-0.5,1-0.6c-0.1-0.1,0-0.1,0.1,0s0.3,0.3,0.1,0.5c-0.1,0.1,0.1,0,0.3-0.3
	c0.2-0.3,1-0.6,1.6-0.6s1.4-0.5,1.6-0.9s0.5-1,0.6-0.9c0.1,0.1,0.3,0,0.5-0.3c0.1-0.3,0.1-0.5,0.1-0.6c0-0.1,0-0.1,0.3,0
	c0.3,0.1,0-0.1-0.6-0.6c-0.6-0.5-0.6-1,0.1-1.5c0.7-0.3,1.8-0.6,2.4-0.6c0.5,0,1.2-0.1,1.6-0.1c0.5,0,0.7-0.6,0.7-1
	c0.1-0.5,0.5-0.9,0.7-0.9c0.2,0,0.6-0.5,0.6-0.7c0-0.3,0.3-0.1,0.7,0.3c0.3,0.5,0.9,0.3,1-0.5c0.1-0.7,0.5-1.2,0.6-0.7
	c0.1,0.5,0.6,0.1,1.2-0.7c0.5-0.7,1.2-1.5,1.6-1.6s0.6-0.5,0.5-0.9c-0.1-0.3-0.7-0.7-1.2-0.7c-0.5-0.1-0.9-0.3-0.9-0.3
	c0-0.1,0.3-0.3,0.6-0.6c0.3-0.1,0.9-0.6,1.4-0.9c0.5-0.3,1.4-0.6,2-0.6c0.6,0,1.4,0.3,1.6,0.7c0.3,0.5,0.6,0.3,0.9-0.3
	c0.3-0.6,0.3-1.4,0-1.6c-0.1-0.3-0.1-0.5,0.1-0.5s0.5-0.1,0.5-0.3c0-0.1,0-0.3,0-0.1s0.1,0.1,0.1,0s0,0,0,0.1c0,0.1,0.6,0.3,1.2,0.3
	c0.6,0,1-0.3,0.9-0.3c-0.1-0.1,0-0.3,0.1-0.3s0.5-0.3,0.3-0.6c0-0.3-0.3-0.6-0.6-0.6c-0.3-0.1-0.3-0.3-0.1-0.5s0.1-0.3,0-0.6
	c-0.3-0.1-0.1-0.5,0.3-0.6c0.3-0.1,0.7,0,0.7,0.3c0,0.3,0.1,0.6,0.3,0.7s0.7-0.1,1.2-0.5c0.6-0.3,0.7-0.6,0.5-0.7
	c-0.3,0-0.7-0.3-1-0.7c-0.3-0.3,0-0.7,0.5-0.7c0.5,0,0.7,0,0.7,0l0,0c0,0,0.3,0,0.6,0c0.3,0,0.6,0.1,0.7,0.3
	c0.1,0.1,0.3,0.1,0.6-0.1c0.2-0.2,0.6-0.1,0.7,0c0.1,0.3,0.1,0.1,0.1-0.1c-0.1-0.5-0.3-0.9-0.3-1s-0.3-0.6-0.6-0.7
	c-0.3-0.3-0.3-0.9,0-1.4c0.3-0.5,0.7-1,0.9-1.4c0.3-0.3,0.1-0.5-0.1-0.5c-0.2,0-0.9-0.1-1.4-0.1c-0.3,0-0.9-0.1-1.4-0.5
	c-0.3-0.3-0.5-0.3-0.3-0.1c0.1,0.1,0.5,0.3,0.6,0.5s0.1,0.1,0,0.1s-0.7-0.3-1.2-0.6c-0.5-0.2,0-0.6,1-0.3c1,0.1,2.1,0,2.2-0.5
	c0.1-0.5,0.9-1,1.6-1.4c0.7-0.3,0.7-0.5,0.1-0.3c-0.6,0.1-1.4,0-1.5-0.3c-0.3-0.3,0-0.6,0.5-0.6c0.6,0,0.9-0.3,0.9-0.5
	c0-0.3-0.6-0.7-1-0.9c-0.6-0.3-0.9-0.5-0.7-0.5s0.5-0.3,0.6-0.7c0.1-0.5,0.5-0.6,0.6-0.5s0.5,0.1,0.6-0.1c0.1-0.2,0.3-0.5,0.3-0.3
	s0.3,0.3,0.9,0.3c0.5,0,0.9-0.3,0.7-0.5c0-0.3,0.1-0.6,0.5-0.9c0.3-0.1,0.7-0.6,1-0.7c0.3-0.1,0.5-0.5,0.5-0.7
	c-0.1-0.1,0.1-0.3,0.5-0.1c0.3,0,0.6,0,0.7,0c0,0,0-0.1-0.1-0.1c-0.1,0,0,0,0,0s-0.1-0.3-0.6-0.6c-0.5-0.2-0.6-0.7-0.5-0.7
	c0.1-0.1,0.6,0.1,1,0.5c0.3,0.3,0.9,0.1,1.4-0.3c0.5-0.6,0.7-1.8,0.7-2.7c0-0.9,0.5-2.1,0.9-2.5c0.5-0.5,0.3-1.2-0.3-1.6
	c-0.7-0.5-0.5-0.6,0.5-0.1c0.9,0.3,1.8-0.1,2-0.9c0.1-0.7,0.7-1.6,1.2-1.8c0.6-0.1,1.2,0.1,1.4,0.7c0.2,0.6,0.7,0.7,1.4,0.5
	c0.6-0.3,0.9-0.9,0.7-1.5s-0.7-1.5-1.4-2c-0.6-0.5-1.2-1.2-1.5-1.6c-0.3-0.5,0.1-1,0.9-1.2c0.7-0.1,1.8-0.5,2.4-0.5
	c0.5,0,0.6-0.3,0.1-0.5c-0.5-0.1-1-0.5-1.4-0.7c-0.3-0.3-0.5-0.5-0.3-0.6c0.1,0,0.1-0.1,0-0.3c-0.1,0,0.1-0.5,0.5-0.7
	c0.3-0.3,0.7-0.5,0.9-0.1c0.1,0.3,0.3,0.3,0.3,0c0-0.3,0-0.3,0.1,0c0,0.3,0.3,0.1,0.6-0.3c0.3-0.5,0.7-0.7,0.7-0.6
	c0.1,0.1,0.5,0.5,0.7,0.6c0.2,0.1,0.5-0.3,0.5-0.9c-0.1-0.6-0.5-1.2-0.6-1.2c-0.1,0-0.5,0-0.7-0.1s-0.9,0-1.4,0.1
	c-0.6,0.1-1.2,0.1-1.4,0.1s0.1-0.1,0.6-0.3c0.5-0.1,1.6-0.9,2.9-1.8c1.2-0.9,0.7-2.5-0.9-3.5c-1.6-0.9-3.6-1.8-4.5-1.6
	c-0.9,0.2-2.1,0.5-2.9,0.6c-0.7,0.1-1.6,0-2-0.6c-0.3-0.6-0.1-0.9,0.5-0.7c0.6,0.1,1.6-0.6,2.5-1.5c0.7-0.9,2.5-2,3.9-2.4
	c1.4-0.5,2.1-2,1.6-3.2c-0.5-1.4-1.4-3-2.2-3.6c-0.9-0.6-2.5-1.8-3.6-2.5c-1.2-0.7-2-1.2-1.8-1c0.1,0.1-0.6,0-2-0.3
	c-1.2-0.3-2.5-0.6-2.9-0.7s0.5-0.5,1.8-0.7c1.2-0.3,2.7,0,3.2,0.6c0.6,0.6,1.6,1,2.2,1s2.2,0.3,3.6,0.7c1.4,0.5,2.2,0,2-0.9
	c-0.3-0.9-1-1.8-1.6-2.1c-0.6-0.3-1.2-0.7-1.2-1c0-0.3-0.6-1-1.2-1.8c-0.6-0.7-1.6-1.6-2.2-2.1c-0.6-0.5-1.4-2.2-1.8-3.9
	c-0.5-1.6-1.4-4.6-2-6.5c-0.6-1.8-2.1-4.3-3.2-5.7c-1.2-1.4-3.2-3-5-3.6c-1.5-0.6-2.9-2-2.9-2.9c0-0.9,0.3-1.8,0.6-2
	c0.3-0.1,0.7-0.7,0.9-1.4c0.1-0.6,1.2-1.8,2.2-2.7c1-0.8,2-1.8,2-2.1s0.3-0.6,0.5-0.6c0.1,0,0.7-0.3,1-0.7c0.5-0.5,1-1,1.2-1.5
	c0.3-0.3,0.1-1-0.3-1.6c-0.5-0.6-0.5-1,0-0.9c0.5,0.1,0.7,0,0.9-0.3c0-0.3,0,0,0,0.6s0.6,0.6,1.5,0.1c0.9-0.6,2-1.2,2.4-1.6
	c0.5-0.3,0.6-1,0.5-1.5c-0.3-0.5,0.1-1,0.9-1.4c0.7-0.3,2.4-1,3.6-1.5c1.2-0.6,2.2-0.7,2.2-0.6c0,0.3,0.1,0.3,0.1,0.1s0.6-0.7,1.4-1
	c0.7-0.3,1.2-0.7,1-0.9c-0.1-0.1,0.1,0,0.3,0.1s0.7,0.1,1-0.1c0.3-0.2,0.6-0.3,0.7,0.1c0,0.5,0.5,0.6,1,0.5c0.5-0.1,1-0.3,1.4-0.3
	c0.3,0,0.5,0,0.5,0.1s0-0.1,0.1-0.5c0-0.3-0.1-0.6-0.5-0.6c-0.3,0-0.5-0.3-0.3-0.6c0.1-0.5,0.3-1.2,0.6-1.6c0.3-0.5,0.5-0.7,0.6-0.7
	s0.3-0.1,0.6-0.5c0.1-0.3-0.6-0.6-1.6-0.6c-1.2,0-2.4,0-2.9-0.1c-0.5,0-1.4-0.1-2.1-0.1c-0.7,0-2-0.6-2.7-1c-0.7-0.6-2-1.4-2.9-1.6
	c-0.9-0.5-3-0.5-4.6-0.3c-1.6,0.1-3.5,1-3.9,1.6c-0.5,0.6-1.4,2-2.4,2.9c-0.9,0.9-3,1-4.6,0.5s-2.4-2-1.6-2.9c0.7-0.9,0.7-2.5,0-3.7
	c-0.7-1.2-2.5-2.2-4-2.4c-1.5-0.1-3.9-1-5.5-2.2c-1.6-1.2-2.5-3.1-2.1-4.5c0.5-1.4,1-3,1.4-3.6c0.3-0.7,1.2-0.9,1.8-0.6
	c0.7,0.3,1.6,0.6,2.4,0.6c0.7,0,2-0.3,2.7-0.6c0.9-0.3,1.6-0.3,1.6-0.1c0,0.3,0.7-0.6,1.6-2c0.9-1.4,1.5-2.4,1.4-2.2
	c-0.1,0.2,0.5-0.6,1.2-1.5c0.7-0.9,2.4-2.2,3.6-2.9s3.1-2,4.2-2.7c1-0.7,2.9-2.4,3.9-3.5c1-1,2.7-2.5,3.5-3.1c0.9-0.6,2-0.9,2.5-0.7
	c0.6,0.3,1.4,0,2-0.3c0.6-0.5,1.2-0.1,1.5,0.6c0.3,0.7,0.9,1.5,1.2,1.6c0.5,0.1,0.6,0.5,0.6,0.6c0,0.1-0.1,1.4-0.3,2.4
	c-0.1,1.2-0.9,2.9-1.5,3.7c-0.7,0.9-1.8,2-2.4,2.2c-0.6,0.3-1,1.2-1,1.8c0,0.7-0.5,1.4-1.2,1.6c-0.7,0.2,0,0.7,1.6,1
	c1.6,0.3,2.2,0.9,1.5,1.4s-1.5,1.4-1.5,2s-0.9,1.5-2.1,2s-2,0.9-1.8,0.9c0.1,0,0.5,0.3,0.6,0.7s1.2,0.3,2.2,0c1-0.3,1.8-0.7,1.5-0.9
	c-0.3-0.2-0.1-0.5,0.3-0.6c0.3-0.1,0.6-0.5,0.6-0.5s0.1-0.1,0.3-0.1s0.6,0,0.7,0s0.7-0.5,1.4-0.9c0.6-0.5,2-1.6,2.9-2.4
	c0.9-0.7,2.4-2,3.2-2.4c0.9-0.5,2-1,2.5-1.4c0.6-0.3,1.2-0.5,1.4-0.5s0.3-0.1,0.1-0.5s0.3-0.3,0.6-0.5c0.3,0,0.7,0.1,0.7,0.5
	s0.5,0,1-0.5c0.5-0.6,2.2-1.5,3.9-2c1.6-0.6,3.1-0.7,3.5-0.6c0.3,0.1,0.5,0.9,0.3,1.5c-0.1,0.6,0.1,1.6,0.6,2.2
	c0.5,0.6,0.9,0.9,1.2,0.3c0.3-0.6,1.8-0.6,3.2,0c1.6,0.6,2.7,1.5,2.4,1.8c-0.3,0.3-0.1,0.9,0,1c0.3,0.1,0.5,0.3,0.3,0.3
	c-0.1,0-0.3,0.7-0.5,1.6c-0.1,0.7-0.5,2.2-0.7,3c-0.3,0.9-0.3,1.8-0.1,2c0.1,0.3,0.9,0.6,1.8,0.9c0.7,0.1,0.5,0.3-0.7,0.1
	c-1.2-0.1-2.5,0-2.9,0.1c-0.3,0.1-0.6,1.2-0.6,2.2s-0.6,2.1-1.4,2.4c-0.7,0.3-0.1,0.7,1.2,0.9c1.4,0.1,2.4,0.6,2.1,0.7
	c-0.1,0.3-0.7,0.6-1.2,0.7c-0.5,0.1-0.3,0.3,0.3,0.3c0.7,0,1.2,0.1,1,0.6c-0.1,0.5,0.1,0.6,0.5,0.5c0.3,0,0.6-0.1,0.6-0.1
	s0,0.1,0,0.3c0,0.2,0,0.6-0.1,0.9c-0.1,0.3,0.5,0.3,1,0.1c0.6-0.3,1.2-0.9,1.2-1.4c0-0.5,0.3-0.9,0.5-0.9c0.1,0,0.1-0.3-0.1-0.5
	c-0.2-0.1,0.1,0,1,0.6c0.9,0.6,1.6,0.9,1.6,0.6c0-0.3,0.3,0,0.7,0.5c0.5,0.5,1.8,0.7,3,0.5c1.2-0.3,2.4,0,2.5,0.5
	c0.1,0.6-0.1,1-0.6,0.9c-0.5-0.1-0.6,0.6-0.1,1.4c0.5,0.7,1,1.6,1.4,2c0.3,0.3,0.3,0.6-0.3,0.6c-0.5,0-0.7,0.1-0.6,0.3
	c0.1,0.1,0.1,0.3,0,0.5s-0.1,0.3-0.1,0.5s0.5,0,0.9,0c0.5,0,0.7-0.1,0.7,0.1c0,0.1,0.1,0.6,0.1,0.9c0,0.3,0,0.5-0.3,0.5
	c-0.1,0,0,0.1,0.6,0.1c0.5,0,0.6,0.5,0.3,0.9c-0.3,0.5-0.6,1-0.7,1.2s-0.3,0-0.3-0.5c0-0.5-0.1-0.7-0.3-0.7c-0.1,0.1-0.5,0.1-0.7,0
	c-0.3,0-0.9-0.5-1.2-0.9c-0.3-0.5-0.5-0.5-0.1,0c0.1,0.5,0.1,0.9,0,1c-0.3,0.1-0.7,0-1-0.5c-0.3-0.5-0.5-0.5-0.3-0.1
	c0.1,0.3,0.1,0.7,0,0.7c-0.1,0-0.3,0.1-0.1,0.5c0.2,0.3,0,0.3-0.1,0.3s-0.3-0.5-0.1-0.9c0.1-0.5,0-0.6-0.1-0.1
	c-0.1,0.5-0.3,0.9-0.5,0.9c0,0.1-0.1,0.1-0.3,0c-0.2-0.1-0.3,0.1-0.3,0.5c0,0.3-0.1,0.5,0,0.3c0-0.1,0.1-0.1,0.1,0
	c0,0.1,0.1,0.3,0.5,0.1c0.3,0,0.6,0.3,0.6,0.6c0,0.5,0.1,0.3,0.3-0.1c0.1-0.5,0.5-0.5,0.6-0.1c0.1,0.5,0.3,0.3,0.5,0
	c0.1-0.3,0.5-0.1,0.7,0.7c0.3,0.9,0.5,1.8,0.1,2.2c-0.3,0.5-0.3,1,0,1.5c0.3,0.5,0.1,0.9,0,1c-0.3,0.1,0.3,0.5,1,0.6
	c0.7,0.1,0.9,0.6,0.1,0.7c-0.7,0.3-0.9,0.6-0.1,0.9c0.7,0.1,1,0.5,0.7,0.6s-0.5,0.5-0.3,0.7c0.1,0.1-0.1,0.7-0.9,1.2
	c-0.7,0.5-0.7,0.9-0.3,1.2c0.5,0.3,0.5,0.7-0.1,1.4c-0.6,0.7-1.2,1.2-1.6,1.5c-0.3,0.3-0.5,1-0.1,1.6c0.3,0.6,0.3,0.7,0.1,0.5
	c-0.1-0.3-0.5-0.5-0.5-0.1c-0.1,0.3-0.1,0.7-0.1,0.9s0.3,0.5,0.6,0.3c0.3,0,0.5,0.5,0.3,0.9c-0.1,0.6,0,0.9,0.3,0.9s0.5,0,0.5,0
	s0.1-0.1,0.3-0.5c0.1-0.3,0.5-0.5,0.7-0.1c0.3,0.3-0.1,0.6-0.9,0.7c-0.7,0.1-0.7,0.6-0.1,0.9c0.6,0.3,0.9,0.6,0.7,0.6
	s-0.6-0.1-1-0.5c-0.3-0.3-0.5-0.1-0.3,0.1c0.1,0.2,0,0.3-0.5,0c-0.5-0.3-0.5-0.1,0.3,0.1c0.7,0.3,1.2,1.4,1,2.1
	c-0.1,0.7,0.5,0.7,1-0.1c0.6-0.7,1.4-1,1.5-0.6c0.3,0.5,1,0.5,1.6,0c0.7-0.5,1.4-1,1.4-1c0-0.1,0-0.1,0.1-0.1s0,0.1,0,0.1s0,0.1,0,0
	c0,0,0.3,0.3,0.6,0.7c0.3,0.5,0.5,0.6,0.5,0.1c0-0.3,0.3-0.7,0.6-0.7s0.3-0.5,0-0.9c-0.3-0.5-0.5-0.9-0.1-1c0.1-0.1,0.1-0.3,0-0.3
	c-0.1-0.1,0-0.3,0.5-0.5c0.3-0.1,0.9,0.3,1.2,1s0.7,0.9,1,0.1c0.3-0.8,0.1-1.4-0.1-1.6c-0.5-0.3-0.6-0.6-0.3-0.7
	c0.3-0.1,1.2-0.5,2-0.7c0.7-0.3,2-0.1,2.5,0.1c0.6,0.2,1.2,0.9,1.5,1c0.1,0.3,0.5,0.3,0.5,0.1c0.1-0.1,0-0.5-0.1-0.7
	c-0.1-0.3,0.1-0.6,0.7-0.7c0.6-0.1,1-0.6,0.9-1c-0.1-0.5,0-0.6,0.1-0.3c0.1,0.3,0.3,0.5,0.5,0.3c0.1-0.1,0.6-0.1,1.2-0.1
	c0.6,0,1.2,0.3,1.2,0.5s0.9-0.6,1.6-2c0.9-1.4,2-3.7,2.2-5.2c0.3-1.5,0.6-2.5,0.3-2.4c-0.3,0.1-0.5-1.6-0.5-4v-0.5
	c0-2.4-0.9-6.2-2.1-8.6l-2-3.7c-1.2-2.2-3.1-5.7-4.5-7.7l-0.3-0.5c-1.4-2.1-3.2-4.6-4.5-5.5c-1.2-0.9-2.2-2.1-2.5-2.7
	s-0.3-0.9-0.3-0.9c0.1,0,0.1-0.9,0-2.1c-0.1-1.2,0.7-2.9,1.8-3.6c1.2-0.7,2.7-1.8,3.6-2.1c1-0.3,2.2-0.7,2.7-0.9
	c0.5-0.3,0.9-0.7,0.9-1s0.9-1.2,1.8-1.8c0.9-0.6,2.1-1.6,2.5-2.2c0.5-0.6,1.6-1.8,2.9-2.7c1.2-0.9,2.2-2.4,2.2-3.2
	c0.1-1,0-2.1-0.3-2.5c-0.3-0.5,0-1.8,0.7-3.1c0.7-1.3,1.8-3.1,2.5-4c0.7-0.9,1.6-2,2.1-2.4c0.3-0.5,1-0.7,1.6-0.6
	c0.6,0.1,0.7-0.7,0.5-1.8c-0.2-1.2-0.9-2.2-1.2-2.4c-0.2-0.2,0.7-1,2.4-2c1.6-0.9,3.1-2.9,3.5-4.3c0.1-1.5,0.5-4.3,0.6-6.2
	c0.1-2-0.1-5-0.6-6.6c-0.5-1.6-0.3-3.9,0.1-4.7c0.5-1,1.5-2.2,2.2-2.9c0.7-0.6,1.8-1.5,2.2-2.1c0.5-0.6,1.5-0.6,2.5-0.1
	c0.9,0.5,2.9,1.2,4.3,1.6c1.5,0.5,3.1,0,3.7-1c0.6-1,1.5-2.4,2-3.1c0.5-0.7,1.2-1.5,1.5-1.6c0.3-0.1,0.6-0.7,0.6-1.4
	c0-0.7,0.7-2.1,1.5-3.6c0.7-1.4,1.5-3,1.6-3.2c0.1-0.5,0.1-1.2,0.1-1.6c0-0.5,0.1-1.4,0.6-2.1c0.3-0.7,0.7-2,0.9-3
	c0.1-0.9,0.5-2.2,0.7-3c0.2-0.8,0.7-2,1-2.5c0.3-0.7,1.4-2.2,2.2-3.5c0.9-1.2,1.4-2.9,0.9-3.6s-0.5-2.1,0-3c0.3-0.9,0.3-2-0.1-2.2
	c-0.5-0.3-1.2-0.6-1.8-0.5c-0.6,0-2.1,0.5-3.2,0.7c-1.2,0.5-3.7,1.2-5.5,2c-1.8,0.7-4,1.8-4.7,2.5c-0.7,0.7-2.9,1.6-4.5,2.1
	s-4.6,0.7-6.6,0.6c-2,0-3.7-0.6-3.9-1c-0.2-0.5-0.9-1.8-1.4-2.7c-0.6-0.9-0.9-2.5-0.6-3.7c0.1-1.2,0.1-2.4-0.1-2.7
	c-0.3-0.3-0.5-1.4-0.3-2.4c0.1-1-1.5-3.1-3.6-4.5l-1.6-1c-2.1-1.4-4-2.5-4.5-2.7c-0.5-0.1-1.2-0.1-1.8-0.1c-0.7,0-1.6-0.1-2.2-0.5
	c-0.6-0.3-1.4-1-1.5-1.4c-0.1-0.5-2.1-0.9-4.3-1c-2.2-0.1-4.5-0.9-5.1-1.6c-0.6-0.7-0.9-2.2-0.9-3.5c0.1-1-0.3-2.5-0.9-3.2
	c-0.6-0.7-1-2.1-1.2-3.1c0-1-0.6-2.7-1.2-3.9c-0.6-1.2-1.4-2.7-1.5-3.6c-0.1-0.7-0.3-2-0.3-2.5s-0.1-0.7-0.5-0.6
	c-0.3,0.3-0.5-0.1-0.6-0.9c-0.1-0.7-0.3-1.6-0.5-2c-0.1-0.3-0.3-1-0.3-1.5c0-0.6-0.5-2-1-3.1s-1.4-2.9-1.6-3.5
	c-0.3-0.7-0.5-1.5-0.1-1.6c0.3-0.1,0.3-0.9-0.1-1.5c-0.3-0.6-1-1.6-1.5-2.1c-0.5-0.6-1-1-1.4-1.2c-0.3-0.1-0.1-0.6,0.1-1
	c0.2-0.5-0.3-1.2-1.4-1.8c-1-0.5-3.2-1.6-5.1-2.4c-1.8-0.9-4-2-5.1-2.4c-1-0.5-2.1-1.2-2.4-1.5s-0.7-0.7-1-0.7c-0.3,0-1-0.5-1.6-0.9
	c-0.6-0.5-1.5-0.9-2.1-1.2c-0.6-0.3-1.4-0.6-1.5-0.6c-0.3,0-2.5,0.1-5,0.3l-1.8,0.1c-2.4,0.3-6,0.9-7.7,1.5c-1.8,0.6-4.5,1.4-6,1.6
	c-1.5,0.3-3.5,1.4-4.2,2.4c-0.9,1-2.2,2.7-3,3.5c-0.7,0.9-0.6,2,0.5,2.4c1,0.5,2.2,1.4,2.7,2.1c0.5,0.7,0.7,2.2,0.9,3.6
	c0.1,1.4-1,4-2.5,5.8l-0.5,0.6c-1.5,2-3.6,5.4-4.6,7.6l-0.5,1c-1,2.2-2.5,5.4-3.2,6.7c-0.9,1.5-1.2,3-0.6,3.2s0.7,1.2,0.6,2.1
	c-0.1,0.7-1.6,2-3.2,2.5c-1.6,0.6-4,2.1-5.2,3.2c-1.4,1.2-3.6,2.1-5.2,2c-1.6-0.1-4.3-1-5.8-2.1c-1.6-1-4.5-1.8-6.2-1.8
	c-1.8,0-5.2-0.7-7.6-1.5l-3.7-1.4c-2.2-0.9-5.8-0.6-8,0.6c-2.2,1.2-5.1,3.2-6.7,4.7c-1.6,1.4-4.6,2.9-6.7,3.1
	c-2.1,0.2-5.2,1.2-7.1,2c-1.8,0.7-4.5,1.2-6,1.2c-1.5,0-3.1,0-3.6,0.3s-1.8,0.1-2.9-0.1c-1-0.2-3.9-1.2-6.2-2l-4-1.2
	c-2.4-0.7-4.6-2.2-5.2-3.6c-0.6-1.4-2.1-2.5-3.7-3c-1.6-0.5-3.9-1.5-5-2.5c-1.2-1-3-2-3.9-2c-1,0-2.5-0.3-3.5-0.6
	c-0.9-0.3-3.6-0.3-6.1,0.1l-4.3,0.7c-2.4,0.5-5.8,1-7.5,1.2c-1.6,0.3-3.6,0.1-4.3-0.3c-0.7-0.5-2-0.9-2.7-1c-0.7-0.1-2.4-2-3.7-4
	l-1.2-2c-1.4-2.1-2.7-4.7-3.1-6.1c-0.5-1.2-2.4-2.7-4.3-3.1c-2-0.5-5.5-1.6-7.7-2.5l-5.4-2c-2.4-0.9-5.1-2.1-6.2-2.9
	c-1.2-0.7-2.5-0.5-3.1,0.6c-0.6,1-1.8,2.2-2.5,2.9c-0.7,0.5-1.8,1.5-2.2,2.4c-0.5,0.9-1.4,2.9-2.2,4.3c-0.7,1.5-0.9,4-0.3,5.5
	s1.5,3.1,2,3.7c0.5,0.5,0.6,1.8,0.5,2.9s-0.9,2.5-1.5,3.2c-0.6,0.7-1.6,1.5-2.4,1.6c-0.7,0.1-2.2,0.6-3.6,1
	c-1.2,0.5-3.2,0.5-4.5,0.1c-1.2-0.3-3.1-0.7-4.3-1s-2.4-0.6-2.7-0.6c-0.3,0-1.4,0.1-2.5,0.5c-1,0.3-2.9,0.1-3.9-0.3
	c-1-0.5-2.9-1.2-3.9-1.6c-1.2-0.5-2.5-2-3-3.5c-0.5-1.4-2.9-2.9-5.2-3.2l-1.5-0.1c-2.4-0.3-4.6-1-5-1.4c-0.3-0.5-0.7-0.5-1.2-0.1
	s-1.4,0.1-2.2-0.5s-2.4-0.6-3.5,0c-1,0.5-2.7,1.6-3.7,2.4c-1,0.9-2.9,1.8-4.2,2.2c-1.2,0.5-3.2,1.4-4.6,2c-1.4,0.7-2.9,1.5-3.2,1.8
	c-0.5,0.3-1.2,0.7-1.5,1.2c-0.3,0.5-1,1-1.8,1.5c-0.8,0.5-1.5,1.4-1.6,2.1c-0.1,0.7-1,1.4-2,1.6c-0.9,0.1-1.8,0.7-2,1.2
	c-0.3,0.5-0.7,0.7-1.4,0.6c-0.5-0.1-0.9,0-0.9,0.3s-1,0.5-2.2,0.3c-1.2-0.1-2.7,0.5-3.2,1.2c-0.6,0.7-2,1.6-3,2.1
	c-1,0.5-2.7,0.6-3.6,0.3c-0.9-0.3-2.2-0.9-2.9-1.4c-0.6-0.5-1.5-1.2-1.8-2c-0.3-0.7-0.9-1.4-1.4-1.5c-0.5-0.3-0.6-0.7-0.3-1
	c0.1-0.3,0.1-0.9-0.3-1c-0.3-0.3-1.4,0.3-2.2,1.4c-0.9,1-2.1,1.6-2.5,1.5c-0.5-0.1-1.4-0.5-2-0.7c-0.6-0.3-1.5-0.5-2.4-0.5
	c-0.7,0-2-0.6-2.5-1.4c-0.6-0.7-1.4-1.5-1.6-2c-0.3-0.5-0.5-1.2-0.5-1.5c0-0.5-1.2-1.5-2.9-2.4c-1.6-0.9-3.2-2.9-3.7-4.2
	c-0.5-1.4-1.8-3.2-2.9-4.2c-1-0.9-3.1-1.6-4.5-1.6c-1.4,0-2.9,0-3.2,0.1c-0.3,0.1-0.9,0.3-1.2,0.6c-0.3,0.3-0.7,0.7-1,1
	c-0.3,0.3-1,0.6-1.5,0.5c-0.5-0.1-2-0.1-3-0.1c-1.2-0.1-2.9-0.3-3.7-0.3c-0.9-0.1-1.6-0.6-1.8-1.2s-0.6-0.9-1-0.9
	c-0.5,0-1-0.5-1-1.2c0-0.7-0.6-1.8-1.2-2.2c-0.6-0.6-1.4-1-1.8-1c-0.5,0-0.9,0-1.2,0.1c-0.1,0.1-0.7,0.6-1.4,1c-0.5,0.5-1,1.4-1,2.1
	c-0.1,0.7-0.7,2-1.4,2.5c-0.6,0.6-1.8,0.1-2.5-1.2c-0.7-1.4-2.4-4.3-3.5-6.5l-1-2.2c-1-2.2-3-5.8-4.2-8l-5.5-9.6
	c-1.2-2.1-3.5-5.2-5-6.8c-1.5-1.6-4.2-4.3-6-5.8c-1.8-1.6-2.7-3.5-2.2-4c0.6-0.6,1.2-2,1.6-3c0.3-1,0.1-1.8-0.3-1.5
	c-0.5,0.3-1.4,0.6-2,0.9c-0.5,0.1-1.4,0.5-1.8,0.7c-0.5,0.1-1.2,0.6-1.8,1c-0.6,0.5-2,1-3.1,1.5c-1.2,0.5-2.5,1.4-3,2.1
	c-0.5,0.7-1.5,1.5-2.4,1.8c-0.9,0.3-2.2,0.9-3,1.5c-0.7,0.6-1.5,1.2-1.8,1.4c-0.3,0.1-0.6,0.6-0.6,1c0,0.5-0.5,0.6-1.2,0.3
	c-0.6-0.3-1.4-0.6-1.5-0.7c-0.3-0.1-1.2,0-2.1,0.3c-0.9,0.3-2.1,0.9-2.7,1.4c-0.6,0.5-1.4,0.1-1.6-0.6c-0.3-0.7-0.5-1.8-0.3-2.1
	c0.1-0.3,0.6-0.9,0.7-1.4c0.3-0.5,0.7-0.7,1.2-0.9c0.5,0,1-0.6,1.4-1.4c0.3-0.7,0-1-0.6-0.7s-2,0.5-3,0.1c-1-0.3-2.2-0.7-2.9-1.2
	c-0.6-0.5-1.5-0.5-2.1-0.1c-0.6,0.5-0.7,0.9-0.3,1.2c0.5,0.3,0.3,0.6-0.5,0.7c-0.6,0.1-1.2-0.3-1.2-0.7c0-0.6,0-1.2,0.1-1.4
	c0.1-0.2-0.1-0.5-0.5-0.6c-0.3-0.1-1.2-0.9-1.8-1.6c-0.6-0.7-0.9-0.7-0.5,0c0.3,0.7,0.1,1-0.6,0.9c-0.6-0.1-2,0-2.7,0.6
	c-0.9,0.5-1.6,0.6-2,0.3c-0.3-0.3-0.7-0.3-1.2,0c-0.5,0.3-1.2,0-1.6-0.6c-0.5-0.6-0.6-1.5-0.1-1.8c0.5-0.3,0.7-1.2,0.6-2
	c0-0.7,0-1.8,0-2.5c0-0.6-0.3-1.6-0.7-2.2c-0.5-0.6-1-1.8-1-2.5s-0.9-2.1-1.8-2.9c-0.9-0.7-2.4-1-3.5-0.6c-1,0.5-3,0.1-4.3-0.6
	c-1.3-0.7-3-1.4-3.6-1.2c-0.6,0.1-1.4,0-1.6-0.1c-0.3-0.1-0.7,0-1.2,0.3c-0.3,0.5-1,0.5-1.6,0.1c-0.6-0.3-2.1,0.1-3.2,0.9
	c-1.2,0.8-2.1,2-2,2.5s-0.3,1.4-1,1.5c-0.7,0.1-1.6,0.6-2.2,1c-0.6,0.5-1.6,0.7-2.5,0.7c-0.9,0-2.1,0.3-2.9,0.7
	c-0.7,0.5-2.2,0.9-3.5,1c-1.3,0.1-2.9,0.6-3.6,0.9s-1.8,0.3-2.2,0.1c-0.5-0.1-1-0.3-1.5,0.1c-0.5,0.3-1.4,0.6-2,0.6
	c-0.7,0-1.5,0.1-1.6,0.5c-0.1,0.3-0.7,0.6-1,0.9c-0.3,0.1-0.9,0.9-1.2,1.6c-0.3,0.7-0.7,1-1,0.7c-0.3-0.3-0.9-0.5-1.4-0.3
	c-0.5,0.1-2.2,0.5-3.9,0.6c-1.7,0.1-4,0.6-5.5,1.2c-1.4,0.5-3,0.9-3.6,1c-0.6,0.1-1,0.3-1,0.6c0,0.3-0.9,0.6-1.8,0.7
	c-1,0.1-2.1,0.7-2.4,1.4c-0.3,0.6-0.7,0.9-1,0.7c-0.3-0.1-0.9-0.5-1.2-0.7c-0.3-0.3-1.2-0.1-1.8,0.3c-0.6,0.5-1.5,0.6-2,0.3
	c-0.5-0.3-1.2-0.3-1.6-0.1c-0.5,0.1-1.2,0-1.6-0.3s-1.2-0.3-1.6,0.1c-0.5,0.5-1.2,0.6-1.6,0.6c-0.5,0-0.7,0.1-0.6,0.5s0.5,0.7,0.6,1
	s-0.1,1-0.7,1.6s-0.3,1.4,0.6,1.6c1,0.3,2.2,0.6,2.9,0.5c0.6,0,0.6,0.1,0,0.5c-0.5,0.3-1.2,0.9-1.6,1.4c-0.5,0.3,0.3,1.2,1.6,2
	c1.4,0.7,2.9,2,3.5,2.9s0.5,1.6-0.5,1.6c-0.9,0-2.7,0-4.2,0s-3,0.5-3.5,1c-0.5,0.7-0.7,1.8-0.9,2.4c-0.1,0.6,0.3,2.1,0.7,3.2
	c0.6,1.2,0.3,2.5-0.6,3.1s-2.4,1.5-3.5,2.1c-1,0.6-2.1,1.4-2.4,1.6c-0.3,0.3,0.1,1,1.2,1.5c1,0.5,1.6,1.2,1.5,1.5
	c-0.1,0.3,0.6,0.9,1.6,1c1.2,0.1,2.5,0.7,3.2,1.2c0.6,0.5,1.6,1.2,2.4,1.5c0.6,0.3,1.6,0.9,2.1,1.5c0.5,0.5,0.5,2.2-0.3,3.9
	c-0.6,1.6-3.1,3.2-5.5,3.6c-2.4,0.5-5.1,0.6-6,0.5c-0.9-0.1-2,0.5-2.4,1.2c-0.5,0.7-1.4,1.4-2,1.5c-0.7,0-1-0.1-0.9-0.3
	c0.1-0.3-0.3-0.7-1-0.9c-0.7-0.3-2.2-0.9-3.5-1.5c-1.2-0.5-2.5-1.8-3.1-2.9c-0.6-1-1.6-1.8-2.4-1.8s-2,0.1-2.9,0.3
	c-0.7,0.1-2.1,0.7-2.9,1.4c-0.7,0.6-2,0.6-2.7-0.3c-0.7-0.7-2.1-1.2-3-0.7c-0.9,0.5-2.2,0.6-2.9,0.5c-0.6-0.1-1.5,0.1-1.8,0.6
	c-0.3,0.5-0.7,0.9-1,0.9s-1.6,0.9-3.1,2c-1.5,1-3.9,0.9-5.4-0.3c-1.5-1.2-3.2-2.4-3.9-2.7c-0.6-0.3-1,0-0.9,0.5
	c0.1,0.5-0.1,1.8-0.5,3c-0.5,1.2-0.7,1.2-0.7,0c0-1.2-0.5-2.4-1-2.7c-0.5-0.3-1.2-1-1.5-1.5c-0.3-0.5-1.5-1.6-2.5-2.5
	c-1-0.9-2.9-2.1-3.9-2.5c-1-0.5-2.9-0.9-3.9-0.9s-2.5-0.7-3.5-2c-0.9-1-2-1.6-2.4-1.4c-0.5,0.5-1.2,0.7-1.6,0.7
	c-0.5,0-0.9,0.5-1.4,1.2c-0.3,0.6-1.5,1.2-2.5,1.4c-1,0-1.8-0.3-1.6-0.7c0.1-0.5-0.3-1-0.9-1.4c-0.7-0.3-2-0.6-2.7-0.7
	c-0.7-0.1-1.5,0.1-1.6,0.7c-0.1,0.6-0.5,0.9-0.6,0.6c-0.1-0.1-0.5,0.1-0.6,0.7c-0.1,0.6-0.7,1.5-1.4,2.1c-0.6,0.6-2,1.6-3.1,2.2
	c-1,0.6-2.5,1.4-3.2,1.4c-0.7,0.1-1.5,0.6-1.6,1.2s-0.6,1.5-1,2c-0.3,0.6-1.4,1.5-2.1,2.1s-2,1-2.7,1s-1,0.7-0.6,1.8
	c0.3,1,0.9,2.7,1.2,3.6c0.3,0.9-0.5,2.4-1.6,3.2c-1.2,0.9-3.2,0-4.6-2c-1.4-2-3.5-2.2-4.6-0.9c-1.2,1.4-2.9,3-3.6,3.6
	c-0.7,0.6-1.5,1.8-1.6,2.9c-0.1,1-0.1,3.2,0.1,5c0.3,1.8-0.3,5-1.2,7.1c-1,2.1-0.9,4.2,0.1,4.5c1,0.5,2.4,1.4,2.9,2.1
	c0.6,0.7,1,2.2,1,3.5c0,1,0.6,1.8,1.2,1.5c0.6-0.3,2.2-0.1,3.5,0.1c1.3,0.2,3.1,1.4,4,2.4c1,1,2.5,3.1,3.5,5c0.9,1.6,1.4,3.7,1,4.5
	c-0.3,0.7-0.9,1.6-1.4,2c-0.5,0.3,0.5,1.2,2,2.2c1.6,0.9,2.9,1.4,2.9,0.9c0-0.5,0.3-0.6,0.6-0.3c0.3,0.3,0.6,0.3,0.7,0
	c0-0.3,0-0.9-0.3-1.2c-0.1-0.3,0-0.7,0.3-0.7s0.9,0.1,1.2,0.6c0.3,0.3,0.6,0.3,0.6,0c0.1-0.3,0.3-0.5,0.6-0.5c0.1,0,0.7,0,1.2-0.1
	c0.5-0.1,1.4-0.6,2.1-1c0.7-0.5,1.5-0.9,2-1.2c0.3-0.3,1-0.6,1.5-0.9c0.5-0.3,0.7-0.3,0.7-0.1s0.3,0,0.6-0.1
	c0.5-0.3,2.4-0.6,4.3-0.9c2-0.3,3.7-0.6,3.7-0.7c0.1-0.1,0.6,0,1.2,0.3c0.6,0.3,0.9,0.7,0.7,0.9s0.1,0.1,0.5,0
	c0.5-0.1,1-0.1,1.4,0.1c0.3,0.1,1.4,0,2.1-0.3c0.7-0.5,2.2-0.6,3.1-0.5s2.1,1,2.7,1.8c0.5,0.7,0.6,2.1,0.1,2.7
	c-0.5,0.7-0.6,1.2-0.3,1c0.3-0.1,0.3,0,0.1,0.1c-0.1,0.1-0.6,2.2-1,4.5c-0.5,2.4-0.7,5-0.9,5.8c0,0.9,0.7,1.8,1.6,2.1
	c0.9,0.3,0.7,0.6-0.5,0.7c-1.2,0.1-3.9-0.1-6.1-0.5s-4.6-0.3-5.4-0.1c-0.7,0.1-1.6,1.4-2,2.5s-1.2,2.2-2,2.4c-0.7,0.1-1,0.7-0.9,1.4
	c0.3,0.6,1.4,1.6,2.5,2.5c1.2,0.9,1.6,1.5,1,1.5c-0.6,0-1.8-0.3-2.9-0.5c-1-0.1-2.5-0.5-3.5-0.6c-0.9-0.1-2.1-0.1-2.7,0.1
	c-0.6,0.3-0.6,1.2,0.1,2.2c0.7,1,2,2.4,2.7,3.2c0.7,0.7,2.1,2.7,2.9,4c0.7,1.5,1.5,3.6,1.8,4.7c0.1,1.2,0.9,2.2,1.6,2.4
	c0.7,0.1,2,0.9,2.9,2c0.9,1,1.8,1.6,2.4,1.8c0.6,0,1.4,0.1,1.8,0.1c0.5,0,1.2,0.5,1.5,0.7c0.3,0.5,0.5,2.7,0.3,5.2l-0.1,1.4
	c-0.1,2.4,0.5,6.2,1.4,8.6s1.6,2.9,1.6,1.5s-0.3-2.9-0.5-3.2c-0.1-0.5,0.5-1.8,1.5-3.1c1-1.4,3.1-2.2,4.6-2.1
	c1.5,0.1,3.2,1.8,3.9,3.6c0.6,1.8,1.8,3.9,2.5,4.5c0.7,0.6,1.8,1.6,2.2,2c0.3,0.5,0.6,1.2,0.6,2c0,0.6-0.5,1-1,1
	c-0.6-0.1-1.2,0-1.6,0.1c-0.5,0.1-0.3,0.6,0,0.9c0.3,0.3,0.6,0.7,0.6,0.9s-0.7,0.1-1.5,0c-0.7-0.1-2.1-0.1-2.9,0
	c-0.7,0.1-1.6-0.1-2-0.7c-0.3-0.6-0.9-0.9-1.5-0.9c-0.6,0-1.2,0.3-1.5,0.5s-0.5,0.3-0.5,0.1c0-0.1-0.1-0.3-0.5-0.6
	c-0.3-0.3-1-0.9-1.5-1.5c-0.5-0.6-1.2,0.6-1.6,2.7c-0.5,2.1-0.3,5.4,0.5,7.3c0.7,2,1.4,3.2,1.4,3.2s-0.1-0.7-0.5-1.5
	c-0.3-0.7-0.3-1.4,0.1-1.2c0.5,0.1,0.6,0.1,0.6,0.3c0,0.1,0.9,0.1,2.1,0.1c1.2,0,1.8,0.5,1.4,1c-0.5,0.6-0.6,1.4-0.5,1.8
	c0.1,0.5,0.5,0.7,0.6,0.7c0.1,0,0.3-0.1,0.3-0.3c0-0.1,0.3,0.1,0.7,0.6c0.5,0.5,0.6,1,0.1,1.2c-0.3,0.1-1.2-0.1-1.8-0.7
	c-0.6-0.6-1.2-0.3-1.5,0.6c-0.1,0.9,0.3,1.6,1,1.6s1.4,0.3,1.5,0.7c0,0.5,0.3,1,0.5,1.5c0.3,0.3,0.6,0.1,0.6-0.3
	c0.1-0.5,0.1-0.5,0.1,0.1s0.1,1,0.5,1.2c0.3,0.1,0.6,0.7,0.9,1.4c0.3,0.6,0.1,2.7,0,4.6c-0.3,2-0.1,5.4,0.1,7.5
	c0.2,2.1,1.8,3.7,3.2,3.6c1.5-0.1,3.6-1.4,4.5-2.7c1-1.4,3.2-2.9,5.2-3.5c2-0.6,4-0.9,4.7-0.9s1.5-0.1,1.8-0.5
	c0.3-0.3,1.8-0.6,3.5-0.7s3.6,0.1,4.2,0.6c0.6,0.5,2.2,1.4,3.6,2c1.4,0.6,3.5,1.6,4.5,2.1c1.2,0.6,3.2,1.2,4.7,1.4
	c1.5,0.1,3.5,1.2,4.3,2.2c0.9,1,2.7,2.5,4.2,3.5c1.4,0.9,3.2,2.2,4.2,3c0.9,0.7,2.9,1.5,4.3,1.5c1.5,0,2.9,1.2,3,2.7s0.1,3,0,3.5
	c-0.1,0.5,0,0.9,0.3,1.2c0.3,0.3,0.5,1,0.6,2c0,0.7-0.3,2.5-0.6,3.9c-0.5,1.4-1.5,3.7-2.4,5.4c-0.9,1.6-1.4,3.5-0.9,4s0,2.1-0.9,3.2
	c-0.9,1.4-0.9,3.1,0.1,4c1,0.9,1.4,2.2,0.7,3c-0.7,0.8-1.2,2.2-1.2,3.2c0,1,0.3,3.2,0.6,5c0.5,1.6,0.7,4.2,0.7,5.7
	c0,1.5,1.2,3.2,2.7,4c1.5,0.7,3.1,3,3.6,4.7c0.5,2-0.5,5-2.1,6.7c-1.6,1.8-2.4,4.6-1.6,6.1c0.7,1.5,2.4,4.5,3.9,6.6l0.5,0.7
	c1.4,2.1,3.6,4.2,4.7,4.7c1.2,0.6,2.7,1.2,3.1,1.5c0.5,0.3,1.2,1.6,1.4,3.2c0.1,1.6,0.7,3.6,1.2,4.6c0.5,1,1.4,1.8,2,2
	c0.6,0.1,1,0.5,1,0.9c0,0.3-0.5,1.5-0.7,2.7c-0.5,1-2,2.1-3.2,2.2c-1.5,0.1-3,0.7-3.5,1.2c-0.5,0.5-1.2,1-1.8,1.2
	c-0.7,0.1-1.6,2.2-2.5,4.5l-0.6,1.5c-0.7,2.4-1.2,4.2-0.7,4.3c0.5,0,0.7,0.3,0.6,0.6c-0.1,0.3,0.5,0.5,1.4,0.5
	c0.7-0.1,1.8-0.1,2.1-0.1s1.4-0.3,2.1-0.7c0.7-0.5,2.5-0.7,3.9-0.7s2.9,0.1,3.5,0.3c0.5,0.1,1,0,1-0.1c0.1-0.1,0.7-0.5,1.5-0.6
	c0.7-0.1,1.6-0.5,2.1-0.6c0.5-0.1,1-0.5,1.5-0.5c0.5-0.1,1.8,0.5,3,1c1.2,0.6,3.5,0.7,4.7,0.3c1.4-0.5,3.6-0.9,4.7-0.9
	c1.2,0,2.9,0,3.5,0c0.7,0,2.1,1,3.2,2.4c1.2,1.4,2.5,2.5,3.2,2.5s1.8,0.1,2.5,0.5c0.7,0.3,1.2,0.7,1.2,1.2s0,1,0.1,1.4
	c0.1,0.5,0.3,0.9,0.5,1c0.1,0.3,0.6,1,1,1.6c0.5,0.6,0.7,1.5,0.7,1.8c0,0.3-0.1,0.7-0.3,0.7s-0.1,0.1,0,0.1s0.5-0.1,0.7-0.1
	c0.3-0.1,0.6,0.1,0.6,0.5s0.5,0.3,0.9,0.1c0.5-0.1,1-0.1,1.4,0.1c0.3,0.2,0.6,0.3,0.6-0.1s0.3-0.3,0.6,0.3c0.3,0.6,0.6,0.6,0.6,0.1
	s0-0.6,0-0.3c0,0.5,0,1,0,1.4c0,0.3,1.2,0,2.7-0.6c1.5-0.6,2.1-0.5,1.2,0.5c-0.9,0.9-1.6,1.8-1.6,2c0,0.1,0.1,0.6,0.5,1
	c0.3,0.5,0.7,1,1.2,1.5c0.3,0.5,1.6,1.2,2.9,2c1.2,0.6,3.9,0.9,5.8,0.6c2.1-0.3,4.5-0.9,5.4-1.2c0.9-0.3,0.9,0.5,0,1.8
	c-0.9,1.4-2.2,2.7-3.1,3c-0.7,0.3-2,0.6-2.5,0.6s-1.8,0.3-2.5,0.6c-0.7,0.3-1.6,0.3-1.8-0.1c-0.1-0.5-0.1,0.3,0.1,1.6
	c0.3,1.4,0.9,2.5,1.4,2.7c0.5,0.1,1.4,1,2.1,2s3.2,2.2,5.7,3l6.6,2.1c2.4,0.7,4.2,1.4,4.2,1.5c0,0,1.2-1.2,2.9-2.7
	c1.6-1.5,2.5-3.1,2.1-3.7c-0.5-0.5-0.9-1-0.7-1.4c0.1-0.3,0-0.6-0.1-0.6c0-0.1,0-0.3,0.1-0.3c0.1-0.1,0.3-0.3,0.3-0.3
	s0.1-0.6,0.3-1.4c0.1-0.6,0.7-1.4,1.2-1.6c0.6-0.1,2-0.1,3.1,0c1.2,0.1,1.4,0.7,0.6,1c-0.8,0.3-1.2,0.9-0.7,1.4
	c0.5,0.3,1.5,1,2.4,1.6c0.9,0.6,0.6,1.6-0.6,2.5c-1.2,0.9-2,1.5-1.5,1.4c0.5-0.1,0.3,0-0.1,0.1c-0.5,0.1-0.6,0.5-0.5,0.5
	s0.5,0.5,0.7,0.9c0.3,0.5,0.1,0.9,0,1c-0.1,0.1-0.3,0.5-0.1,0.6c0.2,0.1,0.3,0.3,0.5,0.3c0.1,0.1,0.5,0.3,0.7,0.5
	c0.3,0.1,0.5,0.6,0.3,0.9c-0.1,0.3-0.1,1.2-0.3,2.1c0,0.7-0.1,2.9-0.5,4.6c-0.3,1.8-0.5,3.2-0.6,3.5c-0.1,0.1,0,0.7,0.1,1.2
	c0.1,0.5,0.5,0.9,0.7,0.9c0.3,0,0.9,0.6,1.2,1.4c0.5,0.7,0.3,1.4-0.3,1.4c-0.7,0-0.9,0.1-0.9,0.1c0,0.1-0.1,0.6-0.1,1.2
	s-0.1,1,0,1.2c0.1,0.1,0.5-0.3,0.9-1c0.3-0.6,0.9-0.9,1-0.5c0.1,0.3,0.1,0.7,0,0.9s-0.5,0.3-0.6,0.5c-0.1,0.1-0.1,0.6,0,1
	c0.1,0.5,0,0.7-0.3,0.9c-0.3,0-0.3,0.6,0,1.2c0.3,0.6,0.7,1.6,0.9,2.2c0.1,0.6,0,0.9-0.3,0.7c-0.3-0.3-0.3,0,0,0.5
	c0.3,0.5,0.6,1.8,0.7,2.7c0.1,0.9,0.6,2.5,0.9,3.5c0.3,0.9,0.6,2.4,0.7,3.2s0.3,2.2,0.5,3c0.1,0.7,0.1,1.4,0,1.4s-0.1,0.1,0,0.1
	c0.1,0.1,0.3,0.3,0.3,0.3c0,0.1,0,0.5,0,0.9c0,0.5,0.1,1,0.5,1.4c0.3,0.3,1,1.8,2,3c0.9,1.2,1.5,2.5,1.5,2.9c0,0.3,0.1,0.6,0.1,0.6
	s-0.1,0.3-0.3,0.5c-0.1,0.1,0,0.5,0.5,0.6c0.5,0.1,0.3,0.3,0,0.1c-0.5-0.1,0.1,0.9,1,2.1c0.9,1.2,1.6,2.4,1.4,2.5
	c-0.2,0.1-0.1,0.9,0.3,1.5c0.5,0.7,1,1.4,1.2,1.4s0.5,0.6,0.9,1.2c0.3,0.6,0.9,2.2,1.2,3.6c0.3,1.4,0.7,2.4,0.7,2.2s0.1-0.1,0.3,0
	c0.1,0.1,0.1,0.7,0.1,1.2c0,0.6-0.1,0.9-0.3,0.7c0-0.1,0.3,0.9,0.9,2.2c0.6,1.4,1.4,3.5,1.6,4.7c0.3,1.2,0.9,3,1.4,3.9
	c0.5,0.9,0.9,1.5,0.9,1.5c0-0.1,0.3-0.1,0.5,0c0.1,0.1,0.3,0.1,0.1,0.3c-0.1,0.1,0.6,1.8,1.8,3.9c1.2,2.1,2.5,4.6,2.9,5.7
	c0.3,1,1,2.7,1.5,3.5c0.5,0.8,0.9,2,1,2.4c0.1,0.6,0.3,1.2,0.3,1.4c0.1,0.1,0.1,0.1,0,0.1c-0.1-0.1,0.3,1.4,0.7,3.1
	c0.5,2,0.9,3.5,0.9,3.6c0,0,0.1,0.5,0.3,0.9c0.1,0.5,0.3,0.6,0.5,0.5c0-0.1,0.1-0.1,0.1,0s0.1,0,0.5,0c0.3-0.1,0.3-0.1,0,0.1
	c-0.1,0.1-0.3,0.3-0.1,0.3c0.1,0,0,0-0.1,0s1.2,1.4,3.1,2.9l1.4,1c2,1.5,4.3,2.4,5.5,1.8c1.3-0.6,2.4-2,2.7-2.9
	c0.3-0.9,0.7-2.1,0.9-2.7c0.1-0.6,0.9-1.4,1.8-1.8c0.9-0.5,3-0.7,5-0.6c2,0.1,2.5-0.9,1.6-2.4s-1.4-3-0.9-3.5
	c0.5-0.5,0.7-1.2,0.9-1.6c0-0.5,0.7-1,1.6-1.5c0.9-0.5,1.5-0.6,1.5-0.6s0.5-0.9,1-2.1s0.6-3.1,0.3-4.2c-0.2-1-0.5-2.2-0.3-2.5
	c0.3-0.3,0.5-1.4,0.5-2.4s0.3-2.4,0.6-3.1c0.3-0.7,1.4-3.5,2.1-5.7l0.1-0.3c0.9-2.2,1.2-4.6,0.9-5.2c-0.3-0.6-0.7-1.2-0.7-1.5
	c-0.1-0.3,0.1-0.1,0.6,0.1c0.5,0.5,0.5-0.1,0.1-1.4c-0.3-1.2-0.7-2.5-1-3.1c-0.3-0.6-0.5-3.1-0.3-5.5c0.1-2.4,0.7-5.5,1.6-6.8
	c0.7-1.5,2.1-2.4,3-2.1c0.9,0.3,1.6-0.1,1.8-0.7c0.1-0.7,0.3-1.4,0.3-1.4s0.3,0.5,0.6,1c0.2,0.6,0.9,0.3,1.4-0.7
	c0.5-1,1.5-2.1,2.2-2.5c0.7-0.3,2.9-1.8,4.6-3.1c1.8-1.4,3.1-2.4,3-2.1c-0.1,0.3,0.6-0.5,1.6-1.6c1-1.2,2.9-2.7,4-3.5
	c1.2-0.7,2.1-1.5,2-1.6c-0.1-0.1,0.1-0.6,0.6-1c0.5-0.5,1.4-1.2,2-1.5c0.6-0.3,1.5-0.9,2.1-1.4c0.6-0.5,1.6-1.4,2.2-2
	c0.6-0.7,2.1-2.4,3.2-3.7c1.2-1.4,2.2-2.5,2.1-2.4c-0.1,0,1.4-1,3.2-2.5c2-1.5,3-2.4,2.4-2.2c-0.6,0.1-1.2,0.5-1.2,0.5
	s0.1-0.3,0.3-0.5c0.3-0.1,0,0-0.7,0.6c-0.6,0.5-0.5,0.1,0.3-0.7c0.7-0.9,1.4-1.4,1.2-1c-0.1,0.5,1.5,0.1,3.7-0.5
	c2.1-0.6,3.5-1.5,3-2c-0.5-0.5-0.5-0.5,0.1-0.1c0.6,0.3,1.8,0,2.5-0.7s1.5-1.6,1.5-2c0.1-0.3,0-0.5-0.1-0.3c-0.1,0.1,0.3-0.3,1-1.2
	c0.7-0.7,1.2-1.5,0.9-1.5c-0.3,0-0.6-0.1-0.7-0.3c-0.1-0.2-0.1-1.5,0-2.9c0.1-1.4,1.5-3.1,3.1-3.9c1.6-0.7,3.7-2,5-2.9
	c1-0.9,1.6-2.4,1.2-3.5s-0.3-0.9,0.1,0.3c0.6,1.2,1.2,2.9,1.5,3.7c0.1,0.9,0.5,1.2,0.5,0.7c0-0.6,0.1-0.6,0.3-0.1
	c0.1,0.5,0.5,0.9,0.6,0.9c0.1,0,0.5-0.7,0.7-1.5c0.3-0.9,0.5-0.7,0.6,0.3c0.1,1,0.3,1.5,0.6,0.9c0.3-0.6,0.3-1.4,0.1-1.8
	c-0.1-0.5,0-1.4,0.1-2.1c0.1-0.6,0.3-0.6,0.3,0s0.1,0.7,0.3,0.3c0.2-0.3,0.5,0.3,0.5,1.6c0,1.4,0,2.2,0.1,2c0.1-0.2,0.1-0.3,0.1-0.1
	c0,0.2,0.1,0,0.3-0.3c0.2-0.3,0.6-0.5,1-0.3c0.5,0.1,0.6-0.1,0.1-1c-0.5-0.9-0.5-1.6-0.1-2.1c0.3-0.3,0.9,0.3,1.4,1.4
	c0.5,1,1,1.5,1.4,0.7c0.3-0.7,0.6-0.9,0.6-0.3s0.3,0.3,0.6-0.5c0.3-0.7,0.5-1.8,0.3-2.4c0-0.6,0-0.5,0.1,0.3
	c0.1,0.7,0.5,0.7,0.6-0.1c0.1-0.8,0.3-0.3,0.1,1.2c-0.1,1.5,0,2.4,0.1,1.8c0.1-0.6,0.6-0.9,0.9-0.6c0.3,0.1,0.7-0.1,0.7-0.7
	c0-0.6,0.5-1.8,0.9-2.9c0.5-1,0.7-0.7,0.6,0.5c-0.1,1.2,0,2,0.3,1.5c0.3-0.5,0.3-0.5,0.1-0.1c-0.1,0.5,0.1,0.3,0.6-0.1
	c0.5-0.5,0.7-0.3,0.6,0.3c-0.3,0.6-0.1,1.4,0.1,1.5c0.2,0.1,0.7-0.6,1-1.6c0.3-1,0.6-1.5,0.7-1c0,0.5,0.1,0,0.1-0.9s0-2.2-0.1-3
	c-0.1-0.6,0-1.5,0.5-1.8c0.5-0.3,0.7-0.7,0.7-0.9s0.3-0.1,0.6-0.1c0.3,0,0.5,0,0.5,0c0-0.1-0.1-0.3-0.5-0.5
	c-0.3-0.1-0.5-0.5-0.5-0.7c0-0.2,0-0.3,0-0.3c0,0.1,0.1-0.1,0.1-0.5c0-0.3-0.5-1-1.4-1.8c-0.9-0.6-0.9-1.2-0.1-1
	c0.7,0.1,1.2-0.1,0.9-0.5c-0.1-0.5-0.1-0.5,0.1-0.3c0.3,0.3,0.7,0.3,0.9,0.1c0.2-0.2,0.1,0.7,0.1,2c-0.1,1.2,0.1,2.9,0.6,3.7
	c0.5,0.9,1.2,1.6,1.5,1.8c0.3,0.2,1,0.1,1.5,0.1s0.7-0.1,0.7-0.1c0-0.1,0.3-0.1,0.6-0.1c0.3,0,0.6,0,0.5,0c-0.1,0,0-0.1,0-0.3
	c0.1-0.1,0.5-0.5,0.9-0.7c0.5-0.2,1.2,0.7,2,2.4c0.7,1.6,1.5,2.5,1.8,2.1c0.3-0.5,0.3-0.1,0.1,0.6c-0.1,0.7-0.3,1.4-0.3,1.2
	c0,0,0.3,0.6,0.6,1.5c0.2,0.9,0.6,1.6,0.7,2c0.1,0.3,0.1,0.7,0.1,1.4c0,0.6,0,1.4,0,1.8c0,0.5,0.6,2,1.4,3.2c0.7,1.4,1,2,1,1.2
	c0-0.7,0.6,0.1,1.6,2.1c1,2,1.8,2.7,1.5,1.6c-0.3-1-0.1-1.5,0.1-0.9s0.6,0.9,0.6,0.9c0-0.1,0.5,0.1,0.7,0.6c0.3,0.5,0.5,1.2,0.5,1.6
	c-0.1,0.5,0.1,0,0.6-1s0.7-1.6,0.9-1.4c0,0.3,0.1,0.9,0.1,1.5s-0.1,1-0.6,1.4c-0.5,0.3-0.3,1,0.1,1.8c0.5,0.7,0.7,1,0.6,0.6
	c-0.1-0.5,0-0.5,0.3,0c0.3,0.5,0.3,0.3,0-0.5c-0.3-0.6,0-1.2,0.5-1.2c0.5,0,0.9,0.1,0.9,0.3c0,0.2,0.1,0.1,0.1,0
	c0-0.1,0.3-0.1,0.7,0.1c0.3,0.1,1,0.6,1.5,0.7c0.5,0.1,0.9,0.5,0.9,0.5c0,0.1-0.3,0.5-0.6,0.9c-0.3,0.5-0.1,0.6,0.3,0.6
	s1.2,0.6,1.5,1.5c0.3,0.9,0,1.6-0.7,1.5c-0.7-0.1-0.9,0.9-0.1,2.2c0.7,1.4,1.4,1.6,1.4,0.9c0-0.7,0.3-2,0.6-2.2
	c0.3-0.5,0.7,0.3,0.9,1.5c0.1,1.2,0.6,2.5,0.9,2.9c0.3,0.3,0.6,1.4,0.7,2.4c0.1,1,0.7,3.2,1.4,5.2c0.6,1.8,1.2,3.7,1,4.3
	c0,0.6-0.7,3-1.6,5.4l-0.1,0.5c-0.7,2.4-1,4.6-0.6,5c0.5,0.5,1,0.3,1.2-0.1c0.1-0.5,0.6-0.7,0.6-0.6c0.1,0.1,0.5-0.3,0.6-1
	c0.1-0.7,0.5-1.2,0.6-1.2c0.1,0-0.1,1.2-0.5,2.5c-0.5,1.4-0.3,2.1,0.3,1.5c0.5-0.6,0.6-0.5,0.1,0c-0.5,0.6,0,0.5,0.7-0.5
	c0.9-0.7,1.5-1,1.4-0.5C609.3,477.1,609.1,477.8,609,478.3z"/>
<path fill="none" stroke="#000000" stroke-miterlimit="10" d="M819.1,349.6c0.7-0.5,1.5-0.7,1.6-0.7s-0.5,0.5-1.4,0.9
	C818.5,350.1,818.3,350.1,819.1,349.6z"/>
<path fill="none" stroke="#000000" stroke-miterlimit="10" d="M813.3,330.5c0-0.5,0.3-0.6,0.6-0.5c0.3,0.1,0.6,0.6,0.7,1
	c0,0.5,0.3,0.9,0.6,1c0.3,0.1,0.1-0.1-0.1-0.7c-0.2-0.6-0.3-0.9,0.1-0.7c0.5,0.2,0.9,0.7,1.2,1.4c0.2,0.7-0.3,0.6-1.4,0.1
	C814.1,331.7,813.3,330.9,813.3,330.5z"/>
<path fill="none" stroke="#000000" stroke-miterlimit="10" d="M455.4,530.1c-0.1-0.5-0.1-0.6,0-0.6c0,0.1,0.1,0.5,0.1,0.7
	S455.6,530.5,455.4,530.1z"/>
<path fill="none" stroke="#000000" stroke-miterlimit="10" d="M998.5,256.1c-0.1-0.1-1-2.1-1.8-4.5l-0.5-1.2
	c-0.7-2.4-1.6-6.2-1.8-8.7l-0.1-1.2c-0.3-2.4-1.5-4.7-2.7-5.1c-1.2-0.3-2.5,0.3-2.9,1.4c-0.3,1,0.1,1.8,1,1.6
	c0.9-0.2,1.6-0.3,1.5-0.3c-0.1,0,0.1,0.7,0.3,1.5c0.3,0.7-0.3,1.4-1,1.4c-0.7,0-1.8,0-2.4,0c-0.6,0-1-0.3-1-0.9
	c0-0.6-0.6-1.4-1.4-1.6c-0.6-0.3-1.4-0.1-1.6,0.1c-0.1,0.5-0.1,1,0.3,1.4c0.3,0.3,0.6,0.7,0.6,0.7s-0.1,0.1-0.3,0
	c-0.2-0.1-1,0.9-2.2,2.1c-1,1.4-2.2,3.7-2.5,5.5c-0.3,1.8,0,3.7,0.7,4.5c0.7,0.7,1,3,0.6,5.1c-0.5,2.1-1.8,5.5-3,7.7l-2.4,4.2
	c-1.2,2.1-3,5-4,6.2c-1,1.4-3.1,3.2-4.6,4.2s-3.7,2.1-4.6,2.5c-0.9,0.5-2.1,1.2-2.5,1.8c-0.5,0.7-1.4,0.1-2-0.9
	c-0.6-0.9-1.4-1.6-1.8-1.6c-0.5,0-0.1-0.5,0.6-1c0.7-0.6,1.5-1.6,1.8-2.2c0.3-0.6-0.6-0.7-1.6-0.3c-1.2,0.5-2.4,1.2-2.5,1.6
	c-0.1,0.5-0.1,1.2,0,1.5c0.1,0.3-0.5,2.2-1.6,4.2c-1,2-2.5,4.3-3.2,5.2c-0.7,0.9-1.2,2.2-1,2.9c0.1,0.6,0.1,1.2,0.1,1.4
	c0,0.1-0.6,0.5-1,0.7c-0.5,0.2-0.7,0.9-0.7,1.2s-0.1,0.6-0.5,0.5c-0.3-0.1-0.5,0-0.3,0c0.1,0,0.1,0-0.1,0c-0.1,0-0.7,0-1,0
	s-0.7-0.1-0.9-0.3s-0.3,0-0.6,0.5c-0.3,0.5-0.7,0.6-0.9,0.3c-0.1-0.3-0.3-0.6-0.1-0.6c0.1,0,0.1-0.1,0-0.3c-0.1-0.1-0.1,0-0.3,0.1
	c-0.1,0.1-0.5-0.1-0.7-0.6c-0.3-0.5-2.1-0.5-3.9,0c-2,0.5-5.2,0.9-7.5,1c-2.3,0.1-3.9,0-3.7-0.1c0.1-0.1-0.5-0.1-1.4,0
	c-0.9,0.1-2.2,0.5-2.9,0.7c-0.6,0.3-2.2,1.6-3.5,3.1c-1.2,1.5-2.9,3.1-3.7,3.7c-0.9,0.6-2.4,1.6-3.5,2.4c-1,0.8-2.1,1.4-2.2,1.4
	c-0.3,0-0.5,0-0.5,0.1c0,0.1-0.5,0.3-1,0.1c-0.6-0.1-1,0.3-1.2,0.7c-0.1,0.5-0.1,1.5-0.3,2.2c0,0.7-0.6,1.5-1.4,1.8
	c-0.8,0.3-1.8,0.7-2.4,1.2c-0.6,0.5-0.9,1-0.6,1s0.1,0.1-0.3,0.1c-0.5,0-1,0.3-1.2,0.5c-0.1,0.1-0.3,0.6-0.1,0.6s-0.3,0.1-1,0
	c-0.7,0-1.4,0.1-1.5,0.3c-0.1,0.1-0.1,0.7,0,1.4c0.1,0.7-0.3,0.9-0.9,0.7c-0.6-0.1-0.9,0.3-0.7,0.9c0.1,0.6,0.5,1,0.5,0.9
	s0.3-0.3,0.5-0.1c0.1,0,0.5,0.3,0.6,0.6c0.1,0.3,0.6,0.9,1,1.5c0.5,0.6,0.1,0.7-0.3,0.5c-0.5-0.3-0.9-0.5-0.7-0.3
	c0,0.1-0.1-0.3-0.5-0.7c-0.3-0.5-0.1,0,0.1,0.9c0.5,1,0.5,2.1,0.3,2.5c-0.1,0.5,0.1,0.3,0.9-0.3c0.7-0.6,1.5-0.6,1.8-0.1
	c0.1,0.5,0.7,0.5,1.2-0.1c0.5-0.6,0.3-1.2-0.3-1.4c-0.6-0.1-0.6-0.7,0-1.4c0.6-0.6,1.4-0.6,1.8,0.1c0.5,0.6,0.6,1.8,0.3,2.4
	c-0.3,0.6,0,1,0.5,1s0.6,0.6,0.3,1.5c-0.5,0.9-1,2.1-1.6,2.7c-0.6,0.6-1.2,1.4-1.4,1.6c-0.3,0.3-0.5,0.9-0.5,1.5
	c0,0.6,0.3,1.5,0.6,2.1c0.3,0.6,0.3,1.5-0.3,1.8c-0.5,0.5,0.1,0.9,1.4,1.2c1.2,0.3,2.1,0,2.1-0.7s0.1-0.9,0.5-0.5
	c0.3,0.5,0.3,1.6,0.1,2.7c-0.3,1,0.5,1.4,1.5,0.6c1-0.7,2.4-1.5,2.9-1.8c0.5-0.3,1.4-2.4,2.1-4.7l0.7-2.4c0.7-2.4,1.8-5.1,2.4-6
	c0.6-0.9,1.2-2,1.4-2.2c0.1-0.3,0.1-0.9,0-1c-0.1-0.3-0.3-0.6-0.3-0.7c0-0.1-0.3-0.1-0.6-0.1c-0.3,0-0.5,0-0.3-0.1
	c0.1-0.1,0.1-0.5,0.1-0.9c0-0.5-0.7-0.9-1.6-1.2c-0.9-0.3-1.2-1-0.7-1.8c0.5-0.8,0.3-1.2-0.3-1.2c-0.7,0-1.8-0.6-2.9-1.5
	c-0.9-0.9-1-2-0.3-2.2c0.7-0.3,2.2-0.3,3.1-0.1c0.9,0.2,2.1,0.7,2.7,1.4c0.6,0.6,1.5,0,2-1.2c0.5-1.2,1.2-2.5,1.5-3
	c0.3-0.5,0.9-0.3,1.2,0.1c0.2,0.5,1.6,0.6,3,0.1c1.4-0.5,2.2-0.7,2.2-0.7s0.3-0.1,0.6-0.5c0.3-0.1,0.6-0.1,0.6,0.1
	c0,0.2,0.5,0.3,0.9,0c0.5-0.3,1.2-0.7,1.6-0.9c0.5-0.3,1-0.3,1.5,0c0.3,0.1,1,0,1.5-0.3c0.5-0.3,0.6-0.6,0.5-0.6
	c-0.1,0,0.1-0.5,0.7-0.9c0.6-0.5,2.1-0.9,3.2-0.9s2.5,0.1,3,0.3c0.5,0.1,1.5,0.5,2.2,0.5c0.7,0,1.6,0.3,2,0.5c0.5,0.1,0,1-0.7,2
	c-0.7,0.9-1.2,2-0.9,2.2c0.3,0.3,0.3,1.2,0,2c-0.3,0.7,0.1,1.6,0.9,2.1c0.7,0.5,1.4,0.9,1,1c-0.3,0.1,0.3,0.6,1,1
	c0.7,0.5,1.8,0.7,2.2,0.5c0.5-0.3,1.6-1.2,2.5-2.4c0.9-1.3,2.4-2.9,3.5-3.7c1-1,2.1-1.8,2.2-1.6c0.1,0,0.5,0,0.6-0.1
	s-0.1-0.6-0.5-1.2c-0.5-0.5-1-1.5-1.4-2.2c-0.3-0.7,0-2,0.6-2.7c0.6-0.7,1.2-1.4,1.4-1.4c0.1,0,0.5,0.9,0.6,2s0.3,1.5,0.5,0.9
	c0.1-0.6,0.6-0.6,1.4,0c0.7,0.6,0.7,1.5,0.1,1.8c-0.6,0.3-0.1,0.3,1.2,0c1.4-0.3,3.6-0.3,5.1-0.1c1.5,0.1,3.1-0.5,3.7-1.6
	c0.6-1,1.8-2.1,2.7-2.1c0.9-0.1,2,0.3,2.4,0.9c0.5,0.6,0.9,0.1,1.2-1.2c0.2-1.3,1.4-2.1,2.4-1.6c1,0.3,2,0,2-0.7s-0.1-1.5-0.1-1.6
	c-0.1-0.1,0-0.7,0.3-1.4c0.3-0.6,1-0.9,1.8-0.7c0.8,0.2,0.7,0.9,0,1.6c-0.6,0.7-1.2,2.1-1.4,3.1c-0.1,1,1,1.2,2.4,0.6
	c1.4-0.6,3.5-2.2,4.6-3.6c1.2-1.4,1.6-3.9,1-5.7c-0.6-1.8-0.3-5,0.6-7.1c0.9-2.1,1.8-5.8,2.1-8.3l0.5-4.6c0.1-2.4,0.6-4.6,0.9-4.6
	c0.3-0.1,1,0.1,1.6,0.6c0.6,0.5,1,0.1,1-0.5c0-0.7,0-1.2,0-1.2c0,0.1,0-0.3-0.1-0.7c-0.1-0.5,0-1.4,0.6-2c0.5-0.6,0.9-1.4,0.9-1.8
	c0-0.5,0.1-0.6,0.3-0.6c0.1,0.1,0.5,0,0.6-0.1c0.3-0.1,0.6-0.5,0.6-0.6s0-0.3-0.1-0.3c-0.1-0.1,0-0.5,0.3-0.6
	c0.3-0.1,0.3-0.6,0.3-0.6c-0.1,0,0-0.1,0.1-0.3c0.1-0.1,0.1-0.5,0.1-0.6c-0.1-0.3,0-0.7,0.3-1.2c0.3-0.5,0.5-0.7,0.1-0.7
	c-0.1,0-0.1-0.1,0.1-0.5C998.8,256.2,998.8,256.2,998.5,256.1z"/>
<path fill="none" stroke="#000000" stroke-miterlimit="10" d="M904.9,337.3c-0.3,0-0.5-0.3-0.5-0.6s0.1-0.3,0.5,0
	C905,337,905,337.3,904.9,337.3z"/>
<path fill="none" stroke="#000000" stroke-miterlimit="10" d="M1028.6,215.1c-0.6,0.5-1.5,0.6-2.1,0.3c-0.6-0.3-0.7-0.6-0.5-0.5
	c0.3,0.1,0.1-0.6-0.1-1.5c-0.3-0.9-0.6-1.5-0.5-1.4c0.1,0.1,0.5,0.3,0.6,0.3s0-0.1-0.3-0.3c-0.3-0.2-0.9-0.7-1-1.4
	c-0.3-0.6,0-2.4,0.6-4.2c0.6-1.8,0.1-2.2-0.9-0.9c-1,1.4-3.1,1.8-4.5,1.4s-2.9-0.7-3-0.5c-0.1,0.3-0.7,0.3-1.2,0
	c-0.5-0.3-1.2-0.6-1.5-0.9c-0.5-0.1-2.1-1.8-3.9-3.5l-4.7-4.6c-1.8-1.6-4-4-5-5.2c-0.9-1.2-2.4-2-3.1-2c-0.7,0-1.5,1.4-1.4,2.7
	c0,1.4,0.1,4,0.3,5.7c0.1,1.8,0.1,4.5,0,6c-0.1,1.5-0.9,3.6-1.6,4.6s-1.2,2.9-1,4c0.1,1.2-0.1,2.5-0.7,3c-0.6,0.5-1.5,0.6-2.1,0.3
	c-0.6-0.2-1.8-0.7-2.7-1.2c-0.9-0.5-1.6,0-1.8,0.9c-0.1,1-1.2,2.7-2.5,3.9s-2.5,2.9-2.7,3.6s0,2.1,0.5,3c0.5,0.9,0.9,2.7,0.9,3.9
	s0.3,3,0.6,3.9c0.3,0.9,1.6,0.7,2.9-0.3c1.2-1,2.7-1.8,3.2-1.6c0.5,0,1.5,0,2.1-0.3c0.6-0.3,0.3-1.2-0.6-2c-0.9-0.9-2.7-2.1-3.7-2.7
	c-1-0.6-1.5-1.8-0.7-2.7c0.7-0.9,2-1,2.9-0.3c0.9,0.7,2.2,0.9,3.1,0.3c0.9-0.6,2.9-1,4.3-1c1.5,0,3.7,0.7,5.1,1.6
	c1.4,0.9,3.6,2.4,5.1,3.2c1.5,0.8,3,0.6,3.2-0.9c0.3-1.4,1.5-3.6,2.5-4.7c1-1.2,3.6-2.7,5.8-3c2.1-0.5,3.9-1,3.7-1.4
	c-0.1-0.3,0.3-0.5,0.7-0.3s1.2-0.1,1.6-0.6c0.5-0.5,1.4-0.9,2.2-1c0.7-0.1,2-0.9,2.5-1.5C1029,214.8,1029.2,214.7,1028.6,215.1z"/>
<path fill="none" stroke="#000000" stroke-miterlimit="10" d="M936.1,318c1.4-1.6,2.2-3,2.1-3s-0.3,0-0.5-0.1
	c-0.1-0.1-0.1-1-0.1-2.1s0-2-0.1-2s-1-0.3-2.1-0.7c-1-0.5-3-0.5-4.3,0c-1.4,0.5-3,1.4-3.6,2.1c-0.7,0.7-2,1-2.7,0.7
	c-0.7-0.3-2,0.1-2.4,1.2c-0.5,1-2.1,2.9-3.7,3.9c-1.5,1-2.1,2-1.2,2.1c0.9,0.1,1.8,0.1,2.1,0.1s0.6,0.3,0.5,0.7
	c-0.1,0.5-0.3,0.6-0.6,0.6c-0.1-0.1-0.1,0.1,0,0.5c0.1,0.3,0.1,0.7,0,0.9c-0.3,0.1-0.1,0.5,0.1,0.7c0.3,0.3,0.9,0.6,1.4,0.6
	s0.6,0.3,0.5,0.7c-0.1,0.5,0.5,0.9,1.4,0.9c0.9,0.1,1.8-0.6,1.8-1.5c0-0.9,0.5-2,0.7-2.1c0.3-0.1,0.7-0.9,0.9-1.2
	c0.1-0.3,1.8-0.7,3.6-0.7c2,0,3.6,0.1,3.7,0.5C933.5,320.9,934.7,319.7,936.1,318z"/>
<path fill="none" stroke="#000000" stroke-miterlimit="10" d="M789.9,620.2c0.1,0.5,1,0,2.2-0.9c1-0.9,2.1-1.5,2.2-1.4
	c0.1,0.1,0.7,0.1,1.4-0.1c0.6-0.3,0.9-0.7,0.6-0.9c-0.3-0.2-0.3-0.5-0.1-0.6c0.2-0.1,0.3-0.3,0.1-0.5c-0.1,0,0-0.5,0.3-0.7
	c0.3-0.2,0.1-0.6-0.3-0.3c-0.5,0.1-0.7-0.9-0.5-2.4c0.3-1.5,0.6-3.6,0.9-4.5c0.3-1,0.7-2.1,1-2.5c0.3-0.5,0.9-0.9,1.2-1
	c0.3-0.1,0.9-0.3,1-0.5s0.1-0.7-0.1-1.2c-0.3-0.5,0.1-0.5,0.7,0c0.7,0.5,2.1,1,3.1,1.2c1,0.1,2.4,0.1,2.9,0.1s1-0.5,1-0.9
	c0-0.5-0.9-1.6-2.1-2.5c-1.2-0.9-2.9-2.2-3.7-2.9c-0.9-0.6-2.1-1.6-2.9-2.4c-0.7-0.7-0.9-1.2-0.7-1.4s0.7-0.5,1-0.5
	c0.5-0.1,0.7-0.7,0.7-1.2s-0.5-1.5-0.9-2.2c-0.5-0.6-1.2-1.5-1.6-1.6c-0.5-0.3-0.9-0.6-1-0.9c-0.1-0.1,0-0.5,0.3-0.6
	c0.3-0.1,0.3-0.5,0-0.7c-0.3-0.2-1.2-0.9-1.8-1.2c-0.6-0.3-0.9-0.9-0.5-1.2c0.5-0.3,0.5-0.7,0.1-0.9c-0.3-0.1-1-0.6-1.6-0.9
	c-0.6-0.3-0.3-0.9,0.6-1.4c1-0.5,2.2-0.7,2.9-0.7c0.6,0,0.6-0.3,0.3-0.6c-0.5-0.3-0.5-0.6,0-0.6c0.5,0,0.1-0.5-0.6-0.9
	c-0.7-0.6-0.7-1.5,0-2c0.7-0.5,1.6-0.7,2.1-0.5c0.5,0.2,1.6,0.5,2.5,0.5c0.9,0,1.5-1.2,1.2-2.5s1.5-3,3.9-3.6
	c2.4-0.6,3.9-1.5,3.2-2.1c-0.6-0.6-1.8-1.4-2.7-1.5c-0.9-0.3-2.4-0.9-3.2-1.5c-0.8-0.6-2-0.9-2.5-0.7c-0.6,0.3-1,0.1-1,0
	c0-0.3,0.1-0.9,0.3-1.5c0.2-0.6-0.7-0.7-2-0.3c-1.2,0.5-2,0-1.5-0.9c0.5-0.9,0.9-2,1-2.2s0-1-0.5-1.5c-0.5-0.5-1-0.9-1.2-1
	s-0.3-0.3-0.1-0.3c0.1,0,0-0.1-0.1-0.3c-0.1-0.1-0.5-0.1-0.5-0.1s-0.3,0-0.6-0.1c-0.3-0.1-0.9-0.5-1.5-0.6c-0.6-0.1-1.4,0-2,0.5
	c-0.6,0.3-1,0-1-0.7c0-0.7-0.3-0.9-0.6-0.1c-0.3,0.6-1.4,2.1-2.2,3.1c-0.8,1-1.6,2.1-1.5,2.1c0.1,0.1-0.3,1-1,2.1s-2,2.4-2.9,3
	c-0.9,0.5-1.5,0.7-1.5,0.5s0,0.3,0,1.2c0,0.8-1,2.5-2.2,3.5s-2.4,1.6-2.5,1.4c-0.1-0.1,0-0.6,0.1-1c0.1-0.5-0.6-0.1-1.8,0.6
	c-1.2,0.6-3.2,1.5-4.3,2c-1.2,0.5-2.4,1.4-2.5,2c-0.3,0.6-1.4,2.2-2.5,3.7s-3.9,3.6-6,5l-2.1,1.4c-2.1,1.4-5,2.5-6.1,2.7
	c-1.4,0.1-2.5,1-3,1.8c-0.3,0.7-0.6,1.8-0.7,2.1c0,0.3-0.3,0.6-0.5,0.5s-0.5-0.9-0.7-1.8c-0.1-0.9-0.5-1-0.5-0.3s0,1.5,0.1,1.6
	s0,0.1-0.3,0c-0.3-0.1-0.5,0.3-0.6,0.9c-0.1,0.6,0.1,1,0.6,1.2c0.5,0,0.6,1,0.3,2.2c-0.3,1.2-0.9,2.2-1.5,2.4s-0.3,0.6,0.5,1.2
	c0.7,0.5,0.1,0.7-1.5,0.5c-1.6-0.1-3.2-0.7-3.7-1c-0.5-0.3-0.7-0.9-0.7-1.2c0.1-0.3-0.1-0.6-0.6-0.7s-0.7,0-0.9,0.3
	c-0.2,0.3-1.4-0.3-2.9-1.2c-1.5-0.8-3.1-1.4-3.6-1c-0.6,0.3-1,0.9-1.2,1c-0.1,0.3-0.7,0.9-1.2,1.5c-0.6,0.6-1.2,1.6-1.5,2.5
	c-0.3,0.9,0,1.2,0.6,0.7c0.6-0.5,0.6-0.3-0.1,0.5c-0.7,0.6-1.4,1.6-1.4,2.1c0,0.6,0.6,2.5,1.5,4.6c0.9,2,1.4,4,1.2,4.6
	c-0.1,0.6-0.6,1-1,1s-0.6,0.5-0.6,0.9c0.1,0.5,0.7,1,1.5,1.5c0.7,0.5,1.5,0.9,1.6,1.2c0.1,0.3-0.1,0.6-0.9,0.6
	c-0.6,0.1-0.9,0.5-0.5,0.6c0.5,0.1,1.5,0.5,2.2,0.5c0.9,0,1.8,0.6,2.1,1.2c0.3,0.7,0.7,2.2,0.9,3.6c0.1,1.4,0.1,2.5,0,2.7
	c-0.1,0.3,0.1,0.7,0.6,1.2s1,1.6,1.5,2.7c0.3,1,0.7,2.9,0.7,3.7c0,0.8,0.6,1.8,1.2,1.5c0.6-0.1,1.2,0,1.4,0.3c0.2,0.3,0.9,0.3,1.6,0
	c0.7-0.3,1-0.3,0.5,0c-0.5,0.3,0.3,0.3,1.6,0.1c1.4-0.1,3-0.3,3.6-0.1c0.6,0.1,1.4-0.1,1.6-0.7c0.3-0.6,0.7,0,0.9,1.4
	s0.7,2.7,1.2,3.1c0.5,0.5,1.4,0.5,1.8,0c0.5-0.3,1.4-0.5,1.8-0.3c0.5,0.1,2,0,3.1-0.6s2.2-1.5,2.2-2.1c0-0.6,0.6-0.6,1.2,0
	c0.6,0.6,1.5,1,2.1,1c0.6,0,1.2,0.5,1.5,0.9c0.3,0.5,1.4,0.5,2.4,0c1-0.5,2.4-0.7,3-0.7c0.6,0,1.4,0.3,1.8,0.6
	c0.5,0.2,0.9,1.8,1,3.5s1,2.9,2.1,2.7c1-0.1,3-0.7,4.6-1.4c1.6-0.6,3.7-2.1,4.5-3.1c0.9-1,1.8-2.2,2.1-2.5c0.2-0.3,0.3-1.2,0-1.8
	c-0.3-0.7-0.1-1.6,0.3-2.2c0.5-0.5,1-1,1.4-1c0.3-0.1,0.7-0.9,1-1.6c0.3-0.7-0.1-1.5-0.7-1.5c-0.7,0-1.4-0.7-1.5-1.6
	c-0.1-0.9,0.3-2,0.9-2.2c0.6-0.3,1.2-0.9,1.4-1.2c0.1-0.3,0.6-0.9,1.2-1.4s0.9-1.2,0.9-2C790.2,619.8,789.8,619.7,789.9,620.2z"/>
<path fill="none" stroke="#000000" stroke-miterlimit="10" d="M888.7,607.7c-0.7-0.9-2-2-2.9-2.4c-0.7-0.5-0.6-1.4,0.5-2.1
	c1-0.7,2.1-2.1,2.1-3.1s-1-1.4-2.5-0.7c-1.4,0.7-2.7,1.5-2.7,1.8c-0.1,0.3-0.5,0.9-0.7,1.5c-0.3,0.6-0.9,0.6-1.2,0.1
	c-0.3-0.5-0.1-2.1,0.5-3.6c0.6-1.5,0.7-3,0.5-3.2s-1.4,0.9-2.5,2.9s-1.6,4-1.2,4.6c0.5,0.6,0.6,1.5,0.5,2c-0.1,0.5-0.1,1.2,0,1.5
	c0.1,0.5,0.5,1,0.6,1.5c0.1,0.5,0.3,1.6,0.3,2.5s0.5,2.1,1,2.7c0.6,0.6,2,1.8,3.1,2.9c1.2,0.9,1.4-0.1,0.3-2.4l-0.9-2.1
	c-1-2.2,0.1-3.9,2.4-3.5C888.2,608.9,889.5,608.5,888.7,607.7z"/>
<path fill="none" stroke="#000000" stroke-miterlimit="10" d="M902.3,613.6c0.7,0.6,1.6,0.7,2,0.3c0.3-0.5,1-0.6,1.5-0.5
	c0.5,0,0.3-0.3-0.3-0.7c-0.6-0.5,0.1-0.5,1.6,0c1.6,0.5,2,0.5,0.7-0.1c-1.2-0.6-3-1-3.9-0.9c-0.9,0.1-1.8,0.3-1.8,0.3
	c0,0.1,0,0.1-0.1,0c0-0.1,0,0,0,0.3s0.1,0.3,0.3,0.1s0.3-0.1,0.3,0.1c0,0.1-0.3,0.3-0.7,0.3C901.3,612.6,901.5,613,902.3,613.6z"/>
<path fill="none" stroke="#000000" stroke-miterlimit="10" d="M857.2,601.8c1.2-1.6,2.1-3.2,1.8-3.9c-0.3-0.6-1-0.6-1.5-0.3
	c-0.5,0.2-1.5,0.9-2,1.2c-0.5,0.3-0.9,0.9-1,1.5c0,0.5-0.6,1-1.2,1.4c-0.6,0.3-1.8,0.7-2.5,1.4c-0.7,0.5-2.9,0.7-4.6,0.5
	c-1.8-0.3-3.9-0.1-4.6,0s-2.5,0.1-4-0.3c-1.5-0.5-3.9-0.7-5.2-0.7c-1.4,0-2.9-0.6-3.1-1c-0.3-0.6-0.9-0.9-1.2-0.7
	c-0.3,0.1-1.2,0-2-0.1c-0.7-0.1-1.6,0-2.1,0.5c-0.5,0.5-1.2,1.4-1.5,2.1c-0.3,0.7-1.4,1-2,0.6c-0.7-0.5-2,0.1-2.5,1.4
	c-0.6,1.3-1.5,2.7-1.8,3.2c-0.3,0.6-0.9,1.5-1.2,1.8c-0.5,0.5-0.7,0.7-0.9,0.7s0.1,0.3,0.5,0.6c0.3,0.3,0.6,1.4,0.6,2.4
	c0,1,0.1,2.5,0.3,3.1c0.1,0.6,0,0.7-0.1,0.1c-0.3-0.6-1.2,0.5-2.2,2.1c-1,1.6-1.8,4.2-1.8,5.7c0,1.4-0.3,3-0.7,3.6
	c-0.5,0.6-0.9,1.6-1,2.2c-0.3,0.7-0.9,1.5-1.4,1.6c-0.5,0.3-0.7,0.7-0.6,1.2c0.1,0.5,0.5,2.1,0.9,3.6c0.3,1.6,1.5,2.7,2.5,2.5
	c1-0.1,2,0.1,1.8,0.6c0,0.5,0.1,1.5,0.5,2.2c0.3,0.7,0.6,1.2,0.7,1s-0.1,1.5-0.5,3.6c-0.5,2.1-0.7,5.1-0.7,6.7c0,1.6,1.8,3,4,3
	s3.9-1.4,3.5-3c-0.3-1.8-0.5-4-0.5-5.1c0.1-1,0.3-3.2,0.5-4.7c0.1-1.6-0.1-4.2-0.6-5.8c-0.5-1.6,0-3.6,1.2-4.3
	c1.2-0.7,2.7-0.9,3.2-0.5c0.6,0.5,1.2,0.7,1.2,0.7c0.1,0,0,0.9-0.1,2.1c-0.1,1.2,0,3,0.5,3.9c0.5,0.9,1.6,2.5,2.5,3.7
	c0.9,1.2,1.8,2,1.8,2s1,0.9,2.4,2.2s2.2,2,2.1,1.5c-0.1-0.5,0.9-1,2.4-1.4c1.5-0.1,2.7-0.5,2.9-0.6c0.2-0.1,0.1-0.5-0.1-0.7
	s-0.1-0.3,0.3,0c0.5,0.3,0.6-0.1,0.5-1c-0.1-0.9-0.7-1.8-1.2-2c-0.5-0.1-1.2-0.7-1.6-1.2c-0.5-0.5-1-1.2-1.4-1.8
	c-0.5-0.5-0.6-1.2-0.6-1.5s0.5-0.6,0.7-0.5s0.7-0.3,0.9-0.9c0.1-0.6,0-1.6-0.5-2.2c-0.5-0.6-1.4-1.6-2.1-2.5
	c-0.7-0.9-2.5-2.4-3.9-3.7c-1.4-1.2-2.5-2.7-2.7-3s0.5-0.6,1.2-0.3c0.7,0.3,2,0,2.7-0.6c0.7-0.6,2.4-1.6,3.6-2.4
	c1.2-0.8,2.9-2.1,3.6-3.1c0.7-0.9,2.5-1.8,3.9-2c1.4-0.1,1.2-0.6-0.5-1s-2.5-0.6-2-0.5c0.5,0.1,0,0.5-1.4,0.5c-1.2,0.1-3,0.5-4,0.9
	c-1,0.5-3,0.9-4.5,1c-1.5,0.3-3.9,1-5.2,1.8c-1.4,0.7-3,0.6-3.5-0.3c-0.5-0.9-1.5-1.8-2.1-2.1c-0.6-0.3-1.4-2.2-1.6-4.2
	s0.7-4.6,2.2-5.5c1.5-1,4.7-1.8,7.3-1.8h5.1c2.4,0,5.5,0,7.1-0.1s3,0.3,3.7,0.7c0.6,0.5,2.2,0.9,3.5,0.9c1.2,0,3.6-0.9,5.2-2
	C853.9,605.4,856,603.3,857.2,601.8z"/>
<path fill="none" stroke="#000000" stroke-miterlimit="10" d="M901.5,635.8c-1.2-0.5-3-1-4-1.4c-1-0.3-2.7-0.3-3.6,0
	c-0.9,0.3-2,0.5-2.2,0.1c-0.3-0.3-2.4-0.3-4.5,0.1c-2.1,0.3-3.9,0.7-4,1s-0.5,0.7-0.7,1s-0.6,1.2-0.5,2c0.1,0.7,0.7,0.5,1.4-0.5
	c0.6-1,1.8-1.2,2.7-0.5c0.9,0.7,2,1,2.5,0.6c0.6-0.5,1.2-0.6,1.5-0.5s1.2,0.6,2.2,0.7c1,0.1,2,0.5,2.2,0.6c0.3,0,0.6-0.1,0.6-0.5
	s0.9-0.5,2-0.1c1,0.3,3.5,1.2,5.4,2.2c2,1,3,0.5,2.4-1.2C904.1,637.8,902.7,636.2,901.5,635.8z"/>
<path fill="none" stroke="#000000" stroke-miterlimit="10" d="M875.7,638.3c-0.5-0.1-1-0.7-1.4-1.2s-1.2-0.9-2.1-0.9
	c-0.9,0-2.7,0.3-3.9,0.7c-1.2,0.5-1,2,0.6,3.1s3.9,1.4,5.2,0.3C875.6,639.6,876.2,638.7,875.7,638.3z"/>
<path fill="none" stroke="#000000" stroke-miterlimit="10" d="M938,658.1c-0.3-0.7-0.5-1.4-0.3-1.5c0.1-0.1-0.1-0.3-0.6-0.3
	c-0.5-0.1-1.4,0.1-2,0.6c-0.6,0.5-0.9,0.9-0.5,1.2c0.3,0.3,0.6,0.9,0.6,1.4c0,0.5,0.1,1.5,0.5,2.1c0.3,0.6,0.9,1,1.4,0.7
	c0.5-0.3,0.9-0.9,1-1.2c0.1-0.3-0.1-0.7-0.3-1c-0.3-0.1-0.3-0.3,0-0.3s0.6,0,0.6,0s0-0.1-0.1-0.3c-0.1-0.1,0-0.1,0.1-0.3
	C938.5,659.5,938.3,658.8,938,658.1z"/>
<path fill="none" stroke="#000000" stroke-miterlimit="10" d="M933.5,663c0.1,0.7,0.5,2.1,0.5,3c0,0.9,0.6,1,1.2,0.3
	c0.6-0.7,0.5-2.1-0.5-3C933.9,662.4,933.4,662.2,933.5,663z"/>
<path fill="none" stroke="#000000" stroke-miterlimit="10" d="M909.6,675.3c0.1,0.5,0.1,1,0.1,1.4c0,0.1,0.7-0.5,1.5-1.5
	c0.7-1,1.5-2.7,1.6-3.6c0.1-0.9-0.5-0.6-1.5,0.6C910.4,673.3,909.6,674.8,909.6,675.3z"/>
<path fill="none" stroke="#000000" stroke-miterlimit="10" d="M769.9,678c-0.1-1.8-1.5-3.2-3.1-3.2s-4.5-0.5-6.2-0.9
	c-1.8-0.5-3.2-1.2-3.2-1.8c0-0.5-0.3-1.2-0.9-1.4c-0.5-0.3-1-1-1-1.8c0-0.7-2-1.6-4-2.1c-2.1-0.5-4.7-0.9-5.8-0.9
	c-1,0-2.4-0.6-3.1-1.2c-0.7-0.6-1.6-0.5-2.2,0.3c-0.6,0.7-1.8,1.8-2.7,2.2c-0.9,0.5-3.6,0.6-6,0.3l-2.7-0.3c-2.4-0.1-5.1-1-6-1.8
	c-0.7-0.7-1.8-1.8-2.2-2.2c-0.5-0.5-1-0.7-1.5-0.6s-1.6,0.1-2.9-0.1c-1.2-0.3-3.2-0.9-4.6-1.4s-2.7-0.6-3-0.3
	c-0.3,0.3-1,0.3-1.6,0.1c-0.6-0.1-2-0.5-3-0.5c-1-0.1-2.5,0.1-3,0.5c-0.5,0.3-1.4,1.4-1.5,2.1c-0.3,0.7-0.6,1.4-0.9,1.4
	c-0.1,0-0.7,0.6-1.4,1.4c-0.5,0.7-1.4,1.4-1.8,1.2c-0.5-0.1,0.7,0.1,2.7,0.3c2,0.2,4.3,0.6,5.2,0.7c0.9,0.3,1.5,0.9,1.4,1.6
	c-0.1,0.7,0.5,1.5,1.2,1.8c0.7,0.3,2.7,0.7,4.2,1c1.5,0.3,3.6,0.9,4.7,1.4c1.2,0.5,3.2,0.9,4.5,0.9c1.4,0,3.1-0.1,3.9-0.5
	c0.9-0.1,2.4-0.1,3.2,0c0.9,0.1,3.2,0.7,5.2,1.4c2,0.7,5.1,1.5,7.1,2.2c2,0.7,5,1.4,6.5,1.4c1.6,0.1,3.9,0.1,5.1,0.3
	c1.2,0,3.7,0.1,5.8,0.1c2.1,0,5.4,0.5,7.5,1.2c2.1,0.6,4.7,1.4,6,1.5c1.2,0.1,2,0.1,1.4-0.3C770.2,681.5,770.1,679.7,769.9,678z"/>
<path fill="none" stroke="#000000" stroke-miterlimit="10" d="M840.7,678.9c-0.3,0-1.5,0.6-2.9,1.5s-3,1.2-3.7,0.9s-2.1-0.5-2.9-0.3
	c-0.7,0.1-3.5-0.3-5.7-1c-2.2-0.7-5.5-0.9-7.2-0.6c-1.6,0.3-3,1.6-2.9,2.7s1.6,2,3.6,2c1.8,0,3.6-0.1,3.7-0.3s0.6,0,0.7,0.3
	c0.1,0.3,1.4,0.5,2.4,0.3c1-0.1,2.1-0.3,2.5-0.5c0.3-0.1,0.9-0.1,1.2,0.1c0.3,0.1,0.9,0.3,1.4,0.1c0.5-0.1,2.7-0.7,5-1.5
	c2.2-0.7,4.3-1.8,4.6-2.4C840.9,679.5,841,678.9,840.7,678.9z"/>
<path fill="none" stroke="#000000" stroke-miterlimit="10" d="M812.1,689.2c-2.4,0.5-2.9,1.4-0.9,2.1c2,0.7,4.5,2.1,5.8,3
	c1.4,0.9,3.2,1,4.2,0.5c1-0.7,0.5-2.4-1.4-3.7C818.3,689.4,814.9,688.7,812.1,689.2L812.1,689.2z"/>
<path fill="none" stroke="#000000" stroke-miterlimit="10" d="M691.3,657.5c1.4,0.6,2.5,1,2.7,0.9c0.1,0,0.3-0.1,0.1-0.3
	c-0.2-0.2,0-0.6,0.3-1.2c0.3-0.6,1.4-0.3,2.4,0.7c1,0.9,2-0.3,2.2-2.7l0.3-3c0.3-2.4,0.5-5.7,0.6-7.2c0.1-1.5,0-3.1-0.1-3.6
	c-0.1-0.6,0-1.5,0.5-2.2c0.5-0.7,0.1-2.4-0.6-3.7c-0.7-1.4-1.8-3-2.4-3.6c-0.6-0.6-1.5-1.2-2.4-1.4c-0.9-0.1-1.6-0.1-2-0.1
	c-0.3,0-0.6,0-0.9-0.1c-0.3-0.1-1,0.6-2,1.8c-0.9,1.2-1.4,1.4-1.2,0.5c0.2-0.9,0.7-2.1,1.4-2.9c0.6-0.7,0.7-1.5,0.1-1.8
	c-0.6-0.3-1-0.5-1.2-0.3c-0.1,0.1-0.5,0-0.6-0.1c-0.1-0.1-0.6-2-1-3.9c-0.3-2-1.6-3.6-2.7-3.6c-1.2,0-2.9-0.5-3.7-1
	c-0.9-0.6-1.8-1.8-2-2.5c-0.1-0.7-0.3-1.6-0.5-1.8c-0.1-0.1,0.1-0.6,0.5-1c0.3-0.5,0.1-0.6-0.3-0.5c-0.5,0.1-0.3-0.3,0.3-0.7
	c0.7-0.6,1-2,0.7-3.1c-0.3-1.2-2.4-1.6-4.6-1c-2.4,0.6-3.1,0.3-1.6-0.5c1.4-0.9,1.8-1.8,0.7-2.1c-1-0.3-2-0.7-2.1-0.9
	s0.6-0.1,1.8-0.1c1.2,0,1.4-0.3,0.3-0.9c-1-0.6-2-1.2-2.2-1.2s-0.5,0.3-0.6,0.7c-0.1,0.3-0.6,0.3-1.4-0.3c-0.6-0.6-1.8-2-2.4-2.9
	c-0.7-1-2.4-2.4-3.6-3.1c-1.2-0.7-3-2.1-3.9-3c-0.9-0.9-1.5-0.7-1.5,0.3c0,1-1,1-2.2-0.1c-1.2-1.2-2.7-2.5-3.5-2.9
	c-0.7-0.5-1.5-0.9-1.8-1c-0.3-0.1-0.9-1.4-1.5-2.5c-0.6-1.2-2.2-3-3.6-4c-1.5-0.9-4.3-2.7-6.6-3.9c-2.2-1.2-4-3-4.2-4
	c-0.1-1-0.5-1.8-0.7-1.8s-0.6-0.3-0.6-0.7c0-0.5-0.5-1.2-0.7-1.8c-0.2-0.7-1.5-1.5-2.5-2c-1-0.5-2.2-0.9-2.9-0.9s-1.5-0.1-2.1-0.1
	c-0.6-0.1-2.2-0.3-3.7-0.3c-1.5,0-3.9-0.7-5.5-1.6c-1.5-0.9-3-0.1-3.2,1.5c-0.2,1.6,0.9,4.5,2.7,6.2l1.6,1.8
	c1.6,1.8,4.2,3.7,5.5,4.5c1.4,0.6,3,2.1,3.7,3.1c0.7,1,2,2.5,2.7,3.2c0.7,0.9,1.8,2.4,2.1,3.6c0.3,1.2,1,2.1,1.4,2.1
	c0.3,0,1.2,0.5,1.8,0.7s2,1.2,3.1,2c1.2,0.7,2.1,1.6,2.1,2.1c0,0.5,0.6,2.7,1.4,4.7c0.7,2.1,2.2,4.7,3.2,6c1,1,2.5,3,3.5,4.2
	c0.9,1.2,2.5,3.5,3.7,5.1c1.2,1.6,2.2,3.2,2.2,3.6c0.1,0.5,0.6,1.2,0.9,1.8c0.5,0.6,1.2,2.2,1.8,3.6c0.6,1.4,2.2,4,3.7,6.1l2.4,3
	c1.5,2,3.5,4,4.2,4.5c0.7,0.5,1.6,1.6,2,2.4c0.3,0.7,1.5,2.4,2.9,3.5c1.2,1,3.6,2.9,5.1,3.9s3.7,2.5,4.7,3.5c1,0.9,3.2,2.7,4.7,4.2
	c1.5,1.5,2.5,2,2.2,1C689.2,657,689.9,656.9,691.3,657.5z"/>
<path fill="none" stroke="#000000" stroke-miterlimit="10" d="M741.4,446.6c0.1,0,0.5-0.5,0.5-0.9c0-0.6-0.5-1.6-1.2-2.4
	c-0.7-0.7-1.4-1-1.5-0.5c-0.1,0.6-0.6,1-1,1c-0.5,0-1.2-0.3-1.6-0.6c-0.5-0.3-0.9-0.5-1-0.3c-0.1,0.1-0.6,0.5-1,0.6
	c-0.5,0.3-1,0.5-1.4,0.3c-0.3,0-0.6-0.1-0.6-0.3s-0.6-0.1-1.4,0.1c-0.7,0.1-1,0.5-0.9,0.6c0.1,0.1-0.3,0.5-1,0.6
	c-0.7,0.3-2.1,1-3.1,1.8c-1,0.7-2.2,2.4-2.7,3.7c-0.5,1.4-0.3,3.2,0.5,4.5c0.7,1.2,2.2,2.5,3.6,3c1.4,0.5,2.4,0.7,2.5,0.6
	c0.1,0,0.3,0,0.3,0.3c0,0.3,0.1,0.1,0.5,0c0.3-0.3,1-0.7,2-1.2c0.7-0.5,1.4-0.7,1.2-0.6s0,0.1,0.1,0.1c0.3,0,1-0.6,1.6-1.2
	c0.7-0.6,1.5-1.6,1.8-2.1c0.3-0.5,0.6-1.4,0.9-2.1c0.1-0.6,0.1-1.2-0.1-1.2s0.3-0.9,1.2-2C740.1,447.6,741.1,446.6,741.4,446.6z"/>
<path fill="none" stroke="#000000" stroke-miterlimit="10" d="M885.9,268c-1.2,1.8-1.2,4.2-3.1,5.2c-1,0.6-3.7,0.1-4.7,0.1
	c-3,0-6.6,1.6-6.6,5.1"/>
<path fill="none" stroke="#000000" stroke-miterlimit="10" d="M410.1,279c0-0.3-8.6-5.1-15.4-1.5c-2.9,1.5-5.7,2.9-7.2-0.6
	c-2.1-5.1-9.7-0.9-9.7-1.2c0.1-0.7,1.2-3.6,1-3.9c-0.3-0.7-4.7-2.7-5.8-3c-1.2-0.3-2,0.1-3.2-0.3c-2-0.7-3.9-2.9-5.7-4
	c-1.5-1-3.1-2.5-4.6-3.2c-0.1,0-1.5,0-2-0.3c-1-0.5-2.1-1.5-3-2.2c-2.9-2.5-8.7-5.4-10.2-8.8c-0.5-0.9,0-1.8-0.3-2.7
	c-0.6-1.4-1.2-1.4-1.8-2.2c-1-1.8-0.9-3.7-1.8-5.4c-0.7-1.4-2.4-3.2-4.2-3.2c-0.7,0-0.6,1-1,1.2c-0.6,0-1.5-0.3-2.1-0.3
	c-1.8,0.1-4.5,0.3-6.6-0.9c-2.7-1.6-1-1.2-1-3c0-1.2,0-1.2,0-1.2c0.3-0.5,0.3-1.4-0.1-1.8c-0.5-0.6-1.4-2.1-0.7-3c0,0,0,0-0.1-0.5
	c-0.7-2.2-3.1-0.9-4.6-1.4c-2-0.6-1.2-1.5-2.5-2.4c-0.7-0.6-1.4,0.1-2.1-0.5c-1.2-0.9-1.2-0.9-1.2-0.9c-0.9-1.2-2.9-2.2-4.3-2.2
	c0,0,0,0-1,1.8c-0.3,0.5,2.5,2.5,2.7,3.6c0.3,1.2-1.6-1.5-2.1-1.6c-0.9-0.3-1.6-0.5-2.5,0.3c-0.3,0.3-0.3,2.5-0.7,2.9
	c-1.5,1.2-3.6,0.1-5.4,1.6c-1.6,1.5-1.4,3-1.4,3c0.6,2.4-0.9,4.5-3.2,4.7c0,0-2.9,0.3-5.4,0.1"/>
<path fill="none" stroke="#000000" stroke-miterlimit="10" d="M290.9,235.8c0-7.7,0-15.5,0-23.1c0-4,0-8.1,0-12.1
	c0-1.2-0.6-5.4,0-6.2c0.5-0.6,2.9-0.9,3.5-1.2c4.3-1.4,8.7-2.9,12.9-4.2c4.3-1.4,5.2-1,9.1,1.6c4.7,3.1,12.4,6.5,16.2,10.8
	c2.2,2.5,4,7.7,7.3,9.7c2.4,1.4,6.7-0.6,9.6-0.9c3-0.1,6.1,0.6,9.1,0.6c1.8,0,4.5-2.1,5.7-1.8c4.5,0.7,7.3,4.6,7.3,4.6
	c1.5,2,2.2,5.5,1.8,8.1c0,0-0.9,4.3,0.1,6c0.9,1.4,3.1,0.1,4.2,1.5c1.4,1.6-0.3,6.5,1.5,8.1c1,1,2.7,0.5,4,0.5c2-0.1,2-0.1,2-0.1
	c2.4-0.1,4.6,0.5,4.7,0.7c0.1,0.3,0.7,0.5,0.7,0.3c0.1,0,0,1.2-0.3,1.8c-0.3,0.5,0.9,2.2,2.9,3.7c0,0,0.5,0.5,1.6-0.6
	c0.6-0.6-0.6-1.8-0.5-2.7c0.1-0.7,1-1.8,1.8-2.5c0.6-0.6,1.6-0.7,2.1-1.4c0.3-0.3,0.1-1.6,0.1-1.6c0.7-0.7,0.7-0.7,0.7-0.7
	c1.2-0.3,3.2-1.4,4.6-2.4c0,0,0,0,1.4-0.7c1.4-0.7,2.1-2.1,3.5-3c0.6-0.5,0.9-1,1.6-1.5c0.3-0.1,0.5,1,0.9,0.9
	c1.5-0.7,1.2-2.1,3.1-2.5c0,0-0.5,8.2,1.8,9c2.2,0.7,1.8,1.6,1.8,1.6s-2.7,2.9-2.7,3.9s7.5,1.6,6,4.2c-1.5,2.5-1.5,2.5-1.5,2.5
	l-1.2,2.2l0.7,2.5l2.1,4l2.5,2"/>
<g>
	<path fill="none" stroke="#000000" stroke-miterlimit="10" d="M290.9,235.8c-2.9,0.3-3.5,1-5.5-1c-2.1-2.1-2.7-5-4.7-7.1
		c-6.2-6.1-13.9-2-19,3.2"/>
</g>
<path fill="none" stroke="#000000" stroke-miterlimit="10" d="M558.6,387.1"/>
<polyline fill="none" stroke="#000000" stroke-miterlimit="10" points="236.3,619.7 236.2,619.5 236,619.5 236,619.3 236,619.2 
	235.9,619.2 "/>
<path fill="none" stroke="#000000" stroke-miterlimit="10" d="M236.3,619.9"/>
<path fill="none" stroke="#000000" stroke-miterlimit="10" d="M235.9,620.4"/>
<path fill="none" stroke="#000000" stroke-miterlimit="10" d="M438.1,255.8c0,0,0,0.1-0.1,0.3c-0.1,0.1-1.4,0.9-2.9,1.6
	c0,0,0,0-1.2,0.1c-1.6,0.1-4-0.7-6-0.6c-3.9,0.3-7.6,0.9-10.3,2.7c-0.9,0.6-2,2-2.5,2.4c-0.1,0-0.9-0.5-1.5,0
	c-0.1,0.1-1.6,1.5-1.8,1.8c-1.6,2.4-1,0.6,0,2.7c0.6,1.4,0.9,2.2,1.2,3.2c0.9,3.2,1.2,4.3-1.4,7.2c-0.7,0.9-3,3.2-3,3.9
	c-0.1,1,1.2,1.5,1.2,2.7c0,1-0.1,1.5-0.7,2.1c-2.5,2.4-10.9-2.4-8.8,2.4c0.3,0.7,1.2,0.5,1.5,1.2c0.5,0.7,0.1,1,0.3,1.8
	c0.1,0.6,1.4,0.7,1,1.6c-0.1,0.5-2.2,1.8-2.5,2c-2.9,1.2-3-0.3-4.2,2.7c-0.6,1.4-1.5,2.9-2,4.5c-0.6,2.5,1.8,4.7-1.4,6.7
	c-3.2,2-3,2-3,2c-1.4-1.5-2.1-2.7-2-2.7s-0.1,0-1.2-0.3c0,0,0,0-0.7,0.1s-0.6,0.1-1.5,0.6c-1.4,0.6-1.4,0.6-1.4,0.6
	c-1.5,0.7-2.7,1.6-2.5,2c0.1,0.3-0.6,0.9-3,1c0,0-1.4,0.1-2.7,0.5c-2.1,0.6-5,4.5-5.2,6.6c-0.1,1.5-0.1,2-0.1,2
	c0.3,2.4-1.2,5.2-3.5,6.2c0,0-1.2,0.6-3.6,1.2c-2.4,0.7-4.3,0.5-6.7,0.6c-1.4,0.1-2.5,0.7-3.6,1c-1,0.1-1.8,0.1-3.5-0.1
	c-4.6-0.7-8.8,1-13.4-0.3c-3.5-1-6.1-5.8-9.6-7.1"/>
<path fill="none" stroke="#000000" stroke-linejoin="round" stroke-miterlimit="10" d="M392.7,409c0,0,0.1-0.1,0.5-0.5
	c0.1-0.3,0.5-0.5,0.6-0.6c0.1-0.1,0.9-0.1,1.8-0.1s1.8-0.6,2.1-1.2c0.3-0.6,2-1.2,3.9-1c1.8,0,5.1-0.3,7.2-0.9
	c2.1-0.6,4.7-0.9,6-0.9s2-0.3,1.6-0.6c-0.3-0.3-0.6-1.4-0.6-2.2c0-0.9-0.6-2.5-1-3.6c-0.6-1-1-2.4-1.2-3s-0.5-1.2-0.9-1.5
	c-0.5-0.1-1.4-0.7-2.1-1.2c-0.7-0.5-1.5-1.4-1.5-2.1c0-0.7,0-2.1,0.1-3.1c0.1-1-1-2.2-2.5-2.7c-1.5-0.5-1.8-2.7-0.7-5l0.9-1.8
	c1-2.2,2.7-4.5,3.5-5.1c0.7-0.6,1.8-0.7,2.4-0.1c0.5,0.6,2.7,0.9,5,0.7c2.2-0.1,5.2-2,6.6-3.9l0.1-0.1c1.5-2,3.7-4.3,5.2-5.2
	c1.5-0.9,3.2-2.7,3.9-4c0.6-1.4,1.5-3.1,2-4.2c0.5-1,1.4-2.1,2.2-2.5c0.9-0.3,1.8-1.4,2-2.1c0.1-0.7,1.6-2.9,3.5-4.6l0.5-0.6
	c1.6-1.8,3-3.7,2.7-4.5c-0.3-0.7-0.6-2.1-0.6-3.1c-0.1-1,0.6-2.5,1.8-3.2c1.2-0.7,2.4-2.2,3-3.1c0.6-0.9,0-2.7-1.2-3.9
	c-1.2-1.3-3-2.2-3.7-2.4c-0.7-0.2-2-0.7-2.5-1.5c-0.6-0.7-1-1.8-0.9-2.4c0.1-0.6,0.3-1.5,0.3-2.1c0.1-0.6-0.1-1.2-0.5-1.4
	c-0.3-0.2-0.5-0.9-0.5-1.4c0.1-0.6,0.3-1.4,0.6-1.8c0.3-0.5,0-1-0.6-1.4c-0.6-0.3-1-0.9-1-1.5s0-1.4-0.3-1.6s0.6-1.4,1.8-2.4
	c1.2-0.9,4-1.2,6.5-0.6c2.4,0.6,5.7,0.9,7.3,0.6c1.6-0.3,4.3-1.2,6-2c1.6-0.7,3.2-1.6,3.7-2c0.5-0.3,0.5-2-0.1-3.6c-0.6-1.6-1-3-1-3
	l6,0.9c2.4,0.3,4.7,2.1,5.1,3.9c0.3,1.8,1.8,4,3,5.2c1.4,1.2,2.2,3,2.2,3.9c-0.1,1,0.1,3.2,0.6,5.2c0.5,2,1.5,3.9,2.4,4.5
	c0.9,0.6,2,2,2.2,3c0.2,1-0.5,2.7-2,3.7c-1.5,1-2.9,1.4-3,0.7c-0.1-0.6-1-0.9-1.8-0.7c-0.7,0.1-1.2,1-1,2c0.1,0.9,0.3,1.6,0.3,1.6
	l0,0c0,0,0.6,1.2,1.2,2.7s1.6,3.5,2.1,4.3c0.5,0.8,2,2.4,3,3.2c1.2,0.9,3.5,2.5,5,3.6c1.5,1,4.3,2.9,6.1,3.7
	c1.8,0.9,3.5,1.8,3.5,1.8s-0.1,0-0.5,0c-0.3,0-1.5,1-2.5,2.4c-1.2,1.4-2.4,3.2-2.5,4.2c-0.3,0.9-0.9,2.5-1.4,3.7
	c-0.5,1.2-0.1,2.7,0.9,3.6s3.2,2.2,5,3c1.7,0.8,4.5,2.1,6.5,3c1.8,0.9,3.2,1.6,3.2,1.6h0.1c0,0,0.6,0.5,1.2,0.9
	c0.7,0.5,1.8,0.9,2.5,0.9c0.7,0.1,1.5,0.6,1.6,1c0.1,0.5,0.9,1,1.6,1.2c0.7,0.1,2,0.3,2.5,0.5c0.6,0.1,2.1,0.3,3.2,0.5
	c1,0.1,2,0.1,2-0.1s1.5,0.1,3.2,0.9c1.8,0.7,3.2,1.5,3.2,1.8c0,0.3,0.1,0.6,0.5,0.7c0.3,0.1,0.7,0.3,1,0.5c0.3,0,1,0.3,1.6,0.7
	c0.6,0.3,1.5,0.7,2,1c0.5,0.3,1,0.3,1.5,0.1c0.5-0.1,1.2,0.1,2,0.7c0.6,0.6,2.1,1,3.2,1c1.2,0,3.5,0.1,5.1,0.1
	c1.6,0,4.2,0.5,5.5,0.7c1.4,0.5,3.2,0.6,4.3,0.3c0.9-0.3,1.8,0.3,2,1.2c0.1,0.9,0.6,1.8,0.9,2.1c0.3,0.3,0,1-0.7,1.6s-1.2,2-0.7,2.9
	c0.5,0.9,1.8,2.9,3.2,4.2c1.4,1.5,2,2.5,1.2,2.5c-0.7,0-1.8,0.3-2.2,0.9c-0.5,0.5-1.5,1.5-2.2,2.2c-0.7,0.7-0.1,2.1,1.5,3.1
	c1.6,1,2.7,2.7,2.4,3.7c-0.1,1-0.1,2.7,0.1,3.6c0.3,0.9,0.9,2.2,1.4,3c0.5,0.7,0.9,3.2,1.2,5.7l0.5,5.1"/>
<path fill="none" stroke="#000000" stroke-miterlimit="10" d="M498.9,350.1c0,0,0.7-0.1,1.5-0.5c0.9-0.3,2.9-0.6,4.5-0.6
	c1.6-0.1,3.1,0.5,3.5,1.2c0.3,0.7,1.2,1.6,1.8,2c0.7,0.3,2.2,1.4,3.6,2.2c1.2,0.9,2.5,1.8,3,1.8c0.5,0.1,1,0.6,1.5,1.2
	c0.3,0.5,1.6,1,2.9,1.2c1.3,0.1,3,1.2,3.7,2.2s2.5,2.7,3.9,3.6c1.4,0.9,3,1.5,3.5,1.4c0.6-0.1,0.9,0.5,0.7,1c-0.1,0.6,0.7,1.2,2.2,1
	s3.1,0.7,4,2c0.9,1.2,1.8,1.5,2,0.9c0.3-0.7,0.9-0.7,1.2-0.3c0.3,0.5,1,0.6,1.6,0.1c0.5-0.5,2.4-0.1,4.3,0.5c2,0.6,3.5,1.4,3.2,1.4
	s1.4,0.1,3,0c1.6-0.1,3.1-0.3,3.1-0.3l6.5,5.1c0,0,0.1,0,0.5,0s1.4-1.6,2.5-3.5c1.2-2,4-3.7,6.6-4h0.3c2.4-0.3,4.2-0.3,3.9,0
	c-0.2,0.3,0.7,0.7,2.2,0.9c1.5,0.2,3.6,0.7,4.7,1.5c1.2,0.7,2.1,1.2,2.1,1.2s1.2-0.1,2.5-0.5c1.4-0.3,2.7-0.3,2.9-0.1
	c0.1,0.1,1-0.1,2-0.9c0.9-0.6,1.8-1.5,2.1-1.8c0.3-0.3,1-1.2,2-2c0.7-0.7,2.9-2.1,4.5-2.9c1.6-0.9,3.5-1.8,3.7-2
	c0.5-0.1,1-0.6,1.5-0.7c0.5-0.1,0.9-0.6,0.9-1c0-0.3,0.6-1,1.4-1.6c0.7-0.6,2-0.6,3-0.1c1,0.5,1.6,0.6,1.6,0.6
	c-0.1-0.1,0.5,0,1.2,0.3c0.7,0.3,1.6,0.3,2.1-0.1c0.3-0.3,0.7-0.5,0.7-0.3c0,0.1,0.3,0,0.6-0.3c0.3-0.3,0.7-0.7,1.2-0.9
	c0.3-0.1,1-0.5,1.5-0.5c0.5-0.1,0.9-0.3,0.9-0.3l1-0.1c0,0,0.5,0.1,1,0.5c0.6,0.3,0.9,0.9,0.5,1.6c-0.5,0.7-0.3,1,0,0.9
	c0.3-0.1,1,0.3,1.6,1c0.5,0.7,0.7,2.2,0.6,3.1c-0.1,1,0.5,1.8,1.4,1.8c0.9,0,2.4,0.5,3.5,0.9c1,0.5,1.8,0.9,1.8,0.9s0.5-0.7,0.9-1.5
	c0.5-0.9,1.8-0.9,2.7-0.3c1,0.6,2.1,1.8,2.4,2.7c0.3,0.7,1,2.1,1.8,2.9c0.7,0.7,1.8,2.9,2.5,4.7c0.7,1.8,1.2,5.2,0.9,7.3
	c-0.1,2.1-0.5,4.5-0.5,5.2s-0.5,1.5-0.9,1.8c-0.5,0.3-1.4,0.6-2,0.9c-0.6,0.1-1.8,1-2.4,2c-0.7,0.9-1.5,2.2-1.8,3
	c-0.3,0.8-0.5,1.6-0.3,2c0.1,0.3-0.1,0.7-0.5,0.7s-0.7,0.7-0.9,1.4c-0.2,0.7-0.1,1.4,0.1,1.5c0.1,0.1,0.5,0.6,0.5,0.9
	c0,0.3-0.1,1.4-0.5,2.2c-0.3,0.9-0.3,2,0,2.2c0.3,0.3,1.5-0.1,2.9-0.7s3.6-1.4,5.1-1.4s2.7,1.5,2.7,3.6s0,4,0,4.3
	c0,0.3,1.4,1.2,2.9,1.8c1.5,0.6,2.5,1.2,2.2,1c-0.3-0.1-0.7,1-1.2,2.4c-0.3,1.4-0.3,2.9,0.1,3.6s1.5,1.4,2.4,1.5
	c0.9,0.1,2.2,1,3,2.1c0.7,1,1.4,2.2,1.6,2.7c0.1,0.5,0.9,0.9,1.6,0.9s2.4-0.1,3.7-0.5c1.4-0.3,2.5-0.5,2.5-0.5s0.1,0.5,0.3,1
	s0.7,1.2,1.5,1.4c0.7,0.1,1.8,0.3,2.5,0.1c0.7,0,1.2-0.7,1-1.5c-0.1-0.7-0.3-2-0.3-2.4c0-0.5-0.3-2-0.6-3.1
	c-0.3-1.2-0.1-2.4,0.3-2.9c0.5-0.3,1.5-0.6,2.1-0.5c0.6,0.1,1.4,0.1,1.4,0.1s0.6-0.7,1.2-1.5c0.6-0.7,2.1-1.2,3-0.7
	c1,0.5,2.4,0.6,3.2,0.5c0.7-0.1,2.1-0.3,2.9-0.3c0.8,0,1.5-0.1,1.5-0.6c0.1-0.3,0.6-0.3,1-0.1c0.5,0.2,1.2,0.7,1.5,1.2
	c0.5,0.3,1.2,0,1.8-0.7c0.6-0.7,2.1-1.4,3.1-1.5s2.9-0.9,3.9-2c1-1,2.5-1.6,3.5-1.2c0.9,0.5,2.5,0.9,3.7,1.2c1.2,0.3,2.5,0.7,3.1,1
	c0.5,0.3,1.4,0.5,2,0.3c0.6-0.1,1.5,0,2.1,0.3c0.6,0.3,0.6,1.5,0,2.5s-0.9,2.7-0.6,3.6c0.3,0.9,1.6,2.2,3.1,3.1
	c1.2,0.6,3,1.4,4.5,1.8"/>
<path fill="none" stroke="#000000" stroke-miterlimit="10" d="M551.3,145.9c0,0-1,0.9-2.4,1.8c-1.4,1-3.6,2.9-5.1,4.2
	c-1.5,1.2-3.6,3.5-5,4.6c-1.2,1.4-2.2,3.9-2.1,5.5c0,1.6-0.1,4.3-0.3,6c-0.2,1.7-1,3.1-2.1,3.6c-0.9,0.3-2.4,1-3.2,1.4
	c-0.7,0.5-2.2,0.3-3.1-0.3c-0.9-0.6-3.1-1.4-5.1-1.6c-2-0.3-4.3-0.6-5.5-0.7c-1-0.1-2.4,1.5-3,3.5c-0.6,2-1.5,5.7-2.2,8.1l-0.9,3.6
	c-0.6,2.4-0.6,4.6,0,5.1c0.6,0.5,0.9,1.4,0.6,2.1c-0.3,0.7-1,1-1.8,0.7c-0.6-0.3-1.8-0.5-2.5-0.3c-0.7,0.1-2.1,0-3-0.3
	c-0.9-0.5-3.5-0.1-5.7,0.5c-2.2,0.6-5,1.4-6,1.6s-1.6,1-1.2,1.6c0.5,0.6,1,1.6,1.4,2.4c0.3,0.6,0.5,2.4,0.3,4
	c-0.1,1.5,0.3,3.9,0.9,5.4c0.6,1.5,1.2,3.5,1.4,4.6c0.1,1,0.5,2.4,0.7,2.9c0.3,0.5-0.3,1.2-1.2,1.8c-0.9,0.6-1.5,1.2-1,1.6
	c0.5,0.5,0.5,0.9-0.1,1c-0.5,0.1-1.2,1-1.5,1.8c-0.5,0.9-0.6,2.4-0.5,3.5c0.1,1,0.1,2,0.1,2s-0.7,0.5-1.5,1
	c-0.7,0.6-2.4,1.6-3.2,2.2c-0.9,0.6-3.5,2.1-5.4,3c-2,0.9-4,2.4-4.6,3c-0.6,0.6-2,1.6-3,2.2c-1,0.6-3.7,1-6,1.4
	c-2.2,0.1-5.1,2-6.2,3.9c-1.2,2-3,3.6-4,3.7c-1,0.1-2.4-0.3-3-1c-0.6-0.7-2-1-3.1-0.9c-1.2,0.3-2.5,0.7-3.1,1.2
	c-0.6,0.5-2.1,1.4-3.2,2c-1.4,0.7-3,1.6-3.9,2c-0.9,0.5-2.1,2-2.9,3.5c-0.8,1.5-1.2,2.7-1.2,2.7s0.1,0.9,0.5,2.1
	c0.1,1.2,0.5,2.4,0.7,2.7c0.3,0.3,0.1,0.9,0,1.4c-0.1,0.5,0,1.2,0.3,2c0.3,0.7,1,1.2,1.5,0.9c0.5-0.1,2.2,0,4,0.6
	c1.6,0.5,3,1.8,2.9,2.9s0,2.5,0.3,3.2c0.1,0.6,0.9,2.2,1.5,3.6c0.6,1.4,0.6,2.7,0,3.1c-0.6,0.5-1.2,0.9-1.2,0.9l-2.9,2.1
	c0,0,0.6,0.3,1.4,0.6c0.7,0.3,2.4,1,3.7,1.5c1.4,0.5,3,1,3.7,1.2c0.7,0.1,1.6,1,2.1,2.2c0.5,1,1,2.9,1.4,3.7c0.3,1,0.7,2.1,0.9,2.5
	c0.1,0.5,0.6,0.6,1,0.6c0.5,0,1-0.3,1.5-0.5c0.5-0.1,1.2,0.3,1.8,0.9c0.5,0.7,0.9,1.4,0.9,1.4"/>
<path fill="none" stroke="#000000" stroke-miterlimit="10" d="M793.6,138.8c-1,2.2-5,9.7-5.7,11.6c-0.7,1.6-1.4,3.7-1.4,4.5
	c0,0.7-0.3,1.6-0.7,2c-0.5,0.3-0.9,1.4-0.9,2.2c0,0.8,1.4,1.8,3,2c1.8,0.1,4.5,0.5,6.1,0.6c1.6,0.1,4,0.1,5.2,0
	c1.2-0.1,3.2-0.7,4.5-1.4c1.4-0.6,3.5-0.5,4.7,0.5c1.4,0.9,3.7,3,5.4,5l3.6,3.9c1.6,1.8,1,3.7-1.2,4.3c-2.2,0.6-5.7,1.2-7.5,1.4
	c-1.8,0.1-4,0.7-5,1.2c-0.9,0.5-2.2,0.7-2.9,0.6c-0.6-0.1-2.4,0.3-3.7,0.9c-1.4,0.6-3.6,2.5-5,4.2c-1.2,1.6-3.1,3.7-4.2,5
	c-1,1-3,2.4-4.3,2.9c-1.4,0.5-3.5,0.7-4.7,0.7c-1.3,0-3.2,0.9-4.3,2.2c-1,1.4-2.9,3-4.2,3.9c-1.2,0.9-4.2,1-6.6,0.5l-5.1-1.5
	c-2.4-0.7-5.1,0.6-6.1,2.9l-0.3,0.7c-1,2.2-0.9,5.4,0.1,7.1c1,1.5,1,3.6,0,4.6c-1,1-3.5,3-5.2,4.5c-1.8,1.5-4.3,3.6-5.7,4.6
	c-1.4,1.2-4.3,2.5-6.7,3l-3.5,0.7c-2.4,0.5-6.5,1.4-8.8,1.8l-13.4,2.9c-2.4,0.5-5.7,1.6-7.3,2.4c-1.6,0.7-3.7,1.6-4.5,2
	c-0.7,0.3-2.2,0-2.9-0.7c-0.6-0.7-2.9-0.9-4.6-0.6c-1.8,0.3-4.5,0-5.8-0.7c-1.3-0.7-4.3-2-6.7-2.5l-1.4-0.5c-2.4-0.7-5.1-2-6.1-2.9
	c-1-0.9-3-1.6-4.3-1.8c-1.4-0.1-4.5-0.3-7.1-0.3h-1.2c-2.4,0-6.5-0.3-9-0.6l-11.2-1.2c-2.4-0.3-5.8-0.3-7.5-0.1
	c-1.6,0.1-3.2-0.1-3.6-0.6c-0.3-0.5-1.4-2.1-2.5-3.6c-1-1.5-2.7-4.3-3.6-6.2c-0.9-2-1.8-4.3-1.8-5.2c-0.1-0.9-2.1-2.4-4.3-3.5
	l-11.9-5c-2.2-0.9-6.1-2-8.7-2.1h-0.3c-2.4-0.1-6.2-0.6-8.3-1c-2.2-0.5-4.3-1.5-4.7-2.4c-0.5-0.9-0.1-3.1,0.6-5
	c0.7-1.8,1.2-3.9,1-4.6c-0.1-0.7-0.3-1.8,0-2.4c0.1-0.6,0.3-1.8,0.5-2.7c0.1-0.9-0.5-2.5-1.2-3.6s-2-3.7-2.9-5.8
	c-0.9-2.1-2-4.2-2.5-4.7c-0.6-0.6-1.4-1.2-1.6-1.4c-0.2-0.2-0.7-0.1-1,0c-0.3,0.1-0.9,0-1.5-0.5c-0.6-0.5-1.4-1-2.1-1.2
	c-0.6-0.3-1.5-0.3-2-0.1c-0.5,0.1-1.2-0.1-1.5-0.5s-1.4-1-2.2-1.4c-0.9-0.3-1.6-1.2-2-1.8s-1.2-1.6-2.1-2c-0.7-0.5-1.6-1.2-1.8-1.6
	s-0.5-1-0.5-1.4c0-0.3-0.3-0.7-0.7-0.9c-0.5-0.1-0.7-1.4-0.7-2.7c0-1.4,0-2.4,0-2.4l-4,1"/>
<path fill="none" stroke="#000000" stroke-miterlimit="10" d="M675,516.4c0-1.2-0.9-2.1-1.2-3.2c-0.1-0.7,0-3,0-3.2
	c-0.6-1.2-1.6-2.1-2.2-3.1c-1-2.2-0.9-2.5-0.9-2.5c1-2.2,2.7-5.8,3.9-8.1c0,0,0.6-1.2,2.2-2.1c2.7-1.5,6.1-0.6,8.7-0.7
	c0.7,0,3.6-0.3,4.2-0.3c1.8,0.1,3,2.4,4,0.7c3.2-0.5,3.2-1,3.2-1c0-2.4,0.5-6.1,1-8.2c0,0,0,0-0.6-2.4c-0.1-0.5-1.5-0.7-2-1.2
	c-0.9-0.9,0.3-0.9-0.5-1.6c-1-1.2-2.7-1.2-3.7-2.9c-0.9-1.6-1.2-2-1.2-3.9c0-1.6,1-3.6,0.3-5.2c-0.6-1.4-2.5-2.2-3.6-3.2
	c-1-1.2-2-3.7-3.2-4.6c-0.5-0.3-1.2-0.1-1.2-0.1c-2.4,0.3-4.6,0.7-5,0.9c-0.3,0.1-1.2,1-1.2,0.9c0,0-0.6,0.1-1.4,0.5
	c-0.7,0.3-2.7,1.8-3.6,1.2c0,0,0,0-1.4-0.7c-2.1-1.2-0.7-1.4-3-0.6c-1.6,0.5-1.6,0.5-1.6,0.5c-1.5,1.6-4,4.5-5.7,6.2
	c0,0-0.7,0.9-1.6-2.4c0-0.1,0.7-2.2,0.9-2.2c0.7-1.6,0.9-1.8,1-3.6c0-0.6-0.9-0.6-0.7-1.4c0-0.6,1-0.9,1.2-1.5
	c0.3-1.2,0.7-3.1,0.7-4.2c-0.3-3.6,0.1-4.5-3.6-4c-1.2,0.1-2.7,1.4-3.5-0.7c-0.5-1.5-0.5-1.5-0.5-1.5c0.9-1.6,1.2-3.9,0.6-4.7
	c-0.6-0.9-2.2,0.9-2.4,0.7c0,0,0,0-0.1-0.3c-1.6-2.2-1.6-2.2-1.6-2.2c-2.1,0.9-3.7,2.5-3.6,3.6c0,0,0,0-1.4,0.7
	c-0.3,0.1-1.2-0.9-1.8-0.3c-0.6,0.5-0.3,1.4-0.6,1.5c-1.2,0.9-0.6,1-2.2,1.5c-0.9,0.3-1.4,0.5-2.1,0.5c-2.7,0.3-3.6-1.5-5,1.2
	c-0.7,1.5-1.2,3.1-1.4,4.6c-0.1,1-0.1,1-0.1,1c-1.6,1.6-2.1,3.7-1,4.5c0,0,0,0,0.9,2.1c0.5,1.2-0.1,2.2,0,2.9
	c1.4,3.6,3.6,5.4,3.6,5.4c2,1.6,3.6,3.6,3.7,4.6s1.2,3,1.4,2.7c0.3-0.3,0.6-0.5,0.3,0.5c-0.3,0.9-1.8,3.1-1.8,4.5
	c0,1.4-0.5,3.6-0.7,3.5c-0.2-0.1-1.5,1.8-2.5,2.9c0,0,0,0,0.6,1.5c1.4,3.1,3.9,4.2,5.8,6.6c3.2,3.7,0.6,7.7,2.4,11.6
	c0.7,1.6,0.7,1.6,0.7,1.6c0.6,1.8,0.7,5.4,0.5,7.7c0,0-0.5,2.5-1.6,4.3c-0.6,0.9-1.2,1.5-1.6,2.2c-1.4,1.5-2.1,1.8-2.5,4.3"/>
<path fill="none" stroke="#000000" stroke-miterlimit="10" d="M852.8,250.5c0,0,1-0.9,2.2-2.1c1.2-1.2,3.6-2.9,5.4-3.6
	c1.8-0.9,3.9-2,4.6-2.4c0.7-0.5,2.2-2,3.5-3.2c1.2-1.4,2.1-2.4,2-2.2c0,0,0.3-0.9,0.7-2.1c0.5-1.2,1.8-1.8,2.9-1.4
	c1.2,0.5,2,0.9,1.8,1c-0.1,0.1,1.4,0.5,3.5,0.6c2.1,0.1,3.9,0.6,4.2,0.9c0.3,0.3,0.5-0.3,0.6-1.4c0.1-1,1-2.5,2-3.5
	c0.9-0.9,3-2.4,4.5-3.5c1.5-1,3.2-2,4-2.1c0.7,0,2.4-1.6,3.6-3.6c1.4-2,2.4-3.2,2.4-3.1c0,0.1,0.6,1.4,1.4,2.4
	c0.7,1.2,1.5,2,1.6,1.8c0-0.1,0.1-0.1,0.3,0.1c0.1,0.3,0.1,0.5,0.1,0.5"/>
<path fill="none" stroke="#000000" stroke-miterlimit="10" d="M838.4,728.5L838.4,728.5L838.4,728.5z"/>
<path fill="none" stroke="#000000" stroke-miterlimit="10" d="M797.1,678.7L797.1,678.7L797.1,678.7z"/>
<path fill="none" stroke="#000000" stroke-miterlimit="10" d="M909.4,671.7C909,671.8,909,671.8,909.4,671.7
	C909.7,671.6,909.5,671.7,909.4,671.7z"/>
<path fill="none" stroke="#000000" stroke-miterlimit="10" d="M922.1,657.4C922.1,657.6,922.1,657.6,922.1,657.4
	S921.9,657,922.1,657.4z"/>
<path fill="none" stroke="#000000" stroke-miterlimit="10" d="M923.7,657.6C922.9,659.2,922.9,659.2,923.7,657.6
	C924.4,656.1,924.4,656.1,923.7,657.6z"/>
<path fill="none" stroke="#000000" stroke-miterlimit="10" d="M920.6,657.4L920.6,657.4L920.6,657.4z"/>
<path fill="none" stroke="#000000" stroke-miterlimit="10" d="M918,656.7L918,656.7L918,656.7z"/>
<path fill="none" stroke="#000000" stroke-miterlimit="10" d="M937.5,666.2C937.2,666.6,937.2,666.6,937.5,666.2
	C937.6,665.8,937.6,665.8,937.5,666.2z"/>
<path fill="none" stroke="#000000" stroke-miterlimit="10" d="M932.6,665.7c-0.1,0.7,0.5,1,1.2,0.9c0.7-0.3,0.9-1.4,0.1-2.4
	c-0.7-1-1-1.4-0.7-0.6c0.3,0.8,0.3,1.2,0,1.2C933.1,664.6,932.8,664.9,932.6,665.7z"/>
<path fill="none" stroke="#000000" stroke-miterlimit="10" d="M933.7,661.1c-0.3,0,0,0.3,0.6,0.9c0.6,0.6,0.7,0.6,0.5,0.1
	C934.5,661.7,934,661.1,933.7,661.1z"/>
<path fill="none" stroke="#000000" stroke-miterlimit="10" d="M937.6,664.8C937.9,664.9,937.9,664.9,937.6,664.8
	C937.2,664.8,937.2,664.8,937.6,664.8z"/>
<path fill="none" stroke="#000000" stroke-miterlimit="10" d="M933.5,658.7L933.5,658.7L933.5,658.7z"/>
<path fill="none" stroke="#000000" stroke-miterlimit="10" d="M936.4,665.1L936.4,665.1L936.4,665.1z"/>
<path fill="none" stroke="#000000" stroke-miterlimit="10" d="M936,662.2c0.6,0.7,1.2,1,1.6,0.6c0.5-0.5,0.5-0.7,0.3-0.7
	s-0.3,0-0.3,0s-0.1-0.5-0.3-1c-0.2-0.6-0.1-0.7,0.1-0.7c0.3,0,0.6,0,0.6,0s0-0.1-0.1-0.3s0-0.1,0.1-0.3c0.1-0.1,0-0.6-0.3-1.4
	c-0.3-0.7-0.7-1.4-1-1.4s-1,0.1-1.8,0.5c-0.7,0.3-0.9,0.9-0.5,1c0.5,0.1,0.7,0.7,0.7,1.4C934.9,660.5,935.5,661.5,936,662.2z"/>
<path fill="none" stroke="#000000" stroke-miterlimit="10" d="M938.7,663.6C938.6,664.1,938.6,664.1,938.7,663.6
	C939.1,663.3,939.1,663.3,938.7,663.6z"/>
<path fill="none" stroke="#000000" stroke-miterlimit="10" d="M915.3,655.5L915.3,655.5L915.3,655.5z"/>
<path fill="none" stroke="#000000" stroke-miterlimit="10" d="M808.2,678.9L808.2,678.9L808.2,678.9z"/>
<path fill="none" stroke="#000000" stroke-miterlimit="10" d="M789.6,683.3c-0.3,1,2.7,1.2,6.6,0.3c3.9-0.9,8-1,9.1-0.6
	c1.2,0.5,1.8,0.9,1.2,0.7c-0.7-0.2-0.1-0.7,0.9-1.2c1-0.5,0.9-0.7-0.1-0.9c-1.2,0-2.9-0.5-3.6-0.7c-0.7-0.3-2.5-1.2-3.7-1.6
	c-1.2-0.5-2.1,0.1-1.6,1.5c0.3,1.4,0.1,1.8-0.6,1.2c-0.6-0.6-1.2-1-1.4-0.7c-0.1,0.3-0.5,0.3-0.7,0.1s-1.8-0.1-3.1,0
	S789.9,682.2,789.6,683.3z"/>
<path fill="none" stroke="#000000" stroke-miterlimit="10" d="M782.8,683.6c-0.6,0,0.1,0.5,1.4,0.7c1.4,0.3,2.5,0.5,2.7,0.1
	c0.1-0.3,0.1-0.3,0.1-0.1c0,0.2,0.1,0.1,0.5,0.1c0.3,0,0.5-0.1,0.3-0.1s-0.3-1.2-0.5-2.5c-0.1-1.4-0.7-1.6-1.8-0.6
	c-1,1-1.8,2.1-1.8,2.2S783.2,683.6,782.8,683.6z"/>
<path fill="none" stroke="#000000" stroke-miterlimit="10" d="M828.8,699L828.8,699L828.8,699z"/>
<path fill="none" stroke="#000000" stroke-miterlimit="10" d="M779.3,683.6C779.1,683.5,779.1,683.5,779.3,683.6
	C779.5,683.7,779.4,683.7,779.3,683.6z"/>
<path fill="none" stroke="#000000" stroke-miterlimit="10" d="M894.6,666.9L894.6,666.9L894.6,666.9z"/>
<path fill="none" stroke="#000000" stroke-miterlimit="10" d="M895.4,676.5L895.4,676.5L895.4,676.5z"/>
<path fill="none" stroke="#000000" stroke-miterlimit="10" d="M891.6,668.8L891.6,668.8L891.6,668.8z"/>
<path fill="none" stroke="#000000" stroke-miterlimit="10" d="M890.1,679C889.6,678.9,889.6,678.9,890.1,679
	C890.5,679,890.5,679,890.1,679z"/>
<path fill="none" stroke="#000000" stroke-miterlimit="10" d="M830.2,698.5L830.2,698.5L830.2,698.5z"/>
<path fill="none" stroke="#000000" stroke-miterlimit="10" d="M906.9,679.1C905.9,679.7,905.9,679.7,906.9,679.1
	C908,678.5,907.9,678.7,906.9,679.1z"/>
<path fill="none" stroke="#000000" stroke-miterlimit="10" d="M899.1,675.3L899.1,675.3L899.1,675.3z"/>
<path fill="none" stroke="#000000" stroke-miterlimit="10" d="M896.5,673.5L896.5,673.5L896.5,673.5z"/>
<path fill="none" stroke="#000000" stroke-miterlimit="10" d="M899.1,663.3L899.1,663.3L899.1,663.3z"/>
<path fill="none" stroke="#000000" stroke-miterlimit="10" d="M898.7,674.8L898.7,674.8L898.7,674.8z"/>
<path fill="none" stroke="#000000" stroke-miterlimit="10" d="M887.2,670.3C886.9,670.2,886.9,670.2,887.2,670.3
	S887.4,670.7,887.2,670.3z"/>
<path fill="none" stroke="#000000" stroke-miterlimit="10" d="M877,673.6C877,673.9,877,673.9,877,673.6
	C877,673.2,877,673.3,877,673.6z"/>
<path fill="none" stroke="#000000" stroke-miterlimit="10" d="M849.6,688.4c0,0-0.5,1.4-1,3c-0.6,1.6-1.6,3.6-2.2,4.3
	s1.8-0.5,5.4-2.4l6.6-3.7"/>
<path fill="none" stroke="#000000" stroke-miterlimit="10" d="M842.5,699.4c-0.9,1-0.9,1.4-0.1,0.6c0.7-0.7,1.6-1.5,1.6-1.8
	C844.1,697.7,843.5,698.3,842.5,699.4z"/>
<path fill="none" stroke="#000000" stroke-miterlimit="10" d="M844.2,696.5c0.3-0.1,0.6-0.5,0.7-0.7s0-0.1-0.5,0.1
	C844.1,696.2,843.9,696.6,844.2,696.5z"/>
<path fill="none" stroke="#000000" stroke-miterlimit="10" d="M879.8,678.9C879.4,678.9,879.4,678.9,879.8,678.9
	C880.1,678.9,880.2,678.9,879.8,678.9z"/>
<path fill="none" stroke="#000000" stroke-miterlimit="10" d="M883.6,679.3C883.4,679.3,883.4,679.3,883.6,679.3
	S884.1,679.5,883.6,679.3z"/>
<path fill="none" stroke="#000000" stroke-miterlimit="10" d="M914.5,670.7C914,670.4,914,670.4,914.5,670.7
	C914.9,670.8,914.9,670.8,914.5,670.7z"/>
<path fill="none" stroke="#000000" stroke-miterlimit="10" d="M882,678.4C881,678.2,881,678.2,882,678.4S882.8,678.4,882,678.4z"/>
<path fill="none" stroke="#000000" stroke-miterlimit="10" d="M811.1,682.1c-0.1,0.6,0,0.9,0.1,0.6c0.1-0.3,0.6-0.6,0.7-0.6
	s0.5-0.1,0.6-0.1c0,0-0.1-0.3-0.5-0.7c-0.3-0.3-0.6-0.6-0.7-0.5C811.4,680.7,811.3,681.4,811.1,682.1z"/>
<path fill="none" stroke="#000000" stroke-miterlimit="10" d="M875.6,677.6C875.4,677.8,875.4,677.8,875.6,677.6
	S875.7,677.5,875.6,677.6z"/>
<path fill="none" stroke="#000000" stroke-miterlimit="10" d="M868.4,676.1c-2.4,0.6-3.2,0.9-2,0.7c1.4-0.1,3.2-0.6,4.3-1
	C871.8,675.5,870.8,675.8,868.4,676.1z"/>
<path fill="none" stroke="#000000" stroke-miterlimit="10" d="M855.4,679.7c0.9,0.3,0.6,0.5-0.6,0.1c-1.2-0.3-2-0.6-1.6-0.6
	C853.4,679.3,854.5,679.3,855.4,679.7z"/>
<path fill="none" stroke="#000000" stroke-miterlimit="10" d="M907.5,674.4C907.3,674.5,907.3,674.5,907.5,674.4
	C907.8,674.3,908,674.3,907.5,674.4z"/>
<path fill="none" stroke="#000000" stroke-miterlimit="10" d="M906.5,673C906.3,673,906.3,673,906.5,673c0.3,0.3,0.5,0.3,0.5,0.3
	S906.8,673.2,906.5,673z"/>
<path fill="none" stroke="#000000" stroke-miterlimit="10" d="M908.1,672.8c0.3-0.1,0.1-0.3-0.3-0.1c-0.5,0.1-0.6,0.3-0.5,0.3
	C907.4,673,907.9,673,908.1,672.8z"/>
<path fill="none" stroke="#000000" stroke-miterlimit="10" d="M835.6,681L835.6,681L835.6,681z"/>
<path fill="none" stroke="#000000" stroke-miterlimit="10" d="M841.2,680.2L841.2,680.2L841.2,680.2z"/>
<path fill="none" stroke="#000000" stroke-miterlimit="10" d="M831,671.9C830.9,672.1,830.9,672.1,831,671.9
	C831.2,671.9,831.2,671.9,831,671.9z"/>
<path fill="none" stroke="#000000" stroke-miterlimit="10" d="M849.4,680.6C848.9,680.7,848.9,680.7,849.4,680.6
	C849.8,680.5,849.8,680.5,849.4,680.6z"/>
<path fill="none" stroke="#000000" stroke-miterlimit="10" d="M841.7,681c-0.3,0-0.9,0.3-1.2,0.6c-0.3,0.3,0,0.3,0.6,0
	C841.7,681.2,842.2,681,841.7,681z"/>
<line fill="none" stroke="#000000" stroke-miterlimit="10" x1="853" y1="687.1" x2="856.9" y2="685.1"/>
<path fill="none" stroke="#000000" stroke-miterlimit="10" d="M844.1,680.7c-0.6,0.5,0.3,0.1,2-0.5s2.2-0.9,1.5-0.6
	c-0.7,0.3-1.6,0.6-1.8,0.5c-0.1-0.1-0.1-0.3-0.1-0.5c0.1-0.3-0.1-0.3-0.6-0.1c-0.5,0.1-0.6,0.3-0.3,0.5
	C845,680.2,844.6,680.5,844.1,680.7z"/>
<path fill="none" stroke="#000000" stroke-miterlimit="10" d="M823.8,671.4C823.2,671.3,823.2,671.3,823.8,671.4
	C824.6,671.4,824.6,671.4,823.8,671.4z"/>
<path fill="none" stroke="#000000" stroke-miterlimit="10" d="M821,669.3c-0.1,0.1,0.1,0.3,0.6,0.3s0.6-0.1,0.3-0.3
	C821.6,669.2,821.2,668.9,821,669.3z"/>
<path fill="none" stroke="#000000" stroke-miterlimit="10" d="M813.1,682.9c0,0.5,0.3,0.5,0.6,0.1c0.5-0.3,0.5-0.6,0.1-0.7
	C813.5,682.1,813.1,682.5,813.1,682.9z"/>
<path fill="none" stroke="#000000" stroke-miterlimit="10" d="M856.9,685.1l7.3-2.2c3.9-1.2,8.2-2.1,9.6-2.1s0.3,1.2-2.4,2.4
	c-2.7,1.4-6.7,3.1-9.1,4.3c-2.4,1.2-4.3,2-4.3,2"/>
<path fill="none" stroke="#000000" stroke-miterlimit="10" d="M862.3,678.9C862,679.1,862,679.1,862.3,678.9
	C862.5,678.5,862.7,678.7,862.3,678.9z"/>
<line fill="none" stroke="#000000" stroke-miterlimit="10" x1="853" y1="687.1" x2="849.6" y2="688.4"/>
<line fill="none" stroke="#000000" stroke-miterlimit="10" x1="856.9" y1="685.1" x2="858" y2="689.6"/>
<path fill="none" stroke="#000000" stroke-miterlimit="10" d="M853,687.1c0,0-0.3,0.6-0.7,1.4c-0.3,0.8-1.2,1-1.8,0.7
	c-0.7-0.3-0.9-0.6-0.9-0.6"/>
<path fill="none" stroke="#000000" stroke-miterlimit="10" d="M713.3,489c0,0,0-1.4,0.1-3c0.1-1.6-0.5-3.6-1.2-4.2s-1-2-0.5-2.9
	c0.6-0.9-0.3-2.4-1.6-3.6c-1.4-1.2-3-2.9-3.7-3.9c-0.7-1-1.8-2.5-2.4-3.2c-0.6-0.7-2.2-2.7-3.9-4.3c-1.6-1.6-3.5-3.5-4-3.9
	c-0.6-0.5-1.5-1-1.8-1.5c-0.3-0.3-0.6-1.2-0.6-2s-1.2-2-2.5-2.5s-3.9-2-5.4-2.9c-1.5-0.9-2.5-2.4-2.2-3.2c0.3-0.9,2.1-2.1,3.7-2.5
	c1.6-0.5,3.5-1.5,3.7-2.1s-0.5-2-1.6-2.5c-1.2-0.6-2.4-2-2.5-3c-0.1-1-1-1.8-2.1-1.8c-1,0-2.4,0.3-3,0.6c-0.6,0.3-1.8,0.3-2.7,0
	c-0.9-0.3-2.4-1.4-3.1-2.2c-0.9-1-1.4-2.2-1-2.7c0.3-0.5,0.3-0.7,0.1-0.7s-0.3-0.7-0.5-1.6c-0.1-0.9-0.7-2.1-1.5-2.5
	c-0.7-0.5-2.1-1.5-2.9-2.5c-0.7-1-1.5-1.8-1.5-1.8"/>
<path fill="none" stroke="#000000" stroke-miterlimit="10" d="M713.3,489c0,0-0.1,1.8-0.3,3.9c-0.1,2.1-0.1,5.7-0.1,7.7
	c0,2.1,0.3,4.6,0.5,5.5c0.1,0.9-0.3,2-1.2,2.4c-0.7,0.5-3,1.4-4.7,2.1c-2,0.7-3.2,2-3.2,2.7c0,0.7-0.3,3-0.9,5.1
	c-0.6,2.1-1.5,3.5-2.1,3.1c-0.6-0.3-1.6-0.7-2.2-0.9c-0.7-0.1-2.2-0.1-3.5-0.1c-1.3,0-2.5,0.7-3,1.5c-0.5,0.7-1.6,1.6-2.7,2.1
	c-1,0.5-2,0.9-2,0.9"/>
<path fill="none" stroke="#000000" stroke-miterlimit="10" d="M694,492c0,0,1.5,0,3.2-0.1s3.7-0.3,4.3-0.6c0.6-0.3,1.6-0.7,2.2-0.9
	c0.6-0.1,3-0.6,5.4-0.9c2.4-0.3,4.2-0.5,4.2-0.5"/>
<path fill="none" stroke="#000000" stroke-miterlimit="10" d="M586.3,374c0,0,0.9,0.9,1.8,2.1c1,1.2,1.5,3,1,4
	c-0.5,1-0.7,2.1-0.9,2.2c0,0.1-1,0.3-2.2,0.3s-4-0.1-6.5-0.5c-2.4-0.1-5.2,0-6.2,0.5c-1.2,0.5-3,0.6-4.2,0.1c-1.2-0.3-3-0.7-4-1
	c-1-0.3-1.8-1.2-1.8-2.1c0.1-0.9,0.1-1.6,0.1-1.6"/>
</svg>
